SplineFontDB: 3.2
FontName: GOST2.304-81TypeA
FullName: GOST 2.304-81 Type A
FamilyName: GOST 2.304-81
Weight: Normal
Copyright: 
Version: 0.7.6
ItalicAngle: 0
UnderlinePosition: -90
UnderlineWidth: 45
Ascent: 818
Descent: 182
InvalidEm: 0
sfntRevision: 0x0000b333
LayerCount: 2
Layer: 0 0 "+BBcEMAQ0BD0EOAQ5 +BD8EOwQwBD0A" 1
Layer: 1 0 "+BB8ENQRABDUENAQ9BDgEOQAA +BD8EOwQwBD0A" 0
XUID: [1021 540 1459218968 5295873]
UniqueID: 4500000
StyleMap: 0x0040
FSType: 0
OS2Version: 4
OS2_WeightWidthSlopeOnly: 1
OS2_UseTypoMetrics: 0
CreationTime: 1422632559
ModificationTime: 1680295123
PfmFamily: 17
TTFWeight: 400
TTFWidth: 5
LineGap: 45
VLineGap: 0
Panose: 2 0 5 3 0 0 2 4 0 3
OS2TypoAscent: 818
OS2TypoAOffset: 0
OS2TypoDescent: -182
OS2TypoDOffset: 0
OS2TypoLinegap: 45
OS2WinAscent: 818
OS2WinAOffset: 0
OS2WinDescent: 227
OS2WinDOffset: 0
HheadAscent: 818
HheadAOffset: 0
HheadDescent: -182
HheadDOffset: 0
OS2SubXSize: 650
OS2SubYSize: 710
OS2SubXOff: -90
OS2SubYOff: 227
OS2SupXSize: 650
OS2SupYSize: 710
OS2SupXOff: 308
OS2SupYOff: 409
OS2StrikeYSize: 45
OS2StrikeYPos: 227
OS2CapHeight: 636
OS2XHeight: 455
OS2FamilyClass: 2048
OS2Vendor: 'NCSM'
OS2CodePages: 20000006.00000000
OS2UnicodeRanges: 800002ff.000120df.00000000.00000000
Lookup: 1 0 0 "'zero' Slashed Zero lookup 0" { "'zero' Slashed Zero lookup 0 subtable"  } ['zero' ('DFLT' <'dflt' > 'cyrl' <'RUS ' 'dflt' > 'grek' <'dflt' > 'latn' <'CES ' 'CSY ' 'DEU ' 'ENG ' 'ESP ' 'GAL ' 'HUN ' 'ITA ' 'LTH ' 'PLK ' 'PTG ' 'ROM ' 'RUS ' 'SKY ' 'SLK ' 'TRK ' 'dflt' > 'math' <'RUS ' 'dflt' > ) ]
Lookup: 1 0 0 "'cv01' Character Variants 01 lookup 1" { "'cv01' Character Variants 01 lookup 1 subtable"  } ['cv01' ('DFLT' <'dflt' > 'cyrl' <'RUS ' 'dflt' > 'grek' <'dflt' > 'latn' <'CES ' 'CSY ' 'DEU ' 'ENG ' 'ESP ' 'GAL ' 'HUN ' 'ITA ' 'LTH ' 'PLK ' 'PTG ' 'ROM ' 'RUS ' 'SKY ' 'SLK ' 'TRK ' 'dflt' > 'math' <'RUS ' 'dflt' > ) ]

StartChar: .notdef
Encoding: 65536 -1 0
Width: 409
GlyphClass: 1
Flags: W
TeX: 636 0
LayerCount: 2
Fore
SplineSet
45 23 m 2
 45 614 l 2
 45 624 54 636 68 636 c 2
 341 636 l 2
 351 636 364 628 364 614 c 2
 364 23 l 2
 364 13 355 0 341 0 c 2
 68 0 l 2
 58 0 45 9 45 23 c 2
91 45 m 1
 318 45 l 1
 318 591 l 1
 91 591 l 1
 91 45 l 1
EndSplineSet
EndChar

StartChar: exclam
Encoding: 33 33 5
Width: 136
GlyphClass: 2
Flags: W
TeX: 636 0
LayerCount: 2
Fore
SplineSet
45 23 m 0
 45 36 55 45 68 45 c 0
 81 45 91 36 91 23 c 0
 91 10 81 0 68 0 c 0
 55 0 45 10 45 23 c 0
45 159 m 2
 45 614 l 2
 45 626 56 636 68 636 c 0
 80 636 91 626 91 614 c 2
 91 159 l 2
 91 147 80 136 68 136 c 0
 56 136 45 147 45 159 c 2
EndSplineSet
EndChar

StartChar: quotedbl
Encoding: 34 34 6
Width: 227
GlyphClass: 2
Flags: W
TeX: 636 -500
LayerCount: 2
Fore
SplineSet
23 523 m 2
 23 528 l 1
 46 619 l 2
 49 629 58 636 68 636 c 0
 82 636 91 625 91 614 c 0
 91 612 90 610 90 608 c 2
 68 517 l 2
 65 507 55 500 45 500 c 0
 31 500 23 512 23 523 c 2
114 523 m 2
 114 528 l 1
 137 619 l 2
 140 629 149 636 159 636 c 0
 173 636 182 625 182 614 c 0
 182 612 181 610 181 608 c 2
 159 517 l 2
 156 507 146 500 136 500 c 0
 122 500 114 512 114 523 c 2
EndSplineSet
EndChar

StartChar: numbersign
Encoding: 35 35 7
Width: 409
GlyphClass: 2
Flags: W
TeX: 636 0
LayerCount: 2
Fore
SplineSet
45 182 m 0
 45 194 56 205 68 205 c 2
 114 205 l 1
 114 432 l 1
 68 432 l 2
 56 432 45 443 45 455 c 0
 45 467 56 477 68 477 c 2
 114 477 l 1
 114 614 l 2
 114 626 124 636 136 636 c 0
 148 636 159 626 159 614 c 2
 159 477 l 1
 250 477 l 1
 250 614 l 2
 250 626 261 636 273 636 c 0
 285 636 295 626 295 614 c 2
 295 477 l 1
 341 477 l 2
 353 477 364 467 364 455 c 0
 364 443 353 432 341 432 c 2
 295 432 l 1
 295 205 l 1
 341 205 l 2
 353 205 364 194 364 182 c 0
 364 170 353 159 341 159 c 2
 295 159 l 1
 295 23 l 2
 295 11 285 0 273 0 c 0
 261 0 250 11 250 23 c 2
 250 159 l 1
 159 159 l 1
 159 23 l 2
 159 11 148 0 136 0 c 0
 124 0 114 11 114 23 c 2
 114 159 l 1
 68 159 l 2
 56 159 45 170 45 182 c 0
159 205 m 1
 250 205 l 1
 250 432 l 1
 159 432 l 1
 159 205 l 1
EndSplineSet
EndChar

StartChar: dollar
Encoding: 36 36 8
Width: 409
GlyphClass: 2
Flags: W
TeX: 727 91
LayerCount: 2
Fore
SplineSet
45 68 m 0
 45 81 56 91 68 91 c 0
 73 91 78 89 82 86 c 0
 112 63 145 50 182 46 c 1
 182 317 l 1
 86 416 l 2
 60 443 45 475 45 510 c 0
 45 586 111 628 182 635 c 1
 182 705 l 2
 182 717 193 727 205 727 c 0
 217 727 227 717 227 705 c 2
 227 635 l 1
 274 631 318 615 355 586 c 0
 361 581 364 575 364 568 c 0
 364 555 353 545 341 545 c 0
 336 545 331 547 327 550 c 0
 298 573 265 586 227 590 c 1
 227 335 l 1
 317 243 l 2
 347 211 364 172 364 128 c 0
 364 50 299 8 227 1 c 1
 227 -68 l 2
 227 -80 217 -91 205 -91 c 0
 193 -91 182 -80 182 -68 c 2
 182 1 l 1
 135 5 92 21 54 50 c 0
 48 55 45 61 45 68 c 0
91 510 m 0
 91 488 99 468 119 448 c 2
 182 383 l 1
 182 590 l 1
 127 584 91 553 91 510 c 0
227 47 m 1
 283 53 318 83 318 128 c 0
 318 161 307 187 284 211 c 2
 227 270 l 1
 227 47 l 1
EndSplineSet
EndChar

StartChar: percent
Encoding: 37 37 9
Width: 772
GlyphClass: 2
Flags: W
TeX: 636 0
LayerCount: 2
Fore
SplineSet
454 136 m 0
 454 211 516 272 591 272 c 0
 666 272 727 211 727 136 c 0
 727 61 666 0 591 0 c 0
 516 0 454 61 454 136 c 0
500 136 m 0
 500 86 541 45 591 45 c 0
 641 45 682 86 682 136 c 0
 682 186 641 227 591 227 c 0
 541 227 500 186 500 136 c 0
45 500 m 0
 45 575 107 636 182 636 c 0
 257 636 318 575 318 500 c 0
 318 425 257 364 182 364 c 0
 107 364 45 425 45 500 c 0
91 500 m 0
 91 450 132 409 182 409 c 0
 232 409 273 450 273 500 c 0
 273 550 232 591 182 591 c 0
 132 591 91 550 91 500 c 0
181 23 m 0
 181 27 183 31 185 35 c 2
 548 625 l 2
 552 632 560 636 568 636 c 0
 581 636 591 625 591 614 c 0
 591 610 589 606 587 602 c 2
 224 11 l 2
 220 4 212 0 204 0 c 0
 191 0 181 12 181 23 c 0
EndSplineSet
EndChar

StartChar: ampersand
Encoding: 38 38 10
Width: 500
GlyphClass: 2
Flags: W
TeX: 636 0
LayerCount: 2
Fore
SplineSet
45 159 m 0
 45 190 53 219 69 243 c 2
 165 389 l 1
 111 472 l 2
 100 489 91 509 91 534 c 0
 91 590 136 636 193 636 c 0
 250 636 295 591 295 534 c 0
 295 511 288 491 275 472 c 2
 220 389 l 1
 365 166 l 1
 415 220 l 2
 420 225 426 227 432 227 c 0
 445 227 455 217 455 205 c 0
 455 200 453 193 449 189 c 2
 391 127 l 1
 451 35 l 2
 453 31 455 27 455 23 c 0
 455 11 445 0 432 0 c 0
 425 0 417 3 413 10 c 2
 359 92 l 1
 309 37 284 0 205 0 c 0
 118 0 45 72 45 159 c 0
91 159 m 0
 91 97 143 45 205 45 c 0
 237 45 262 56 285 79 c 0
 287 81 304 99 334 132 c 1
 193 348 l 1
 107 218 l 2
 97 203 91 184 91 159 c 0
136 534 m 0
 136 521 141 510 150 497 c 2
 193 430 l 1
 237 498 l 2
 244 509 250 519 250 534 c 0
 250 566 224 591 193 591 c 0
 162 591 136 565 136 534 c 0
EndSplineSet
EndChar

StartChar: quotesingle
Encoding: 39 39 11
Width: 136
GlyphClass: 2
Flags: W
TeX: 636 -500
LayerCount: 2
Fore
SplineSet
23 523 m 2
 23 528 l 1
 46 619 l 2
 49 629 58 636 68 636 c 0
 82 636 91 625 91 614 c 0
 91 612 90 610 90 608 c 2
 68 517 l 2
 65 507 55 500 45 500 c 0
 31 500 23 512 23 523 c 2
EndSplineSet
EndChar

StartChar: parenleft
Encoding: 40 40 12
Width: 181
GlyphClass: 2
Flags: W
TeX: 682 45
LayerCount: 2
Fore
SplineSet
45 318 m 0
 45 423 61 540 92 665 c 0
 95 675 104 682 114 682 c 0
 128 682 136 670 136 659 c 2
 136 654 l 1
 106 531 91 419 91 318 c 0
 91 217 106 106 136 -17 c 1
 136 -23 l 2
 136 -34 128 -45 114 -45 c 0
 104 -45 94 -38 91 -28 c 0
 60 97 45 213 45 318 c 0
EndSplineSet
EndChar

StartChar: parenright
Encoding: 41 41 13
Width: 181
GlyphClass: 2
Flags: W
TeX: 681 46
LayerCount: 2
Fore
SplineSet
137 318 m 0
 137 213 121 96 90 -29 c 0
 87 -39 78 -46 68 -46 c 0
 54 -46 46 -34 46 -23 c 2
 46 -18 l 1
 76 105 91 217 91 318 c 0
 91 419 76 530 46 653 c 1
 46 659 l 2
 46 670 54 681 68 681 c 0
 78 681 88 674 91 664 c 0
 122 539 137 423 137 318 c 0
EndSplineSet
EndChar

StartChar: asterisk
Encoding: 42 42 14
Width: 409
GlyphClass: 2
Flags: W
TeX: 636 -409
LayerCount: 2
Fore
SplineSet
91 523 m 0
 91 535 102 545 114 545 c 2
 168 545 l 1
 139 604 l 2
 137 607 136 611 136 614 c 0
 136 625 145 636 159 636 c 0
 167 636 176 632 180 624 c 2
 205 574 l 1
 230 624 l 2
 234 632 242 636 250 636 c 0
 264 636 273 625 273 614 c 0
 273 611 272 607 270 604 c 2
 241 545 l 1
 295 545 l 2
 307 545 318 535 318 523 c 0
 318 511 307 500 295 500 c 2
 241 500 l 1
 270 442 l 2
 272 439 273 435 273 432 c 0
 273 421 264 409 250 409 c 0
 242 409 234 414 230 422 c 2
 205 472 l 1
 180 422 l 2
 176 414 167 409 159 409 c 0
 145 409 136 421 136 432 c 0
 136 435 137 439 139 442 c 2
 168 500 l 1
 114 500 l 2
 102 500 91 511 91 523 c 0
EndSplineSet
EndChar

StartChar: plus
Encoding: 43 43 15
Width: 318
GlyphClass: 2
Flags: W
TeX: 364 -91
LayerCount: 2
Fore
SplineSet
23 227 m 0
 23 239 33 250 45 250 c 2
 136 250 l 1
 136 341 l 2
 136 353 147 364 159 364 c 0
 171 364 182 353 182 341 c 2
 182 250 l 1
 273 250 l 2
 285 250 295 239 295 227 c 0
 295 215 285 205 273 205 c 2
 182 205 l 1
 182 114 l 2
 182 102 171 91 159 91 c 0
 147 91 136 102 136 114 c 2
 136 205 l 1
 45 205 l 2
 33 205 23 215 23 227 c 0
EndSplineSet
EndChar

StartChar: comma
Encoding: 44 44 16
Width: 136
GlyphClass: 2
Flags: W
TeX: 45 91
LayerCount: 2
Fore
SplineSet
23 -68 m 2
 23 -63 l 1
 46 28 l 2
 49 38 58 45 68 45 c 0
 82 45 91 34 91 23 c 0
 91 21 90 19 90 17 c 2
 68 -74 l 2
 65 -84 55 -91 45 -91 c 0
 31 -91 23 -79 23 -68 c 2
EndSplineSet
EndChar

StartChar: hyphen
Encoding: 45 45 17
Width: 318
GlyphClass: 2
Flags: W
TeX: 250 -205
LayerCount: 2
Fore
SplineSet
23 227 m 0
 23 239 33 250 45 250 c 2
 273 250 l 2
 285 250 295 239 295 227 c 0
 295 215 285 205 273 205 c 2
 45 205 l 2
 33 205 23 215 23 227 c 0
EndSplineSet
EndChar

StartChar: period
Encoding: 46 46 18
Width: 136
GlyphClass: 2
Flags: W
TeX: 45 0
LayerCount: 2
Fore
SplineSet
45 23 m 0
 45 36 55 45 68 45 c 0
 81 45 91 36 91 23 c 0
 91 10 81 0 68 0 c 0
 55 0 45 10 45 23 c 0
EndSplineSet
Substitution2: "Single Substitution lookup 43 subtable" onedotenleader
Substitution2: "Single Substitution lookup 42 subtable" onedotenleader
EndChar

StartChar: slash
Encoding: 47 47 19
Width: 500
GlyphClass: 2
Flags: W
TeX: 636 0
LayerCount: 2
Fore
SplineSet
45 23 m 0
 45 27 47 31 49 35 c 2
 412 625 l 2
 416 632 424 636 432 636 c 0
 445 636 455 625 455 614 c 0
 455 610 453 606 451 602 c 2
 88 11 l 2
 84 4 76 0 68 0 c 0
 55 0 45 12 45 23 c 0
EndSplineSet
Substitution2: "Single Substitution lookup 3 subtable" fraction
EndChar

StartChar: zero
Encoding: 48 48 20
Width: 409
GlyphClass: 2
Flags: W
TeX: 636 0
LayerCount: 2
Fore
SplineSet
45 159 m 2
 45 477 l 2
 45 564 118 636 205 636 c 0
 292 636 364 564 364 477 c 2
 364 159 l 2
 364 72 292 0 205 0 c 0
 118 0 45 72 45 159 c 2
91 159 m 2
 91 97 143 45 205 45 c 0
 267 45 318 97 318 159 c 2
 318 477 l 2
 318 539 267 591 205 591 c 0
 143 591 91 539 91 477 c 2
 91 159 l 2
EndSplineSet
Substitution2: "'dnom' Denominators lookup 29 subtable" zero.dnom
Substitution2: "'numr' Numerators lookup 28 subtable" zero.numr
Substitution2: "Single Substitution lookup 25 subtable" zero.dnom
Substitution2: "Single Substitution lookup 23 subtable" zero.numr
Substitution2: "Single Substitution lookup 21 subtable" zero.numr
Substitution2: "Single Substitution lookup 19 subtable" zero.numr
Substitution2: "Single Substitution lookup 17 subtable" zero.numr
Substitution2: "Single Substitution lookup 15 subtable" zero.numr
Substitution2: "Single Substitution lookup 13 subtable" zero.numr
Substitution2: "Single Substitution lookup 11 subtable" zero.numr
Substitution2: "Single Substitution lookup 9 subtable" zero.numr
Substitution2: "Single Substitution lookup 7 subtable" zero.numr
Substitution2: "Single Substitution lookup 5 subtable" zero.numr
Substitution2: "'zero' Slashed Zero lookup 0 subtable" zero.slash
EndChar

StartChar: one
Encoding: 49 49 21
Width: 272
GlyphClass: 2
Flags: W
TeX: 636 0
LayerCount: 2
Fore
SplineSet
45 477 m 0
 45 483 47 488 52 493 c 2
 188 630 l 2
 193 635 200 636 205 636 c 0
 219 636 227 624 227 614 c 2
 227 23 l 2
 227 9 214 0 204 0 c 0
 190 0 182 12 182 27 c 2
 182 559 l 1
 84 461 l 2
 79 456 74 455 68 455 c 0
 56 455 45 465 45 477 c 0
EndSplineSet
Substitution2: "'dnom' Denominators lookup 29 subtable" one.dnom
Substitution2: "'numr' Numerators lookup 28 subtable" one.numr
Substitution2: "Single Substitution lookup 25 subtable" one.dnom
Substitution2: "Single Substitution lookup 23 subtable" one.numr
Substitution2: "Single Substitution lookup 21 subtable" one.numr
Substitution2: "Single Substitution lookup 19 subtable" one.numr
Substitution2: "Single Substitution lookup 17 subtable" one.numr
Substitution2: "Single Substitution lookup 15 subtable" one.numr
Substitution2: "Single Substitution lookup 13 subtable" one.numr
Substitution2: "Single Substitution lookup 11 subtable" one.numr
Substitution2: "Single Substitution lookup 9 subtable" one.numr
Substitution2: "Single Substitution lookup 7 subtable" one.numr
Substitution2: "Single Substitution lookup 5 subtable" one.numr
EndChar

StartChar: two
Encoding: 50 50 22
Width: 409
GlyphClass: 2
Flags: W
TeX: 636 0
LayerCount: 2
Fore
SplineSet
45 23 m 0
 45 28 46 32 49 36 c 2
 304 422 l 2
 314 437 318 455 318 477 c 0
 318 539 267 591 205 591 c 0
 156 591 111 555 97 515 c 0
 94 506 85 500 75 500 c 0
 61 500 53 512 53 523 c 0
 53 525 53 528 54 530 c 0
 74 589 135 636 205 636 c 0
 292 636 364 564 364 477 c 0
 364 449 358 421 342 396 c 2
 110 45 l 1
 341 45 l 2
 353 45 364 35 364 23 c 0
 364 11 353 0 341 0 c 2
 68 0 l 2
 56 0 45 10 45 23 c 0
EndSplineSet
Substitution2: "'dnom' Denominators lookup 29 subtable" two.dnom
Substitution2: "'numr' Numerators lookup 28 subtable" two.numr
Substitution2: "Single Substitution lookup 25 subtable" two.dnom
Substitution2: "Single Substitution lookup 23 subtable" two.numr
Substitution2: "Single Substitution lookup 21 subtable" two.numr
Substitution2: "Single Substitution lookup 19 subtable" two.numr
Substitution2: "Single Substitution lookup 17 subtable" two.numr
Substitution2: "Single Substitution lookup 15 subtable" two.numr
Substitution2: "Single Substitution lookup 13 subtable" two.numr
Substitution2: "Single Substitution lookup 11 subtable" two.numr
Substitution2: "Single Substitution lookup 9 subtable" two.numr
Substitution2: "Single Substitution lookup 7 subtable" two.numr
Substitution2: "Single Substitution lookup 5 subtable" two.numr
EndChar

StartChar: three
Encoding: 51 51 23
Width: 363
GlyphClass: 2
Flags: W
TeX: 636 0
LayerCount: 2
Fore
SplineSet
45 23 m 0
 45 35 56 45 68 45 c 2
 136 45 l 2
 212 45 273 105 273 182 c 0
 273 247 221 318 159 318 c 0
 147 318 136 328 136 340 c 0
 136 353 146 364 159 364 c 0
 219 364 250 409 250 477 c 0
 250 539 198 591 136 591 c 2
 68 591 l 2
 56 591 45 602 45 614 c 0
 45 626 56 636 68 636 c 2
 136 636 l 2
 223 636 295 564 295 477 c 0
 295 422 275 370 234 341 c 1
 287 307 318 240 318 182 c 0
 318 79 236 0 136 0 c 2
 68 0 l 2
 56 0 45 11 45 23 c 0
EndSplineSet
Substitution2: "'dnom' Denominators lookup 29 subtable" three.dnom
Substitution2: "'numr' Numerators lookup 28 subtable" three.numr
Substitution2: "Single Substitution lookup 25 subtable" three.dnom
Substitution2: "Single Substitution lookup 23 subtable" three.numr
Substitution2: "Single Substitution lookup 21 subtable" three.numr
Substitution2: "Single Substitution lookup 19 subtable" three.numr
Substitution2: "Single Substitution lookup 17 subtable" three.numr
Substitution2: "Single Substitution lookup 15 subtable" three.numr
Substitution2: "Single Substitution lookup 13 subtable" three.numr
Substitution2: "Single Substitution lookup 11 subtable" three.numr
Substitution2: "Single Substitution lookup 9 subtable" three.numr
Substitution2: "Single Substitution lookup 7 subtable" three.numr
Substitution2: "Single Substitution lookup 5 subtable" three.numr
Substitution2: "'cv01' Character Variants 01 lookup 1 subtable" three.alt
EndChar

StartChar: four
Encoding: 52 52 24
Width: 409
GlyphClass: 2
Flags: W
TeX: 636 0
LayerCount: 2
Fore
SplineSet
45 155 m 0
 45 158 45 161 46 165 c 2
 160 619 l 2
 163 630 172 636 182 636 c 0
 195 636 204 625 204 612 c 0
 204 609 204 607 203 604 c 2
 97 182 l 1
 227 182 l 1
 227 295 l 2
 227 307 238 318 250 318 c 0
 262 318 273 307 273 295 c 2
 273 182 l 1
 341 182 l 2
 353 182 364 171 364 159 c 0
 364 147 353 136 341 136 c 2
 273 136 l 1
 273 23 l 2
 273 9 260 0 250 0 c 0
 236 0 227 12 227 27 c 2
 227 136 l 1
 68 136 l 1
 68 136 l 1
 64 136 45 136 45 155 c 0
EndSplineSet
Substitution2: "'dnom' Denominators lookup 29 subtable" four.dnom
Substitution2: "'numr' Numerators lookup 28 subtable" four.numr
Substitution2: "Single Substitution lookup 25 subtable" four.dnom
Substitution2: "Single Substitution lookup 23 subtable" four.numr
Substitution2: "Single Substitution lookup 21 subtable" four.numr
Substitution2: "Single Substitution lookup 19 subtable" four.numr
Substitution2: "Single Substitution lookup 17 subtable" four.numr
Substitution2: "Single Substitution lookup 15 subtable" four.numr
Substitution2: "Single Substitution lookup 13 subtable" four.numr
Substitution2: "Single Substitution lookup 11 subtable" four.numr
Substitution2: "Single Substitution lookup 9 subtable" four.numr
Substitution2: "Single Substitution lookup 7 subtable" four.numr
Substitution2: "Single Substitution lookup 5 subtable" four.numr
EndChar

StartChar: five
Encoding: 53 53 25
Width: 363
GlyphClass: 2
Flags: W
TeX: 636 0
LayerCount: 2
Fore
SplineSet
45 23 m 0
 45 35 56 45 68 45 c 2
 142 45 l 2
 223 45 273 101 273 182 c 0
 273 256 222 318 159 318 c 2
 68 318 l 2
 58 318 45 327 45 341 c 2
 45 614 l 2
 45 624 54 636 68 636 c 2
 295 636 l 2
 307 636 318 626 318 614 c 0
 318 602 307 591 295 591 c 2
 91 591 l 1
 91 364 l 1
 159 364 l 2
 255 364 318 273 318 182 c 0
 318 79 250 0 142 0 c 2
 68 0 l 2
 56 0 45 11 45 23 c 0
EndSplineSet
Substitution2: "'dnom' Denominators lookup 29 subtable" five.dnom
Substitution2: "'numr' Numerators lookup 28 subtable" five.numr
Substitution2: "Single Substitution lookup 25 subtable" five.dnom
Substitution2: "Single Substitution lookup 23 subtable" five.numr
Substitution2: "Single Substitution lookup 21 subtable" five.numr
Substitution2: "Single Substitution lookup 19 subtable" five.numr
Substitution2: "Single Substitution lookup 17 subtable" five.numr
Substitution2: "Single Substitution lookup 15 subtable" five.numr
Substitution2: "Single Substitution lookup 13 subtable" five.numr
Substitution2: "Single Substitution lookup 11 subtable" five.numr
Substitution2: "Single Substitution lookup 9 subtable" five.numr
Substitution2: "Single Substitution lookup 7 subtable" five.numr
Substitution2: "Single Substitution lookup 5 subtable" five.numr
EndChar

StartChar: six
Encoding: 54 54 26
Width: 409
GlyphClass: 2
Flags: W
TeX: 636 0
LayerCount: 2
Fore
SplineSet
45 182 m 2
 45 364 l 2
 45 393 60 427 85 473 c 0
 117 532 178 600 239 634 c 0
 242 636 246 636 250 636 c 0
 261 636 273 628 273 614 c 0
 273 606 268 598 261 594 c 0
 211 567 154 503 125 451 c 0
 100 406 91 376 91 364 c 1
 205 364 l 2
 300 364 364 272 364 182 c 0
 364 92 301 0 205 0 c 0
 110 0 45 92 45 182 c 2
91 182 m 2
 91 109 142 45 205 45 c 0
 268 45 318 110 318 182 c 0
 318 255 268 318 205 318 c 2
 91 318 l 1
 91 182 l 2
EndSplineSet
Substitution2: "'dnom' Denominators lookup 29 subtable" six.dnom
Substitution2: "'numr' Numerators lookup 28 subtable" six.numr
Substitution2: "Single Substitution lookup 25 subtable" six.dnom
Substitution2: "Single Substitution lookup 23 subtable" six.numr
Substitution2: "Single Substitution lookup 21 subtable" six.numr
Substitution2: "Single Substitution lookup 19 subtable" six.numr
Substitution2: "Single Substitution lookup 17 subtable" six.numr
Substitution2: "Single Substitution lookup 15 subtable" six.numr
Substitution2: "Single Substitution lookup 13 subtable" six.numr
Substitution2: "Single Substitution lookup 11 subtable" six.numr
Substitution2: "Single Substitution lookup 9 subtable" six.numr
Substitution2: "Single Substitution lookup 7 subtable" six.numr
Substitution2: "Single Substitution lookup 5 subtable" six.numr
EndChar

StartChar: seven
Encoding: 55 55 27
Width: 409
GlyphClass: 2
Flags: W
TeX: 636 0
LayerCount: 2
Fore
SplineSet
45 545 m 2
 45 614 l 2
 45 628 58 636 68 636 c 2
 341 636 l 2
 346 636 364 635 364 617 c 0
 364 615 364 612 363 609 c 2
 227 18 l 2
 225 8 215 0 205 0 c 0
 191 0 182 12 182 23 c 2
 182 28 l 1
 312 591 l 1
 91 591 l 1
 91 545 l 2
 91 533 80 523 68 523 c 0
 56 523 45 533 45 545 c 2
EndSplineSet
Substitution2: "'dnom' Denominators lookup 29 subtable" seven.dnom
Substitution2: "'numr' Numerators lookup 28 subtable" seven.numr
Substitution2: "Single Substitution lookup 25 subtable" seven.dnom
Substitution2: "Single Substitution lookup 23 subtable" seven.numr
Substitution2: "Single Substitution lookup 21 subtable" seven.numr
Substitution2: "Single Substitution lookup 19 subtable" seven.numr
Substitution2: "Single Substitution lookup 17 subtable" seven.numr
Substitution2: "Single Substitution lookup 15 subtable" seven.numr
Substitution2: "Single Substitution lookup 13 subtable" seven.numr
Substitution2: "Single Substitution lookup 11 subtable" seven.numr
Substitution2: "Single Substitution lookup 9 subtable" seven.numr
Substitution2: "Single Substitution lookup 7 subtable" seven.numr
Substitution2: "Single Substitution lookup 5 subtable" seven.numr
EndChar

StartChar: eight
Encoding: 56 56 28
Width: 454
GlyphClass: 2
Flags: W
TeX: 636 0
LayerCount: 2
Fore
SplineSet
45 182 m 0
 45 254 84 314 142 344 c 1
 98 373 68 421 68 477 c 0
 68 564 140 636 227 636 c 0
 314 636 386 564 386 477 c 0
 386 421 357 373 313 344 c 1
 371 314 409 253 409 182 c 0
 409 79 329 0 227 0 c 0
 125 0 45 80 45 182 c 0
91 182 m 0
 91 104 149 45 227 45 c 0
 304 45 364 104 364 182 c 0
 364 260 306 318 227 318 c 0
 149 318 91 261 91 182 c 0
114 477 m 0
 114 415 165 364 227 364 c 0
 289 364 341 415 341 477 c 0
 341 539 289 591 227 591 c 0
 165 591 114 539 114 477 c 0
EndSplineSet
Substitution2: "'dnom' Denominators lookup 29 subtable" eight.dnom
Substitution2: "'numr' Numerators lookup 28 subtable" eight.numr
Substitution2: "Single Substitution lookup 25 subtable" eight.dnom
Substitution2: "Single Substitution lookup 23 subtable" eight.numr
Substitution2: "Single Substitution lookup 21 subtable" eight.numr
Substitution2: "Single Substitution lookup 19 subtable" eight.numr
Substitution2: "Single Substitution lookup 17 subtable" eight.numr
Substitution2: "Single Substitution lookup 15 subtable" eight.numr
Substitution2: "Single Substitution lookup 13 subtable" eight.numr
Substitution2: "Single Substitution lookup 11 subtable" eight.numr
Substitution2: "Single Substitution lookup 9 subtable" eight.numr
Substitution2: "Single Substitution lookup 7 subtable" eight.numr
Substitution2: "Single Substitution lookup 5 subtable" eight.numr
EndChar

StartChar: nine
Encoding: 57 57 29
Width: 409
GlyphClass: 2
Flags: W
TeX: 636 0
LayerCount: 2
Fore
SplineSet
364 454 m 2
 364 272 l 2
 364 243 349 209 324 163 c 0
 292 104 231 36 170 2 c 0
 167 0 163 0 159 0 c 0
 148 0 136 8 136 22 c 0
 136 30 141 38 148 42 c 0
 198 69 255 133 284 185 c 0
 309 230 318 260 318 272 c 1
 204 272 l 2
 109 272 45 364 45 454 c 0
 45 544 108 636 204 636 c 0
 299 636 364 544 364 454 c 2
318 454 m 2
 318 527 267 591 204 591 c 0
 141 591 91 526 91 454 c 0
 91 381 141 318 204 318 c 2
 318 318 l 1
 318 454 l 2
EndSplineSet
Substitution2: "'dnom' Denominators lookup 29 subtable" nine.dnom
Substitution2: "'numr' Numerators lookup 28 subtable" nine.numr
Substitution2: "Single Substitution lookup 25 subtable" nine.dnom
Substitution2: "Single Substitution lookup 23 subtable" nine.numr
Substitution2: "Single Substitution lookup 21 subtable" nine.numr
Substitution2: "Single Substitution lookup 19 subtable" nine.numr
Substitution2: "Single Substitution lookup 17 subtable" nine.numr
Substitution2: "Single Substitution lookup 15 subtable" nine.numr
Substitution2: "Single Substitution lookup 13 subtable" nine.numr
Substitution2: "Single Substitution lookup 11 subtable" nine.numr
Substitution2: "Single Substitution lookup 9 subtable" nine.numr
Substitution2: "Single Substitution lookup 7 subtable" nine.numr
Substitution2: "Single Substitution lookup 5 subtable" nine.numr
EndChar

StartChar: colon
Encoding: 58 58 30
Width: 136
GlyphClass: 2
Flags: W
TeX: 318 0
LayerCount: 2
Fore
SplineSet
45 296 m 0
 45 309 55 318 68 318 c 0
 81 318 91 309 91 296 c 0
 91 283 81 273 68 273 c 0
 55 273 45 283 45 296 c 0
45 23 m 0
 45 36 55 45 68 45 c 0
 81 45 91 36 91 23 c 0
 91 10 81 0 68 0 c 0
 55 0 45 10 45 23 c 0
EndSplineSet
EndChar

StartChar: semicolon
Encoding: 59 59 31
Width: 136
GlyphClass: 2
Flags: W
TeX: 318 91
LayerCount: 2
Fore
SplineSet
45 296 m 0
 45 309 55 318 68 318 c 0
 81 318 91 309 91 296 c 0
 91 283 81 273 68 273 c 0
 55 273 45 283 45 296 c 0
23 -68 m 2
 23 -63 l 1
 46 28 l 2
 49 38 58 45 68 45 c 0
 82 45 91 34 91 23 c 0
 91 21 90 19 90 17 c 2
 68 -74 l 2
 65 -84 55 -91 45 -91 c 0
 31 -91 23 -79 23 -68 c 2
EndSplineSet
EndChar

StartChar: less
Encoding: 60 60 32
Width: 363
GlyphClass: 2
Flags: W
TeX: 364 -91
LayerCount: 2
Fore
SplineSet
40 226 m 0
 40 238 58 248 58 248 c 1
 285 361 l 2
 288 363 292 364 295 364 c 0
 306 364 318 355 318 341 c 0
 318 333 313 324 305 320 c 2
 119 227 l 1
 305 134 l 2
 313 130 318 122 318 114 c 0
 318 100 306 91 295 91 c 0
 292 91 288 91 285 93 c 2
 58 207 l 2
 45 214 40 220 40 226 c 0
EndSplineSet
EndChar

StartChar: equal
Encoding: 61 61 33
Width: 318
GlyphClass: 2
Flags: W
TeX: 318 -137
LayerCount: 2
Fore
SplineSet
23 159 m 0
 23 171 33 182 45 182 c 2
 273 182 l 2
 285 182 295 171 295 159 c 0
 295 147 285 137 273 137 c 2
 45 137 l 2
 33 137 23 147 23 159 c 0
23 295 m 0
 23 307 33 318 45 318 c 2
 273 318 l 2
 285 318 295 307 295 295 c 0
 295 283 285 273 273 273 c 2
 45 273 l 2
 33 273 23 283 23 295 c 0
EndSplineSet
EndChar

StartChar: greater
Encoding: 62 62 34
Width: 363
GlyphClass: 2
Flags: W
TeX: 386 -113
LayerCount: 2
Fore
SplineSet
324 251 m 0
 324 239 306 229 306 229 c 1
 79 116 l 2
 76 114 72 113 69 113 c 0
 58 113 46 122 46 136 c 0
 46 144 51 153 59 157 c 2
 245 250 l 1
 59 343 l 2
 51 347 46 355 46 363 c 0
 46 377 58 386 69 386 c 0
 72 386 76 386 79 384 c 2
 306 270 l 2
 319 263 324 257 324 251 c 0
EndSplineSet
EndChar

StartChar: question
Encoding: 63 63 35
Width: 363
GlyphClass: 2
Flags: W
TeX: 636 0
LayerCount: 2
Fore
SplineSet
45 568 m 0
 45 572 47 575 49 579 c 0
 73 620 121 636 182 636 c 0
 257 636 318 575 318 500 c 0
 318 425 257 382 227 354 c 0
 212 339 205 320 205 295 c 2
 205 159 l 2
 205 147 194 136 182 136 c 0
 170 136 159 147 159 159 c 2
 159 295 l 2
 159 330 170 362 195 386 c 0
 231 421 273 451 273 500 c 0
 273 550 232 591 182 591 c 0
 127 591 100 576 88 556 c 0
 84 549 76 545 68 545 c 0
 55 545 45 557 45 568 c 0
159 23 m 0
 159 36 169 46 182 46 c 0
 195 46 205 36 205 23 c 0
 205 10 195 0 182 0 c 0
 169 0 159 10 159 23 c 0
EndSplineSet
EndChar

StartChar: at
Encoding: 64 64 36
Width: 727
GlyphClass: 2
Flags: W
TeX: 636 182
LayerCount: 2
Fore
SplineSet
45 136 m 2
 45 318 l 2
 45 413 89 493 139 543 c 0
 189 593 269 636 364 636 c 0
 459 636 539 593 589 543 c 0
 639 493 682 413 682 318 c 2
 682 159 l 2
 682 71 612 0 523 0 c 0
 495 0 470 16 460 40 c 1
 435 15 402 0 363 0 c 0
 288 0 227 61 227 136 c 2
 227 341 l 2
 227 404 278 455 341 455 c 2
 477 455 l 2
 491 455 500 442 500 432 c 2
 500 68 l 2
 500 55 510 45 523 45 c 0
 586 45 636 96 636 159 c 2
 636 318 l 2
 636 399 600 468 557 511 c 0
 514 554 446 591 364 591 c 0
 282 591 213 554 170 511 c 0
 127 468 91 399 91 318 c 2
 91 136 l 2
 91 55 127 -13 170 -56 c 0
 213 -99 282 -136 364 -136 c 0
 376 -136 386 -147 386 -159 c 0
 386 -171 376 -182 364 -182 c 0
 268 -182 189 -138 139 -88 c 0
 89 -38 45 41 45 136 c 2
273 136 m 2
 273 86 314 45 364 45 c 0
 414 45 455 88 455 136 c 2
 455 409 l 1
 341 409 l 2
 303 409 273 379 273 341 c 2
 273 136 l 2
EndSplineSet
EndChar

StartChar: A
Encoding: 65 65 37
Width: 454
GlyphClass: 2
Flags: W
TeX: 636 0
AnchorPoint: "Anchor-3" 227 -68 basechar 0
AnchorPoint: "Anchor-1" 227 750 basechar 0
AnchorPoint: "Anchor-0" 386 0 basechar 0
LayerCount: 2
Fore
SplineSet
45 23 m 0
 45 25 46 27 46 29 c 2
 205 620 l 2
 208 630 217 636 227 636 c 1
 227 636 l 1
 228 636 l 2
 238 636 247 630 250 620 c 2
 408 29 l 2
 408 27 409 25 409 23 c 0
 409 12 400 0 386 0 c 0
 376 0 368 7 365 17 c 2
 320 182 l 1
 135 182 l 1
 90 17 l 2
 87 7 78 0 68 0 c 0
 54 0 45 12 45 23 c 0
147 227 m 1
 308 227 l 1
 227 528 l 1
 147 227 l 1
EndSplineSet
EndChar

StartChar: B
Encoding: 66 66 38
Width: 409
GlyphClass: 2
Flags: W
TeX: 636 0
AnchorPoint: "Anchor-3" 182 -68 basechar 0
AnchorPoint: "Anchor-1" 182 750 basechar 0
LayerCount: 2
Fore
SplineSet
45 23 m 2
 45 614 l 2
 45 624 54 636 68 636 c 2
 182 636 l 2
 270 636 341 564 341 477 c 0
 341 421 312 373 267 344 c 1
 326 314 364 252 364 182 c 0
 364 80 284 0 182 0 c 2
 68 0 l 2
 58 0 45 9 45 23 c 2
91 45 m 1
 182 45 l 2
 260 45 318 104 318 182 c 0
 318 259 261 318 182 318 c 2
 91 318 l 1
 91 45 l 1
91 364 m 1
 182 364 l 2
 249 364 295 418 295 477 c 0
 295 539 244 591 182 591 c 2
 91 591 l 1
 91 364 l 1
EndSplineSet
EndChar

StartChar: C
Encoding: 67 67 39
Width: 363
GlyphClass: 2
Flags: W
TeX: 636 0
AnchorPoint: "Anchor-1" 205 750 basechar 0
LayerCount: 2
Fore
SplineSet
45 160 m 2
 45 477 l 2
 45 564 118 636 205 636 c 2
 295 636 l 2
 307 636 318 626 318 614 c 0
 318 602 307 591 295 591 c 2
 205 591 l 2
 143 591 91 539 91 477 c 2
 91 160 l 2
 91 98 143 45 205 45 c 2
 295 45 l 2
 307 45 318 35 318 23 c 0
 318 11 307 0 295 0 c 2
 205 0 l 2
 118 0 45 73 45 160 c 2
EndSplineSet
Substitution2: "'cv03' Character Variants 03 lookup 32 subtable" uni216D
EndChar

StartChar: D
Encoding: 68 68 40
Width: 409
GlyphClass: 2
Flags: W
TeX: 636 0
AnchorPoint: "Anchor-3" 182 -68 basechar 0
AnchorPoint: "Anchor-1" 182 750 basechar 0
LayerCount: 2
Fore
SplineSet
45 23 m 2
 45 614 l 2
 45 628 58 636 68 636 c 2
 205 636 l 2
 292 636 364 564 364 477 c 2
 364 160 l 2
 364 73 292 0 205 0 c 2
 68 0 l 2
 54 0 45 13 45 23 c 2
91 45 m 1
 205 45 l 2
 267 45 318 98 318 160 c 2
 318 477 l 2
 318 539 267 591 205 591 c 2
 91 591 l 1
 91 45 l 1
EndSplineSet
Substitution2: "'cv03' Character Variants 03 lookup 32 subtable" uni216E
EndChar

StartChar: E
Encoding: 69 69 41
Width: 363
GlyphClass: 2
Flags: W
TeX: 636 0
AnchorPoint: "Anchor-3" 182 -68 basechar 0
AnchorPoint: "Anchor-1" 182 750 basechar 0
AnchorPoint: "Anchor-0" 295 0 basechar 0
LayerCount: 2
Fore
SplineSet
45 23 m 2
 45 614 l 2
 45 624 54 636 68 636 c 2
 295 636 l 2
 307 636 318 626 318 614 c 0
 318 602 307 591 295 591 c 2
 91 591 l 1
 91 364 l 1
 205 364 l 2
 217 364 227 353 227 341 c 0
 227 329 217 318 205 318 c 2
 91 318 l 1
 91 45 l 1
 295 45 l 2
 307 45 318 35 318 23 c 0
 318 11 307 0 295 0 c 2
 68 0 l 2
 58 0 45 9 45 23 c 2
EndSplineSet
EndChar

StartChar: F
Encoding: 70 70 42
Width: 363
GlyphClass: 2
Flags: W
TeX: 636 0
LayerCount: 2
Fore
SplineSet
45 23 m 2
 45 614 l 2
 45 624 54 636 68 636 c 2
 295 636 l 2
 307 636 318 626 318 614 c 0
 318 602 307 591 295 591 c 2
 91 591 l 1
 91 364 l 1
 295 364 l 2
 307 364 318 353 318 341 c 0
 318 329 307 318 295 318 c 2
 91 318 l 1
 91 23 l 2
 91 11 80 0 68 0 c 0
 56 0 45 11 45 23 c 2
EndSplineSet
EndChar

StartChar: G
Encoding: 71 71 43
Width: 409
GlyphClass: 2
Flags: W
TeX: 636 0
AnchorPoint: "Anchor-3" 227 -68 basechar 0
AnchorPoint: "Anchor-1" 227 750 basechar 0
LayerCount: 2
Fore
SplineSet
45 159 m 2
 45 477 l 2
 45 564 118 636 205 636 c 2
 341 636 l 2
 353 636 364 626 364 614 c 0
 364 602 353 591 341 591 c 2
 205 591 l 2
 143 591 91 539 91 477 c 2
 91 159 l 2
 91 97 143 45 205 45 c 2
 318 45 l 1
 318 318 l 1
 250 318 l 2
 238 318 227 329 227 341 c 0
 227 353 238 364 250 364 c 2
 341 364 l 2
 351 364 364 355 364 341 c 2
 364 23 l 2
 364 13 355 0 341 0 c 2
 205 0 l 2
 118 0 45 72 45 159 c 2
EndSplineSet
EndChar

StartChar: H
Encoding: 72 72 44
Width: 409
GlyphClass: 2
Flags: W
TeX: 636 0
AnchorPoint: "Anchor-3" 205 -68 basechar 0
AnchorPoint: "Anchor-1" 205 750 basechar 0
LayerCount: 2
Fore
SplineSet
45 23 m 2
 45 614 l 2
 45 626 56 636 68 636 c 0
 80 636 91 626 91 614 c 2
 91 364 l 1
 318 364 l 1
 318 614 l 2
 318 626 329 636 341 636 c 0
 353 636 364 626 364 614 c 2
 364 23 l 2
 364 11 353 0 341 0 c 0
 329 0 318 11 318 23 c 2
 318 318 l 1
 91 318 l 1
 91 23 l 2
 91 11 80 0 68 0 c 0
 56 0 45 11 45 23 c 2
EndSplineSet
EndChar

StartChar: I
Encoding: 73 73 45
Width: 136
GlyphClass: 2
Flags: W
TeX: 636 0
AnchorPoint: "Anchor-1" 68 750 basechar 0
LayerCount: 2
Fore
SplineSet
45 23 m 2
 45 614 l 2
 45 626 56 636 68 636 c 0
 80 636 91 626 91 614 c 2
 91 23 l 2
 91 11 80 0 68 0 c 0
 56 0 45 11 45 23 c 2
EndSplineSet
Substitution2: "'cv03' Character Variants 03 lookup 32 subtable" uni2160
EndChar

StartChar: J
Encoding: 74 74 46
Width: 318
GlyphClass: 2
Flags: W
TeX: 637 0
LayerCount: 2
Fore
SplineSet
45 23 m 0
 45 35 56 45 68 45 c 2
 114 45 l 2
 179 45 227 90 227 159 c 2
 227 614 l 2
 227 626 238 637 250 637 c 0
 262 637 273 626 273 614 c 2
 273 159 l 2
 273 64 201 0 114 0 c 2
 68 0 l 2
 56 0 45 11 45 23 c 0
EndSplineSet
EndChar

StartChar: K
Encoding: 75 75 47
Width: 409
GlyphClass: 2
Flags: W
TeX: 636 0
AnchorPoint: "Anchor-3" 205 -68 basechar 0
LayerCount: 2
Fore
SplineSet
45 23 m 2
 45 614 l 2
 45 626 56 636 68 636 c 0
 80 636 91 626 91 614 c 2
 91 318 l 1
 323 627 l 2
 328 633 334 636 341 636 c 0
 354 636 364 626 364 614 c 0
 364 609 362 604 359 600 c 2
 183 365 l 1
 361 34 l 2
 363 31 364 27 364 23 c 0
 364 12 355 0 341 0 c 0
 333 0 325 4 321 12 c 2
 153 325 l 1
 91 242 l 1
 91 23 l 2
 91 11 80 0 68 0 c 0
 56 0 45 11 45 23 c 2
EndSplineSet
EndChar

StartChar: L
Encoding: 76 76 48
Width: 318
GlyphClass: 2
Flags: W
TeX: 636 0
AnchorPoint: "Anchor-4" 159 341 basechar 0
AnchorPoint: "Anchor-3" 159 -68 basechar 0
AnchorPoint: "Anchor-2" 159 614 basechar 0
AnchorPoint: "Anchor-1" 68 750 basechar 0
LayerCount: 2
Fore
SplineSet
45 23 m 2
 45 614 l 2
 45 626 56 636 68 636 c 0
 80 636 91 626 91 614 c 2
 91 45 l 1
 250 45 l 2
 262 45 273 35 273 23 c 0
 273 11 262 0 250 0 c 2
 68 0 l 2
 54 0 45 13 45 23 c 2
EndSplineSet
Substitution2: "'cv03' Character Variants 03 lookup 32 subtable" uni216C
EndChar

StartChar: M
Encoding: 77 77 49
Width: 500
GlyphClass: 2
Flags: W
TeX: 636 0
AnchorPoint: "Anchor-3" 250 -68 basechar 0
AnchorPoint: "Anchor-1" 250 750 basechar 0
LayerCount: 2
Fore
SplineSet
45 23 m 2
 45 614 l 2
 45 626 55 636 68 636 c 0
 77 636 84 632 88 625 c 2
 250 340 l 1
 411 625 l 2
 415 632 423 636 432 636 c 0
 444 636 455 626 455 614 c 2
 455 23 l 2
 455 11 444 0 432 0 c 0
 420 0 409 11 409 23 c 2
 409 529 l 1
 271 284 l 2
 266 276 258 273 250 273 c 0
 242 273 235 276 230 284 c 2
 91 528 l 1
 91 23 l 2
 91 11 80 0 68 0 c 0
 56 0 45 11 45 23 c 2
EndSplineSet
Substitution2: "'cv03' Character Variants 03 lookup 32 subtable" uni216F
EndChar

StartChar: N
Encoding: 78 78 50
Width: 409
GlyphClass: 2
Flags: W
TeX: 636 0
AnchorPoint: "Anchor-3" 205 -68 basechar 0
AnchorPoint: "Anchor-1" 205 750 basechar 0
LayerCount: 2
Fore
SplineSet
45 23 m 2
 45 614 l 2
 45 626 55 636 68 636 c 0
 78 636 85 631 89 623 c 2
 318 125 l 1
 318 614 l 2
 318 626 329 636 341 636 c 0
 353 636 364 626 364 614 c 2
 364 23 l 2
 364 11 354 0 341 0 c 0
 331 0 324 5 320 13 c 2
 91 511 l 1
 91 23 l 2
 91 11 80 0 68 0 c 0
 56 0 45 11 45 23 c 2
EndSplineSet
EndChar

StartChar: O
Encoding: 79 79 51
Width: 409
GlyphClass: 2
Flags: W
TeX: 636 0
AnchorPoint: "Anchor-1" 205 750 basechar 0
LayerCount: 2
Fore
SplineSet
45 159 m 2
 45 477 l 2
 45 564 118 636 205 636 c 0
 292 636 364 564 364 477 c 2
 364 159 l 2
 364 72 292 0 205 0 c 0
 118 0 45 72 45 159 c 2
91 159 m 2
 91 97 143 45 205 45 c 0
 267 45 318 97 318 159 c 2
 318 477 l 2
 318 539 267 591 205 591 c 0
 143 591 91 539 91 477 c 2
 91 159 l 2
EndSplineSet
EndChar

StartChar: P
Encoding: 80 80 52
Width: 409
GlyphClass: 2
Flags: W
TeX: 636 0
LayerCount: 2
Fore
SplineSet
45 23 m 2
 45 614 l 2
 45 624 54 636 68 636 c 2
 182 636 l 2
 284 636 364 558 364 455 c 0
 364 353 286 273 182 273 c 2
 91 273 l 1
 91 23 l 2
 91 11 80 0 68 0 c 0
 56 0 45 11 45 23 c 2
91 318 m 1
 182 318 l 2
 261 318 318 378 318 455 c 0
 318 533 259 591 182 591 c 2
 91 591 l 1
 91 318 l 1
EndSplineSet
EndChar

StartChar: Q
Encoding: 81 81 53
Width: 409
GlyphClass: 2
Flags: W
TeX: 636 0
LayerCount: 2
Fore
SplineSet
45 159 m 2
 45 477 l 2
 45 564 118 636 205 636 c 0
 292 636 364 564 364 477 c 2
 364 159 l 2
 364 132 357 106 344 83 c 1
 400 41 l 2
 406 36 409 30 409 23 c 0
 409 10 398 0 386 0 c 0
 381 0 377 2 373 5 c 2
 316 47 l 1
 287 18 249 0 205 0 c 0
 118 0 45 72 45 159 c 2
91 159 m 2
 91 97 143 45 205 45 c 0
 234 45 260 57 280 75 c 1
 191 141 l 2
 185 146 182 152 182 159 c 0
 182 172 193 182 205 182 c 0
 210 182 214 180 218 177 c 2
 307 110 l 1
 314 125 318 142 318 159 c 2
 318 477 l 2
 318 539 267 591 205 591 c 0
 143 591 91 539 91 477 c 2
 91 159 l 2
EndSplineSet
EndChar

StartChar: R
Encoding: 82 82 54
Width: 409
GlyphClass: 2
Flags: W
TeX: 636 0
AnchorPoint: "Anchor-3" 182 -68 basechar 0
AnchorPoint: "Anchor-1" 182 750 basechar 0
LayerCount: 2
Fore
SplineSet
45 23 m 2
 45 614 l 2
 45 624 54 636 68 636 c 2
 182 636 l 2
 284 636 364 558 364 455 c 0
 364 366 304 293 219 276 c 1
 360 34 l 2
 362 30 364 27 364 23 c 0
 364 12 354 0 341 0 c 0
 333 0 325 4 321 11 c 2
 169 273 l 1
 91 273 l 1
 91 23 l 2
 91 11 80 0 68 0 c 0
 56 0 45 11 45 23 c 2
91 318 m 1
 182 318 l 2
 261 318 318 378 318 455 c 0
 318 533 259 591 182 591 c 2
 91 591 l 1
 91 318 l 1
EndSplineSet
EndChar

StartChar: S
Encoding: 83 83 55
Width: 409
GlyphClass: 2
Flags: W
TeX: 636 0
AnchorPoint: "Anchor-3" 205 -68 basechar 0
AnchorPoint: "Anchor-1" 205 750 basechar 0
LayerCount: 2
Fore
SplineSet
45 68 m 0
 45 81 56 91 68 91 c 0
 73 91 78 89 82 86 c 0
 117 59 158 45 205 45 c 0
 275 45 318 77 318 128 c 0
 318 161 307 187 284 211 c 2
 86 416 l 2
 60 443 45 475 45 510 c 0
 45 595 126 636 205 636 c 0
 261 636 312 620 355 586 c 0
 361 581 364 575 364 568 c 0
 364 555 353 545 341 545 c 0
 336 545 331 547 327 550 c 0
 292 577 252 591 205 591 c 0
 137 591 91 558 91 510 c 0
 91 488 99 468 119 448 c 2
 317 243 l 2
 347 211 364 172 364 128 c 0
 364 42 285 0 205 0 c 0
 149 0 98 16 54 50 c 0
 48 55 45 61 45 68 c 0
EndSplineSet
EndChar

StartChar: T
Encoding: 84 84 56
Width: 409
GlyphClass: 2
Flags: W
TeX: 636 0
AnchorPoint: "Anchor-3" 205 -68 basechar 0
AnchorPoint: "Anchor-1" 205 750 basechar 0
LayerCount: 2
Fore
SplineSet
45 614 m 0
 45 626 56 636 68 636 c 2
 341 636 l 2
 353 636 364 626 364 614 c 0
 364 602 353 591 341 591 c 2
 227 591 l 1
 227 23 l 2
 227 11 217 0 205 0 c 0
 193 0 182 11 182 23 c 2
 182 591 l 1
 68 591 l 2
 56 591 45 602 45 614 c 0
EndSplineSet
EndChar

StartChar: U
Encoding: 85 85 57
Width: 409
GlyphClass: 2
Flags: W
TeX: 636 0
AnchorPoint: "Anchor-1" 205 750 basechar 0
LayerCount: 2
Fore
SplineSet
45 159 m 2
 45 614 l 2
 45 626 56 636 68 636 c 0
 80 636 91 626 91 614 c 2
 91 159 l 2
 91 97 143 45 205 45 c 0
 267 45 318 97 318 159 c 2
 318 614 l 2
 318 626 329 636 341 636 c 0
 353 636 364 626 364 614 c 2
 364 159 l 2
 364 72 292 0 205 0 c 0
 118 0 45 72 45 159 c 2
EndSplineSet
EndChar

StartChar: V
Encoding: 86 86 58
Width: 454
GlyphClass: 2
Flags: W
TeX: 636 0
LayerCount: 2
Fore
SplineSet
45 614 m 0
 45 625 54 636 68 636 c 0
 78 636 87 630 90 620 c 2
 227 109 l 1
 365 620 l 2
 368 630 376 636 386 636 c 0
 400 636 409 625 409 614 c 0
 409 612 408 610 408 608 c 2
 250 17 l 2
 247 7 238 0 228 0 c 2
 227 0 l 1
 227 0 l 1
 217 0 208 7 205 17 c 2
 46 608 l 2
 46 610 45 612 45 614 c 0
EndSplineSet
Substitution2: "'cv03' Character Variants 03 lookup 32 subtable" uni2164
EndChar

StartChar: W
Encoding: 87 87 59
Width: 636
GlyphClass: 2
Flags: W
TeX: 636 0
AnchorPoint: "Anchor-3" 318 -68 basechar 0
AnchorPoint: "Anchor-1" 318 750 basechar 0
LayerCount: 2
Fore
SplineSet
45 614 m 0
 45 626 54 636 68 636 c 0
 78 636 88 629 90 618 c 2
 188 111 l 1
 296 439 l 2
 299 449 308 455 318 455 c 1
 318 455 l 1
 319 455 l 2
 329 455 337 449 340 439 c 2
 449 111 l 1
 546 618 l 2
 548 629 558 636 568 636 c 0
 582 636 591 626 591 614 c 0
 591 613 590 611 590 610 c 2
 477 19 l 2
 475 8 465 0 455 0 c 0
 445 0 436 5 433 15 c 2
 318 361 l 1
 204 15 l 2
 201 5 191 0 181 0 c 0
 171 0 161 8 159 19 c 2
 46 610 l 2
 46 611 45 613 45 614 c 0
EndSplineSet
EndChar

StartChar: X
Encoding: 88 88 60
Width: 454
GlyphClass: 2
Flags: W
TeX: 636 0
LayerCount: 2
Fore
SplineSet
45 23 m 0
 45 27 46 31 48 34 c 2
 201 318 l 1
 48 603 l 2
 46 606 45 610 45 614 c 0
 45 625 54 636 68 636 c 0
 76 636 84 633 88 625 c 2
 227 366 l 1
 366 625 l 2
 370 633 378 636 386 636 c 0
 400 636 409 625 409 614 c 0
 409 610 408 606 406 603 c 2
 253 318 l 1
 406 34 l 2
 408 31 409 27 409 23 c 0
 409 12 400 0 386 0 c 0
 378 0 370 4 366 12 c 2
 227 270 l 1
 88 12 l 2
 84 4 76 0 68 0 c 0
 54 0 45 12 45 23 c 0
EndSplineSet
Substitution2: "'cv03' Character Variants 03 lookup 32 subtable" uni2169
EndChar

StartChar: Y
Encoding: 89 89 61
Width: 454
GlyphClass: 2
Flags: W
TeX: 636 0
AnchorPoint: "Anchor-1" 227 750 basechar 0
LayerCount: 2
Fore
SplineSet
45 614 m 0
 45 625 54 636 68 636 c 0
 76 636 84 633 88 625 c 2
 227 366 l 1
 366 625 l 2
 370 633 378 636 386 636 c 0
 400 636 409 625 409 614 c 0
 409 610 408 606 406 603 c 2
 250 312 l 1
 250 23 l 2
 250 11 239 0 227 0 c 0
 215 0 205 11 205 23 c 2
 205 312 l 1
 48 603 l 2
 46 606 45 610 45 614 c 0
EndSplineSet
EndChar

StartChar: Z
Encoding: 90 90 62
Width: 409
GlyphClass: 2
Flags: W
TeX: 636 0
AnchorPoint: "Anchor-1" 205 750 basechar 0
LayerCount: 2
Fore
SplineSet
45 23 m 0
 45 26 47 30 48 33 c 2
 305 591 l 1
 68 591 l 2
 56 591 45 602 45 614 c 0
 45 626 56 636 68 636 c 2
 341 636 l 2
 353 636 364 625 364 613 c 0
 364 610 362 607 361 604 c 2
 104 45 l 1
 341 45 l 2
 353 45 364 35 364 23 c 0
 364 11 353 0 341 0 c 2
 68 0 l 2
 56 0 45 11 45 23 c 0
EndSplineSet
EndChar

StartChar: bracketleft
Encoding: 91 91 63
Width: 181
GlyphClass: 2
Flags: W
TeX: 682 45
LayerCount: 2
Fore
SplineSet
45 -23 m 2
 45 659 l 2
 45 669 54 682 68 682 c 2
 114 682 l 2
 126 682 136 671 136 659 c 0
 136 647 126 636 114 636 c 2
 91 636 l 1
 91 0 l 1
 114 0 l 2
 126 0 136 -11 136 -23 c 0
 136 -35 126 -45 114 -45 c 2
 68 -45 l 2
 58 -45 45 -37 45 -23 c 2
EndSplineSet
EndChar

StartChar: backslash
Encoding: 92 92 64
Width: 500
GlyphClass: 2
Flags: W
TeX: 636 0
LayerCount: 2
Fore
SplineSet
45 614 m 0
 45 625 55 636 68 636 c 0
 76 636 84 632 88 625 c 2
 451 35 l 2
 453 31 455 27 455 23 c 0
 455 12 445 0 432 0 c 0
 424 0 416 4 412 11 c 2
 49 602 l 2
 47 606 45 610 45 614 c 0
EndSplineSet
EndChar

StartChar: bracketright
Encoding: 93 93 65
Width: 181
GlyphClass: 2
Flags: W
TeX: 681 46
LayerCount: 2
Fore
SplineSet
137 659 m 2
 137 -23 l 2
 137 -33 128 -46 114 -46 c 2
 68 -46 l 2
 56 -46 46 -35 46 -23 c 0
 46 -11 56 0 68 0 c 2
 91 0 l 1
 91 636 l 1
 68 636 l 2
 56 636 46 647 46 659 c 0
 46 671 56 681 68 681 c 2
 114 681 l 2
 124 681 137 673 137 659 c 2
EndSplineSet
EndChar

StartChar: asciicircum
Encoding: 94 94 66
Width: 227
GlyphClass: 2
Flags: W
TeX: 636 -545
LayerCount: 2
Fore
SplineSet
46 568 m 0
 46 574 48 579 53 584 c 2
 98 630 l 2
 103 635 109 636 114 636 c 0
 120 636 126 634 130 630 c 2
 175 584 l 2
 180 579 182 574 182 568 c 0
 182 556 171 545 159 545 c 0
 153 545 149 547 144 552 c 2
 114 581 l 1
 84 552 l 2
 79 547 75 545 69 545 c 0
 57 545 46 556 46 568 c 0
EndSplineSet
EndChar

StartChar: underscore
Encoding: 95 95 67
Width: 272
GlyphClass: 2
Flags: W
TeX: -45 91
LayerCount: 2
Fore
SplineSet
-23 -68 m 0
 -23 -56 -12 -45 0 -45 c 2
 272 -45 l 2
 284 -45 295 -56 295 -68 c 0
 295 -80 284 -91 272 -91 c 2
 0 -91 l 2
 -12 -91 -23 -80 -23 -68 c 0
EndSplineSet
EndChar

StartChar: grave
Encoding: 96 96 68
Width: 159
GlyphClass: 4
Flags: W
TeX: 636 -545
AnchorPoint: "Anchor-1" 91 614 mark 0
LayerCount: 2
Fore
SplineSet
45 614 m 0
 45 625 54 636 68 636 c 0
 76 636 84 632 88 624 c 2
 111 578 l 2
 113 575 113 571 113 568 c 0
 113 557 105 545 91 545 c 0
 83 545 74 550 70 558 c 2
 48 604 l 2
 46 607 45 611 45 614 c 0
EndSplineSet
EndChar

StartChar: a
Encoding: 97 97 69
Width: 409
GlyphClass: 2
Flags: W
TeX: 455 0
AnchorPoint: "Anchor-3" 182 -68 basechar 0
AnchorPoint: "Anchor-1" 205 614 basechar 0
AnchorPoint: "Anchor-0" 341 0 basechar 0
LayerCount: 2
Fore
SplineSet
45 136 m 2
 45 341 l 2
 45 404 96 455 159 455 c 2
 295 455 l 2
 309 455 318 442 318 432 c 2
 318 68 l 2
 318 56 329 45 341 45 c 0
 353 45 364 35 364 23 c 0
 364 11 353 0 341 0 c 0
 313 0 289 16 279 40 c 1
 254 15 220 0 181 0 c 0
 106 0 45 61 45 136 c 2
91 136 m 2
 91 86 132 45 182 45 c 0
 232 45 273 88 273 136 c 2
 273 409 l 1
 159 409 l 2
 121 409 91 379 91 341 c 2
 91 136 l 2
EndSplineSet
Substitution2: "Single Substitution lookup 38 subtable" ordfeminine
EndChar

StartChar: b
Encoding: 98 98 70
Width: 363
GlyphClass: 2
Flags: W
TeX: 636 0
AnchorPoint: "Anchor-3" 182 -68 basechar 0
AnchorPoint: "Anchor-1" 68 750 basechar 0
LayerCount: 2
Fore
SplineSet
45 23 m 2
 45 614 l 2
 45 626 56 636 68 636 c 0
 80 636 91 626 91 614 c 2
 91 455 l 1
 205 455 l 2
 269 455 318 404 318 341 c 2
 318 114 l 2
 318 49 270 0 205 0 c 2
 68 0 l 2
 54 0 45 13 45 23 c 2
91 45 m 1
 205 45 l 2
 246 45 273 73 273 114 c 2
 273 341 l 2
 273 379 243 409 205 409 c 2
 91 409 l 1
 91 45 l 1
EndSplineSet
EndChar

StartChar: c
Encoding: 99 99 71
Width: 318
GlyphClass: 2
Flags: W
TeX: 455 0
AnchorPoint: "Anchor-1" 182 614 basechar 0
LayerCount: 2
Fore
SplineSet
45 114 m 2
 45 341 l 2
 45 404 95 455 159 455 c 2
 250 455 l 2
 262 455 273 444 273 432 c 0
 273 420 262 409 250 409 c 2
 159 409 l 2
 121 409 91 379 91 341 c 2
 91 114 l 2
 91 75 121 45 159 45 c 2
 250 45 l 2
 262 45 273 35 273 23 c 0
 273 11 262 0 250 0 c 2
 159 0 l 2
 96 0 45 49 45 114 c 2
EndSplineSet
Substitution2: "'cv03' Character Variants 03 lookup 32 subtable" uni216D
EndChar

StartChar: d
Encoding: 100 100 72
Width: 363
GlyphClass: 2
Flags: W
TeX: 636 0
AnchorPoint: "Anchor-3" 182 -68 basechar 0
AnchorPoint: "Anchor-2" 386 614 basechar 0
AnchorPoint: "Anchor-1" 295 750 basechar 0
LayerCount: 2
Fore
SplineSet
45 114 m 2
 45 341 l 2
 45 404 95 455 159 455 c 2
 273 455 l 1
 273 614 l 2
 273 626 283 636 295 636 c 0
 307 636 318 626 318 614 c 2
 318 23 l 2
 318 13 309 0 295 0 c 2
 159 0 l 2
 94 0 45 49 45 114 c 2
91 114 m 2
 91 73 118 45 159 45 c 2
 273 45 l 1
 273 409 l 1
 159 409 l 2
 121 409 91 379 91 341 c 2
 91 114 l 2
EndSplineSet
Substitution2: "'cv03' Character Variants 03 lookup 32 subtable" uni216E
EndChar

StartChar: e
Encoding: 101 101 73
Width: 363
GlyphClass: 2
Flags: W
TeX: 455 0
AnchorPoint: "Anchor-3" 182 -68 basechar 0
AnchorPoint: "Anchor-1" 182 614 basechar 0
AnchorPoint: "Anchor-0" 295 0 basechar 0
LayerCount: 2
Fore
SplineSet
45 114 m 2
 45 318 l 2
 45 393 107 455 182 455 c 0
 257 455 318 393 318 318 c 2
 318 227 l 2
 318 213 305 205 295 205 c 2
 91 205 l 1
 91 114 l 2
 91 76 121 45 159 45 c 2
 295 45 l 2
 307 45 318 35 318 23 c 0
 318 11 307 0 295 0 c 2
 159 0 l 2
 96 0 45 51 45 114 c 2
91 250 m 1
 273 250 l 1
 273 318 l 2
 273 368 232 409 182 409 c 0
 132 409 91 368 91 318 c 2
 91 250 l 1
EndSplineSet
EndChar

StartChar: f
Encoding: 102 102 74
Width: 272
GlyphClass: 2
Flags: W
TeX: 636 0
LayerCount: 2
Fore
SplineSet
45 432 m 0
 45 444 56 455 68 455 c 2
 91 455 l 1
 91 545 l 2
 91 595 132 636 182 636 c 2
 205 636 l 2
 217 636 227 626 227 614 c 0
 227 602 217 591 205 591 c 2
 182 591 l 2
 157 591 136 570 136 545 c 2
 136 455 l 1
 205 455 l 2
 217 455 227 444 227 432 c 0
 227 420 217 409 205 409 c 2
 136 409 l 1
 136 23 l 2
 136 11 126 0 114 0 c 0
 102 0 91 11 91 23 c 2
 91 409 l 1
 68 409 l 2
 56 409 45 420 45 432 c 0
EndSplineSet
EndChar

StartChar: g
Encoding: 103 103 75
Width: 363
GlyphClass: 2
Flags: W
TeX: 455 182
AnchorPoint: "Anchor-1" 182 614 basechar 0
LayerCount: 2
Fore
SplineSet
45 114 m 2
 45 341 l 2
 45 406 94 455 159 455 c 2
 295 455 l 2
 309 455 318 442 318 432 c 2
 318 -69 l 2
 318 -133 268 -182 205 -182 c 2
 68 -182 l 2
 56 -182 45 -171 45 -159 c 0
 45 -147 56 -136 68 -136 c 2
 205 -136 l 2
 243 -136 273 -107 273 -69 c 2
 273 0 l 1
 159 0 l 2
 95 0 45 51 45 114 c 2
91 114 m 2
 91 76 121 45 159 45 c 2
 273 45 l 1
 273 409 l 1
 159 409 l 2
 118 409 91 382 91 341 c 2
 91 114 l 2
EndSplineSet
EndChar

StartChar: h
Encoding: 104 104 76
Width: 363
GlyphClass: 2
Flags: W
TeX: 636 0
AnchorPoint: "Anchor-3" 182 -68 basechar 0
AnchorPoint: "Anchor-1" 68 750 basechar 0
LayerCount: 2
Fore
SplineSet
45 23 m 2
 45 614 l 2
 45 626 56 636 68 636 c 0
 80 636 91 626 91 614 c 2
 91 455 l 1
 205 455 l 2
 268 455 318 404 318 341 c 2
 318 23 l 2
 318 11 307 0 295 0 c 0
 283 0 273 11 273 23 c 2
 273 341 l 2
 273 380 244 409 205 409 c 2
 91 409 l 1
 91 23 l 2
 91 11 80 0 68 0 c 0
 55 0 45 10 45 23 c 2
EndSplineSet
EndChar

StartChar: i
Encoding: 105 105 77
Width: 136
GlyphClass: 2
Flags: W
TeX: 637 0
AnchorPoint: "Anchor-1" 68 614 basechar 0
LayerCount: 2
Fore
SplineSet
45 23 m 2
 45 432 l 2
 45 444 56 455 68 455 c 0
 80 455 91 444 91 432 c 2
 91 23 l 2
 91 11 80 0 68 0 c 0
 56 0 45 11 45 23 c 2
45 614 m 0
 45 626 56 637 68 637 c 0
 80 637 91 626 91 614 c 0
 91 601 81 591 68 591 c 0
 55 591 45 601 45 614 c 0
EndSplineSet
Substitution2: "Single Substitution lookup 46 subtable" dotlessi
Substitution2: "'cv03' Character Variants 03 lookup 32 subtable" uni2160
Substitution2: "'dtls' Dotless Forms lookup 30 subtable" dotlessi
EndChar

StartChar: j
Encoding: 106 106 78
Width: 227
GlyphClass: 2
Flags: W
TeX: 637 182
AnchorPoint: "Anchor-1" 159 614 basechar 0
LayerCount: 2
Fore
SplineSet
45 -159 m 0
 45 -147 56 -136 68 -136 c 2
 91 -136 l 2
 116 -136 136 -116 136 -91 c 2
 136 432 l 2
 136 444 147 455 159 455 c 0
 171 455 182 444 182 432 c 2
 182 -91 l 2
 182 -141 141 -182 91 -182 c 2
 68 -182 l 2
 56 -182 45 -171 45 -159 c 0
136 614 m 0
 136 626 147 637 159 637 c 0
 171 637 182 626 182 614 c 0
 182 601 172 591 159 591 c 0
 146 591 136 601 136 614 c 0
EndSplineSet
Substitution2: "Single Substitution lookup 46 subtable" uni0237
Substitution2: "'dtls' Dotless Forms lookup 30 subtable" uni0237
EndChar

StartChar: k
Encoding: 107 107 79
Width: 363
GlyphClass: 2
Flags: W
TeX: 636 0
AnchorPoint: "Anchor-3" 182 -68 basechar 0
AnchorPoint: "Anchor-1" 68 750 basechar 0
LayerCount: 2
Fore
SplineSet
45 23 m 2
 45 614 l 2
 45 626 56 636 68 636 c 0
 80 636 91 626 91 614 c 2
 91 260 l 1
 280 448 l 2
 285 453 289 455 295 455 c 0
 307 455 318 444 318 432 c 0
 318 426 316 421 311 416 c 2
 165 270 l 1
 315 35 l 2
 317 31 318 27 318 23 c 0
 318 12 308 0 295 0 c 0
 287 0 280 3 276 10 c 2
 132 237 l 1
 91 195 l 1
 91 23 l 2
 91 11 80 0 68 0 c 0
 56 0 45 11 45 23 c 2
EndSplineSet
EndChar

StartChar: l
Encoding: 108 108 80
Width: 227
GlyphClass: 2
Flags: W
TeX: 636 0
AnchorPoint: "Anchor-4" 159 341 basechar 0
AnchorPoint: "Anchor-3" 136 -68 basechar 0
AnchorPoint: "Anchor-2" 159 614 basechar 0
AnchorPoint: "Anchor-1" 68 750 basechar 0
LayerCount: 2
Fore
SplineSet
45 91 m 2
 45 614 l 2
 45 626 56 636 68 636 c 0
 80 636 91 626 91 614 c 2
 91 91 l 2
 91 66 111 45 136 45 c 2
 159 45 l 2
 171 45 182 35 182 23 c 0
 182 11 171 0 159 0 c 2
 136 0 l 2
 86 0 45 41 45 91 c 2
EndSplineSet
Substitution2: "'cv03' Character Variants 03 lookup 32 subtable" uni216C
EndChar

StartChar: m
Encoding: 109 109 81
Width: 500
GlyphClass: 2
Flags: W
TeX: 455 0
AnchorPoint: "Anchor-3" 250 -68 basechar 0
AnchorPoint: "Anchor-1" 250 614 basechar 0
LayerCount: 2
Fore
SplineSet
45 23 m 2
 45 432 l 2
 45 446 58 455 68 455 c 2
 341 455 l 2
 405 455 455 404 455 341 c 2
 455 23 l 2
 455 11 444 0 432 0 c 0
 420 0 409 11 409 23 c 2
 409 341 l 2
 409 379 379 409 341 409 c 2
 273 409 l 1
 273 23 l 2
 273 11 262 0 250 0 c 0
 238 0 227 11 227 23 c 2
 227 409 l 1
 91 409 l 1
 91 23 l 2
 91 11 80 0 68 0 c 0
 56 0 45 11 45 23 c 2
EndSplineSet
Substitution2: "'cv03' Character Variants 03 lookup 32 subtable" uni216F
EndChar

StartChar: n
Encoding: 110 110 82
Width: 363
GlyphClass: 2
Flags: W
TeX: 455 0
AnchorPoint: "Anchor-3" 182 -68 basechar 0
AnchorPoint: "Anchor-1" 182 614 basechar 0
LayerCount: 2
Fore
SplineSet
45 23 m 2
 45 432 l 2
 45 446 58 455 68 455 c 2
 205 455 l 2
 268 455 318 404 318 341 c 2
 318 23 l 2
 318 11 307 0 295 0 c 0
 283 0 273 11 273 23 c 2
 273 341 l 2
 273 380 244 409 205 409 c 2
 91 409 l 1
 91 23 l 2
 91 11 80 0 68 0 c 0
 56 0 45 11 45 23 c 2
EndSplineSet
EndChar

StartChar: o
Encoding: 111 111 83
Width: 363
GlyphClass: 2
Flags: W
TeX: 455 0
AnchorPoint: "Anchor-5" 182 227 basechar 0
AnchorPoint: "Anchor-1" 182 614 basechar 0
LayerCount: 2
Fore
SplineSet
45 136 m 2
 45 318 l 2
 45 393 107 455 182 455 c 0
 257 455 318 393 318 318 c 2
 318 136 l 2
 318 61 257 0 182 0 c 0
 107 0 45 62 45 136 c 2
91 136 m 2
 91 88 133 45 182 45 c 0
 231 45 273 87 273 136 c 2
 273 318 l 2
 273 367 231 409 182 409 c 0
 133 409 91 367 91 318 c 2
 91 136 l 2
EndSplineSet
Substitution2: "Single Substitution lookup 38 subtable" ordmasculine
EndChar

StartChar: p
Encoding: 112 112 84
Width: 363
GlyphClass: 2
Flags: W
TeX: 455 181
LayerCount: 2
Fore
SplineSet
319 341 m 2
 319 114 l 2
 319 51 269 0 205 0 c 2
 91 0 l 1
 91 -159 l 2
 91 -171 81 -181 69 -181 c 0
 57 -181 46 -171 46 -159 c 2
 46 432 l 2
 46 442 55 455 69 455 c 2
 205 455 l 2
 270 455 319 406 319 341 c 2
273 341 m 2
 273 382 246 410 205 410 c 2
 91 410 l 1
 91 46 l 1
 205 46 l 2
 243 46 273 76 273 114 c 2
 273 341 l 2
EndSplineSet
EndChar

StartChar: q
Encoding: 113 113 85
Width: 363
GlyphClass: 2
Flags: W
TeX: 455 181
LayerCount: 2
Fore
SplineSet
319 432 m 2
 319 -159 l 2
 319 -171 308 -181 296 -181 c 0
 284 -181 273 -171 273 -159 c 2
 273 0 l 1
 159 0 l 2
 95 0 46 51 46 114 c 2
 46 341 l 2
 46 406 94 455 159 455 c 2
 296 455 l 2
 310 455 319 442 319 432 c 2
273 410 m 1
 159 410 l 2
 118 410 91 382 91 341 c 2
 91 114 l 2
 91 76 121 46 159 46 c 2
 273 46 l 1
 273 410 l 1
EndSplineSet
EndChar

StartChar: r
Encoding: 114 114 86
Width: 318
GlyphClass: 2
Flags: W
TeX: 455 0
AnchorPoint: "Anchor-3" 68 -68 basechar 0
AnchorPoint: "Anchor-1" 159 614 basechar 0
LayerCount: 2
Fore
SplineSet
45 23 m 2
 45 432 l 2
 45 446 58 455 68 455 c 2
 182 455 l 2
 233 455 273 414 273 364 c 0
 273 352 262 341 250 341 c 0
 238 341 227 352 227 364 c 0
 227 389 208 409 182 409 c 2
 91 409 l 1
 91 23 l 2
 91 11 80 0 68 0 c 0
 56 0 45 11 45 23 c 2
EndSplineSet
EndChar

StartChar: s
Encoding: 115 115 87
Width: 363
GlyphClass: 2
Flags: W
TeX: 455 0
AnchorPoint: "Anchor-3" 182 -68 basechar 0
AnchorPoint: "Anchor-1" 182 614 basechar 0
LayerCount: 2
Fore
SplineSet
45 57 m 0
 45 70 56 80 68 80 c 0
 73 80 78 78 82 75 c 0
 108 55 140 45 182 45 c 0
 233 45 273 72 273 102 c 0
 273 127 266 141 255 149 c 2
 81 277 l 2
 57 295 45 322 45 352 c 0
 45 428 116 455 182 455 c 0
 230 455 274 442 309 416 c 0
 315 411 318 405 318 398 c 0
 318 385 307 375 295 375 c 0
 290 375 286 377 282 380 c 0
 256 400 223 409 182 409 c 0
 122 409 91 389 91 352 c 0
 91 332 96 323 108 314 c 2
 282 185 l 2
 307 166 318 136 318 102 c 0
 318 30 241 0 182 0 c 0
 133 0 90 13 55 39 c 0
 49 44 45 50 45 57 c 0
EndSplineSet
EndChar

StartChar: t
Encoding: 116 116 88
Width: 272
GlyphClass: 2
Flags: W
TeX: 636 0
AnchorPoint: "Anchor-3" 114 -68 basechar 0
AnchorPoint: "Anchor-2" 205 614 basechar 0
AnchorPoint: "Anchor-1" 114 750 basechar 0
LayerCount: 2
Fore
SplineSet
45 432 m 0
 45 444 56 455 68 455 c 2
 91 455 l 1
 91 614 l 2
 91 626 102 636 114 636 c 0
 126 636 136 626 136 614 c 2
 136 455 l 1
 205 455 l 2
 217 455 227 444 227 432 c 0
 227 420 217 409 205 409 c 2
 136 409 l 1
 136 23 l 2
 136 11 126 0 114 0 c 0
 102 0 91 11 91 23 c 2
 91 409 l 1
 68 409 l 2
 56 409 45 420 45 432 c 0
EndSplineSet
EndChar

StartChar: u
Encoding: 117 117 89
Width: 363
GlyphClass: 2
Flags: W
TeX: 455 0
AnchorPoint: "Anchor-1" 182 614 basechar 0
LayerCount: 2
Fore
SplineSet
319 432 m 2
 319 23 l 2
 319 9 306 0 296 0 c 2
 159 0 l 2
 96 0 46 51 46 114 c 2
 46 432 l 2
 46 444 57 455 69 455 c 0
 81 455 91 444 91 432 c 2
 91 114 l 2
 91 75 120 46 159 46 c 2
 273 46 l 1
 273 432 l 2
 273 444 284 455 296 455 c 0
 308 455 319 444 319 432 c 2
EndSplineSet
EndChar

StartChar: v
Encoding: 118 118 90
Width: 363
GlyphClass: 2
Flags: W
TeX: 455 0
LayerCount: 2
Fore
SplineSet
45 432 m 0
 45 443 54 455 68 455 c 0
 78 455 87 448 90 438 c 2
 182 106 l 1
 274 438 l 2
 277 448 285 455 295 455 c 0
 309 455 318 443 318 432 c 0
 318 430 317 428 317 426 c 2
 204 17 l 2
 201 7 192 0 182 0 c 1
 182 0 l 1
 181 0 l 2
 171 0 163 7 160 17 c 2
 46 426 l 2
 46 428 45 430 45 432 c 0
EndSplineSet
Substitution2: "'cv03' Character Variants 03 lookup 32 subtable" uni2164
EndChar

StartChar: w
Encoding: 119 119 91
Width: 545
GlyphClass: 2
Flags: W
TeX: 455 0
AnchorPoint: "Anchor-1" 273 614 basechar 0
LayerCount: 2
Fore
SplineSet
45 432 m 0
 45 443 54 455 68 455 c 0
 78 455 88 447 90 437 c 2
 164 104 l 1
 251 349 l 2
 254 358 262 364 272 364 c 2
 273 364 l 1
 273 364 l 1
 283 364 292 358 295 349 c 2
 381 104 l 1
 455 437 l 2
 457 447 467 455 477 455 c 0
 491 455 500 443 500 432 c 2
 500 427 l 1
 409 18 l 2
 407 8 397 0 387 0 c 0
 377 0 368 5 365 15 c 2
 273 274 l 1
 181 15 l 2
 178 5 169 0 159 0 c 0
 149 0 138 8 136 18 c 2
 46 427 l 2
 46 429 45 431 45 432 c 0
EndSplineSet
EndChar

StartChar: x
Encoding: 120 120 92
Width: 363
GlyphClass: 2
Flags: W
TeX: 455 0
AnchorPoint: "Anchor-1" 182 614 basechar 0
LayerCount: 2
Fore
SplineSet
45 23 m 0
 45 27 46 30 48 34 c 2
 156 227 l 1
 48 421 l 2
 46 425 45 428 45 432 c 0
 45 443 54 455 68 455 c 0
 76 455 84 450 88 443 c 2
 182 274 l 1
 275 443 l 2
 279 450 287 455 295 455 c 0
 309 455 318 443 318 432 c 0
 318 428 317 425 315 421 c 2
 208 227 l 1
 315 34 l 2
 317 30 318 27 318 23 c 0
 318 12 309 0 295 0 c 0
 287 0 279 5 275 12 c 2
 182 180 l 1
 88 12 l 2
 84 5 76 0 68 0 c 0
 54 0 45 12 45 23 c 0
EndSplineSet
Substitution2: "'cv03' Character Variants 03 lookup 32 subtable" uni2169
EndChar

StartChar: y
Encoding: 121 121 93
Width: 363
GlyphClass: 2
Flags: W
TeX: 455 182
AnchorPoint: "Anchor-3" 295 -68 basechar 0
AnchorPoint: "Anchor-1" 182 614 basechar 0
LayerCount: 2
Fore
SplineSet
45 -159 m 0
 45 -147 56 -136 68 -136 c 0
 107 -136 119 -120 129 -85 c 2
 159 22 l 1
 46 426 l 2
 46 428 45 430 45 432 c 0
 45 443 54 455 68 455 c 0
 78 455 87 448 90 438 c 2
 182 107 l 1
 274 438 l 2
 277 448 285 455 295 455 c 0
 309 455 318 443 318 432 c 0
 318 430 317 428 317 426 c 2
 173 -97 l 2
 161 -142 130 -182 68 -182 c 0
 56 -182 45 -171 45 -159 c 0
EndSplineSet
EndChar

StartChar: z
Encoding: 122 122 94
Width: 363
GlyphClass: 2
Flags: W
TeX: 455 0
AnchorPoint: "Anchor-1" 182 614 basechar 0
LayerCount: 2
Fore
SplineSet
42 16 m 0
 42 25 48 34 48 34 c 1
 257 409 l 1
 68 409 l 2
 56 409 45 420 45 432 c 0
 45 444 56 455 68 455 c 2
 295 455 l 1
 298 455 l 2
 304 455 321 454 321 439 c 0
 321 434 319 428 315 421 c 2
 107 45 l 1
 295 45 l 2
 307 45 318 35 318 23 c 0
 318 11 307 0 295 0 c 2
 68 0 l 2
 48 0 42 8 42 16 c 0
EndSplineSet
EndChar

StartChar: braceleft
Encoding: 123 123 95
Width: 227
GlyphClass: 2
Flags: W
TeX: 682 45
LayerCount: 2
Fore
SplineSet
45 318 m 0
 45 330 56 341 68 341 c 0
 77 341 91 355 91 364 c 2
 91 614 l 2
 91 650 124 682 159 682 c 0
 171 682 182 671 182 659 c 0
 182 647 171 636 159 636 c 0
 150 636 136 623 136 614 c 2
 136 364 l 2
 136 347 129 330 118 318 c 1
 129 306 136 290 136 273 c 2
 136 23 l 2
 136 14 150 0 159 0 c 0
 171 0 182 -11 182 -23 c 0
 182 -35 171 -45 159 -45 c 0
 123 -45 91 -12 91 23 c 2
 91 273 l 2
 91 282 77 295 68 295 c 0
 56 295 45 306 45 318 c 0
EndSplineSet
EndChar

StartChar: bar
Encoding: 124 124 96
Width: 136
GlyphClass: 2
Flags: W
TeX: 682 45
LayerCount: 2
Fore
SplineSet
45 -23 m 2
 45 659 l 2
 45 671 56 682 68 682 c 0
 80 682 91 671 91 659 c 2
 91 -23 l 2
 91 -35 80 -45 68 -45 c 0
 56 -45 45 -35 45 -23 c 2
EndSplineSet
EndChar

StartChar: braceright
Encoding: 125 125 97
Width: 227
GlyphClass: 2
Flags: W
TeX: 681 46
LayerCount: 2
Fore
SplineSet
182 318 m 0
 182 306 171 295 159 295 c 0
 150 295 136 281 136 272 c 2
 136 22 l 2
 136 -14 103 -46 68 -46 c 0
 56 -46 45 -35 45 -23 c 0
 45 -11 56 0 68 0 c 0
 77 0 91 13 91 22 c 2
 91 272 l 2
 91 289 98 306 109 318 c 1
 98 330 91 346 91 363 c 2
 91 613 l 2
 91 622 77 636 68 636 c 0
 56 636 45 647 45 659 c 0
 45 671 56 681 68 681 c 0
 104 681 136 648 136 613 c 2
 136 363 l 2
 136 354 150 341 159 341 c 0
 171 341 182 330 182 318 c 0
EndSplineSet
EndChar

StartChar: asciitilde
Encoding: 126 126 98
Width: 409
GlyphClass: 2
Flags: W
TeX: 273 -182
LayerCount: 2
Fore
SplineSet
45 227 m 0
 45 234 49 240 55 245 c 0
 79 263 106 273 136 273 c 0
 166 273 194 263 218 245 c 0
 233 233 252 227 273 227 c 0
 294 227 311 233 327 245 c 0
 331 248 336 250 341 250 c 0
 353 250 364 240 364 227 c 0
 364 220 361 214 355 209 c 0
 331 191 303 182 273 182 c 0
 243 182 215 191 191 209 c 0
 176 221 157 227 136 227 c 0
 115 227 98 221 82 209 c 0
 78 206 73 205 68 205 c 0
 56 205 45 214 45 227 c 0
EndSplineSet
EndChar

StartChar: exclamdown
Encoding: 161 161 100
Width: 136
GlyphClass: 2
Flags: W
TeX: 636 0
LayerCount: 2
Fore
SplineSet
91 613 m 0
 91 600 81 591 68 591 c 0
 55 591 45 600 45 613 c 0
 45 626 55 636 68 636 c 0
 81 636 91 626 91 613 c 0
91 477 m 2
 91 22 l 2
 91 10 80 0 68 0 c 0
 56 0 45 10 45 22 c 2
 45 477 l 2
 45 489 56 500 68 500 c 0
 80 500 91 489 91 477 c 2
EndSplineSet
EndChar

StartChar: cent
Encoding: 162 162 101
Width: 363
GlyphClass: 2
Flags: W
TeX: 545 91
LayerCount: 2
Fore
SplineSet
45 114 m 2
 45 341 l 2
 45 404 95 455 159 455 c 2
 182 455 l 1
 182 523 l 2
 182 535 193 545 205 545 c 0
 217 545 227 535 227 523 c 2
 227 455 l 1
 295 455 l 2
 307 455 318 444 318 432 c 0
 318 420 307 409 295 409 c 2
 227 409 l 1
 227 45 l 1
 295 45 l 2
 307 45 318 35 318 23 c 0
 318 11 307 0 295 0 c 2
 227 0 l 1
 227 -68 l 2
 227 -80 217 -91 205 -91 c 0
 193 -91 182 -80 182 -68 c 2
 182 0 l 1
 159 0 l 2
 96 0 45 49 45 114 c 2
91 114 m 2
 91 75 121 45 159 45 c 2
 182 45 l 1
 182 409 l 1
 159 409 l 2
 121 409 91 379 91 341 c 2
 91 114 l 2
EndSplineSet
EndChar

StartChar: sterling
Encoding: 163 163 102
Width: 409
GlyphClass: 2
Flags: W
TeX: 636 0
LayerCount: 2
Fore
SplineSet
45 23 m 0
 45 35 56 45 68 45 c 2
 71 45 l 2
 79 45 91 56 91 68 c 2
 91 318 l 1
 68 318 l 2
 56 318 45 329 45 341 c 0
 45 353 56 364 68 364 c 2
 91 364 l 1
 91 523 l 2
 91 585 143 636 205 636 c 0
 267 636 318 585 318 523 c 0
 318 511 307 500 295 500 c 0
 283 500 273 511 273 523 c 0
 273 559 241 591 205 591 c 0
 169 591 136 559 136 523 c 2
 136 364 l 1
 205 364 l 2
 217 364 227 353 227 341 c 0
 227 329 217 318 205 318 c 2
 136 318 l 1
 136 68 l 2
 136 60 135 52 132 45 c 1
 273 45 l 2
 298 45 318 66 318 91 c 0
 318 103 329 114 341 114 c 0
 353 114 364 103 364 91 c 0
 364 41 323 0 273 0 c 2
 68 0 l 2
 56 0 45 11 45 23 c 0
EndSplineSet
EndChar

StartChar: currency
Encoding: 164 164 103
Width: 636
GlyphClass: 2
Flags: W
TeX: 591 -45
LayerCount: 2
Fore
SplineSet
45 68 m 0
 45 74 47 79 52 84 c 2
 110 142 l 1
 73 185 45 249 45 318 c 0
 45 389 72 449 110 494 c 1
 52 552 l 2
 47 557 45 562 45 568 c 0
 45 580 56 590 68 590 c 0
 74 590 79 589 84 584 c 2
 142 526 l 1
 185 563 250 591 318 591 c 0
 389 591 450 565 495 526 c 1
 552 584 l 2
 557 589 562 590 568 590 c 0
 580 590 591 580 591 568 c 0
 591 562 589 557 584 552 c 2
 526 494 l 1
 563 451 591 386 591 318 c 0
 591 247 565 187 527 142 c 1
 584 85 l 2
 589 80 591 75 591 69 c 0
 591 57 580 46 568 46 c 0
 562 46 557 48 552 53 c 2
 495 110 l 1
 452 73 386 45 318 45 c 0
 247 45 187 72 142 110 c 1
 84 52 l 2
 79 47 74 45 68 45 c 0
 56 45 45 56 45 68 c 0
91 318 m 0
 91 276 101 239 121 204 c 0
 157 143 227 90 318 90 c 0
 359 90 397 101 432 121 c 0
 493 157 545 226 545 318 c 0
 545 360 535 397 515 432 c 0
 479 493 409 545 318 545 c 0
 277 545 239 535 204 515 c 0
 143 479 91 410 91 318 c 0
EndSplineSet
EndChar

StartChar: yen
Encoding: 165 165 104
Width: 454
GlyphClass: 2
Flags: W
TeX: 636 0
LayerCount: 2
Fore
SplineSet
45 614 m 0
 45 625 54 636 68 636 c 0
 76 636 84 633 88 625 c 2
 227 366 l 1
 366 625 l 2
 370 633 378 636 386 636 c 0
 400 636 409 625 409 614 c 0
 409 610 408 606 406 603 c 2
 278 364 l 1
 364 364 l 2
 376 364 386 353 386 341 c 0
 386 329 376 318 364 318 c 2
 253 318 l 1
 250 312 l 1
 250 273 l 1
 364 273 l 2
 376 273 386 262 386 250 c 0
 386 238 376 227 364 227 c 2
 250 227 l 1
 250 23 l 2
 250 11 239 0 227 0 c 0
 215 0 205 11 205 23 c 2
 205 227 l 1
 91 227 l 2
 79 227 68 238 68 250 c 0
 68 262 79 273 91 273 c 2
 205 273 l 1
 205 312 l 1
 201 318 l 1
 91 318 l 2
 79 318 68 329 68 341 c 0
 68 353 79 364 91 364 c 2
 177 364 l 1
 48 603 l 2
 46 606 45 610 45 614 c 0
EndSplineSet
EndChar

StartChar: brokenbar
Encoding: 166 166 105
Width: 136
GlyphClass: 2
Flags: W
TeX: 682 45
LayerCount: 2
Fore
SplineSet
45 -23 m 2
 45 250 l 2
 45 262 56 273 68 273 c 0
 80 273 91 262 91 250 c 2
 91 -23 l 2
 91 -35 80 -45 68 -45 c 0
 56 -45 45 -35 45 -23 c 2
45 386 m 2
 45 659 l 2
 45 671 56 682 68 682 c 0
 80 682 91 671 91 659 c 2
 91 386 l 2
 91 374 80 364 68 364 c 0
 56 364 45 374 45 386 c 2
EndSplineSet
EndChar

StartChar: section
Encoding: 167 167 106
Width: 363
GlyphClass: 2
Flags: W
TeX: 682 45
LayerCount: 2
Fore
SplineSet
45 363 m 0
 45 417 67 463 96 492 c 1
 76 512 68 539 68 568 c 0
 68 630 119 682 182 682 c 0
 229 682 267 662 292 625 c 0
 294 621 295 617 295 613 c 0
 295 601 286 590 273 590 c 0
 266 590 259 595 254 601 c 0
 238 625 216 636 182 636 c 0
 144 636 114 606 114 568 c 0
 114 546 120 531 133 520 c 0
 145 509 174 485 220 446 c 0
 270 405 318 363 318 273 c 0
 318 219 296 174 267 145 c 1
 287 125 295 98 295 69 c 0
 295 7 245 -45 182 -45 c 0
 135 -45 96 -26 72 11 c 0
 70 15 68 19 68 23 c 0
 68 35 78 46 91 46 c 0
 98 46 105 41 110 35 c 0
 125 11 148 0 182 0 c 0
 220 0 250 31 250 69 c 0
 250 91 244 105 231 116 c 0
 219 127 190 151 144 190 c 0
 94 231 45 273 45 363 c 0
91 363 m 0
 91 292 122 267 173 225 c 0
 198 204 218 188 233 175 c 1
 253 195 273 230 273 273 c 0
 273 344 241 369 190 411 c 0
 165 432 145 448 130 461 c 1
 110 441 91 406 91 363 c 0
EndSplineSet
EndChar

StartChar: dieresis
Encoding: 168 168 107
Width: 272
GlyphClass: 4
Flags: W
TeX: 637 -591
AnchorPoint: "Anchor-1" 136 614 mark 0
LayerCount: 2
Fore
SplineSet
181 614 m 0
 181 626 192 637 204 637 c 0
 216 637 227 626 227 614 c 0
 227 601 217 591 204 591 c 0
 191 591 181 601 181 614 c 0
45 614 m 0
 45 626 56 637 68 637 c 0
 80 637 91 626 91 614 c 0
 91 601 81 591 68 591 c 0
 55 591 45 601 45 614 c 0
EndSplineSet
EndChar

StartChar: copyright
Encoding: 169 169 108
Width: 772
GlyphClass: 2
Flags: W
TeX: 750 -68
LayerCount: 2
Fore
SplineSet
45 409 m 0
 45 597 198 750 386 750 c 0
 574 750 727 597 727 409 c 0
 727 221 574 68 386 68 c 0
 198 68 45 221 45 409 c 0
91 409 m 0
 91 247 224 114 386 114 c 0
 548 114 682 247 682 409 c 0
 682 571 548 705 386 705 c 0
 224 705 91 571 91 409 c 0
250 295 m 2
 250 523 l 2
 250 586 300 636 364 636 c 2
 455 636 l 2
 467 636 477 626 477 614 c 0
 477 602 467 591 455 591 c 2
 364 591 l 2
 326 591 295 561 295 523 c 2
 295 295 l 2
 295 256 326 227 364 227 c 2
 455 227 l 2
 467 227 477 217 477 205 c 0
 477 193 467 182 455 182 c 2
 364 182 l 2
 301 182 250 230 250 295 c 2
EndSplineSet
EndChar

StartChar: ordfeminine
Encoding: 170 170 109
Width: 409
GlyphClass: 2
Flags: W
TeX: 636 -318
LayerCount: 2
Fore
SplineSet
45 409 m 2
 45 545 l 2
 45 595 86 636 136 636 c 2
 250 636 l 2
 264 636 273 624 273 614 c 2
 273 386 l 2
 273 373 282 364 295 364 c 0
 307 364 318 353 318 341 c 0
 318 329 307 318 295 318 c 0
 274 318 255 327 243 342 c 1
 227 327 206 318 182 318 c 2
 136 318 l 2
 86 318 45 359 45 409 c 2
91 409 m 2
 91 384 111 364 136 364 c 2
 182 364 l 2
 207 364 227 384 227 409 c 2
 227 591 l 1
 136 591 l 2
 111 591 91 570 91 545 c 2
 91 409 l 2
EndSplineSet
EndChar

StartChar: guillemotleft
Encoding: 171 171 110
Width: 409
GlyphClass: 2
Flags: W
TeX: 409 -45
LayerCount: 2
Fore
SplineSet
68 227 m 0
 68 232 69 236 72 240 c 2
 186 400 l 2
 191 406 198 409 205 409 c 0
 218 409 227 398 227 386 c 0
 227 381 226 377 223 373 c 2
 119 227 l 1
 223 81 l 2
 226 77 227 73 227 68 c 0
 227 56 218 45 205 45 c 0
 198 45 191 49 186 55 c 2
 72 214 l 2
 69 218 68 222 68 227 c 0
227 227 m 0
 227 232 228 236 231 240 c 2
 345 400 l 2
 350 406 357 409 364 409 c 0
 377 409 386 398 386 386 c 0
 386 381 385 377 382 373 c 2
 278 227 l 1
 382 81 l 2
 385 77 386 73 386 68 c 0
 386 56 377 45 364 45 c 0
 357 45 350 49 345 55 c 2
 231 214 l 2
 228 218 227 222 227 227 c 0
EndSplineSet
EndChar

StartChar: logicalnot
Encoding: 172 172 111
Width: 409
GlyphClass: 2
Flags: W
TeX: 295 -159
LayerCount: 2
Fore
SplineSet
45 273 m 0
 45 285 56 295 68 295 c 2
 341 295 l 2
 355 295 364 283 364 273 c 2
 364 182 l 2
 364 170 353 159 341 159 c 0
 329 159 318 170 318 182 c 2
 318 250 l 1
 68 250 l 2
 56 250 45 261 45 273 c 0
EndSplineSet
EndChar

StartChar: uni00AD
Encoding: 173 173 112
Width: 227
GlyphClass: 2
Flags: W
TeX: 250 -205
LayerCount: 2
Fore
SplineSet
45 227 m 0
 45 239 56 250 68 250 c 2
 159 250 l 2
 171 250 182 239 182 227 c 0
 182 215 171 205 159 205 c 2
 68 205 l 2
 56 205 45 215 45 227 c 0
EndSplineSet
EndChar

StartChar: registered
Encoding: 174 174 113
Width: 772
GlyphClass: 2
Flags: W
TeX: 750 -68
LayerCount: 2
Fore
SplineSet
45 409 m 0
 45 597 198 750 386 750 c 0
 574 750 727 597 727 409 c 0
 727 221 574 68 386 68 c 0
 198 68 45 221 45 409 c 0
91 409 m 0
 91 247 224 114 386 114 c 0
 548 114 682 247 682 409 c 0
 682 571 548 705 386 705 c 0
 224 705 91 571 91 409 c 0
250 205 m 2
 250 614 l 2
 250 624 259 636 273 636 c 2
 410 636 l 2
 484 636 523 563 523 500 c 0
 523 449 495 389 443 370 c 1
 520 215 l 2
 522 212 523 208 523 205 c 0
 523 194 514 182 500 182 c 0
 492 182 484 187 480 195 c 2
 395 364 l 1
 295 364 l 1
 295 205 l 2
 295 193 285 182 273 182 c 0
 261 182 250 193 250 205 c 2
295 409 m 1
 409 409 l 2
 447 409 477 452 477 500 c 0
 477 550 448 591 410 591 c 2
 295 591 l 1
 295 409 l 1
EndSplineSet
EndChar

StartChar: macron
Encoding: 175 175 114
Width: 227
GlyphClass: 4
Flags: W
TeX: 636 -591
AnchorPoint: "Anchor-1" 114 614 mark 0
LayerCount: 2
Fore
SplineSet
46 614 m 0
 46 626 57 636 69 636 c 2
 159 636 l 2
 171 636 182 626 182 614 c 0
 182 602 171 591 159 591 c 2
 69 591 l 2
 57 591 46 602 46 614 c 0
EndSplineSet
EndChar

StartChar: degree
Encoding: 176 176 115
Width: 272
GlyphClass: 2
Flags: W
TeX: 636 -455
LayerCount: 2
Fore
SplineSet
45 545 m 0
 45 595 86 636 136 636 c 0
 186 636 227 595 227 545 c 0
 227 495 186 455 136 455 c 0
 86 455 45 495 45 545 c 0
91 545 m 0
 91 520 111 500 136 500 c 0
 161 500 182 520 182 545 c 0
 182 570 161 591 136 591 c 0
 111 591 91 570 91 545 c 0
EndSplineSet
EndChar

StartChar: plusminus
Encoding: 177 177 116
Width: 363
GlyphClass: 2
Flags: W
TeX: 409 -23
LayerCount: 2
Fore
SplineSet
46 272 m 0
 46 284 56 295 68 295 c 2
 159 295 l 1
 159 386 l 2
 159 398 170 409 182 409 c 0
 194 409 205 398 205 386 c 2
 205 295 l 1
 296 295 l 2
 308 295 318 284 318 272 c 0
 318 260 308 250 296 250 c 2
 205 250 l 1
 205 159 l 2
 205 147 194 136 182 136 c 0
 170 136 159 147 159 159 c 2
 159 250 l 1
 68 250 l 2
 56 250 46 260 46 272 c 0
46 45 m 0
 46 57 56 68 68 68 c 2
 296 68 l 2
 308 68 318 57 318 45 c 0
 318 33 308 23 296 23 c 2
 68 23 l 2
 56 23 46 33 46 45 c 0
EndSplineSet
EndChar

StartChar: uni00B2
Encoding: 178 178 117
Width: 291
GlyphClass: 2
Flags: W
TeX: 863 -409
LayerCount: 2
Fore
SplineSet
32.142578125 425.428710938 m 0
 32.142578125 429 32.857421875 431.857421875 35 434.713867188 c 2
 217.142578125 710.428710938 l 2
 224.286132812 721.142578125 227.142578125 734 227.142578125 749.71484375 c 0
 227.142578125 794 190.71484375 831.142578125 146.428710938 831.142578125 c 0
 111.428710938 831.142578125 79.2861328125 805.428710938 69.2861328125 776.857421875 c 0
 67.142578125 770.428710938 60.7138671875 766.142578125 53.5712890625 766.142578125 c 0
 43.5712890625 766.142578125 37.857421875 774.71484375 37.857421875 782.571289062 c 0
 37.857421875 784 37.857421875 786.142578125 38.5712890625 787.571289062 c 0
 52.857421875 829.71484375 96.4287109375 863.286132812 146.428710938 863.286132812 c 0
 208.571289062 863.286132812 260 811.857421875 260 749.71484375 c 0
 260 729.71484375 255.71484375 709.71484375 244.286132812 691.857421875 c 2
 78.5712890625 441.142578125 l 1
 243.571289062 441.142578125 l 2
 252.142578125 441.142578125 260 434 260 425.428710938 c 0
 260 416.857421875 252.142578125 409 243.571289062 409 c 2
 48.5712890625 409 l 2
 40 409 32.142578125 416.142578125 32.142578125 425.428710938 c 0
EndSplineSet
EndChar

StartChar: uni00B3
Encoding: 179 179 118
Width: 259
GlyphClass: 2
Flags: W
TeX: 863 -409
LayerCount: 2
Fore
SplineSet
32.142578125 425.428710938 m 0
 32.142578125 434 40 441.142578125 48.5712890625 441.142578125 c 2
 97.142578125 441.142578125 l 2
 151.428710938 441.142578125 195 484 195 539 c 0
 195 585.428710938 157.857421875 636.142578125 113.571289062 636.142578125 c 0
 105 636.142578125 97.142578125 643.286132812 97.142578125 651.857421875 c 0
 97.142578125 661.142578125 104.286132812 669 113.571289062 669 c 0
 156.428710938 669 178.571289062 701.142578125 178.571289062 749.71484375 c 0
 178.571289062 794 141.428710938 831.142578125 97.142578125 831.142578125 c 2
 48.5712890625 831.142578125 l 2
 40 831.142578125 32.142578125 839 32.142578125 847.571289062 c 0
 32.142578125 856.142578125 40 863.286132812 48.5712890625 863.286132812 c 2
 97.142578125 863.286132812 l 2
 159.286132812 863.286132812 210.71484375 811.857421875 210.71484375 749.71484375 c 0
 210.71484375 710.428710938 196.428710938 673.286132812 167.142578125 652.571289062 c 1
 205 628.286132812 227.142578125 580.428710938 227.142578125 539 c 0
 227.142578125 465.428710938 168.571289062 409 97.142578125 409 c 2
 48.5712890625 409 l 2
 40 409 32.142578125 416.857421875 32.142578125 425.428710938 c 0
EndSplineSet
Substitution2: "'cv01' Character Variants 01 lookup 1 subtable" three.alt.sup
EndChar

StartChar: acute
Encoding: 180 180 119
Width: 159
GlyphClass: 2
Flags: W
TeX: 636 -545
LayerCount: 2
Fore
SplineSet
45 568 m 0
 45 571 46 575 48 578 c 2
 70 624 l 2
 74 632 83 636 91 636 c 0
 105 636 113 625 113 614 c 0
 113 611 113 607 111 604 c 2
 88 558 l 2
 84 550 76 545 68 545 c 0
 54 545 45 557 45 568 c 0
EndSplineSet
EndChar

StartChar: mu
Encoding: 181 181 120
Width: 409
GlyphClass: 2
Flags: W
TeX: 455 182
LayerCount: 2
Fore
SplineSet
45 -159 m 2
 45 432 l 2
 45 444 56 455 68 455 c 0
 80 455 91 444 91 432 c 2
 91 136 l 2
 91 85 132 45 182 45 c 0
 232 45 273 89 273 136 c 2
 273 432 l 2
 273 444 283 455 295 455 c 0
 307 455 318 444 318 432 c 2
 318 68 l 2
 318 57 330 45 341 45 c 0
 353 45 364 35 364 23 c 0
 364 11 353 0 341 0 c 0
 314 0 290 17 279 41 c 1
 254 16 220 0 181 0 c 0
 146 0 115 14 91 35 c 1
 91 -159 l 2
 91 -171 80 -182 68 -182 c 0
 56 -182 45 -171 45 -159 c 2
EndSplineSet
EndChar

StartChar: paragraph
Encoding: 182 182 121
Width: 500
GlyphClass: 2
Flags: W
TeX: 636 0
LayerCount: 2
Fore
SplineSet
45 477 m 0
 45 564 118 636 205 636 c 2
 432 636 l 2
 444 636 455 626 455 614 c 0
 455 602 444 591 432 591 c 2
 386 591 l 1
 386 23 l 2
 386 11 376 0 364 0 c 0
 352 0 341 11 341 23 c 2
 341 591 l 1
 250 591 l 1
 250 23 l 2
 250 11 239 0 227 0 c 0
 215 0 205 11 205 23 c 2
 205 318 l 1
 118 318 45 390 45 477 c 0
91 477 m 0
 91 415 144 364 205 364 c 1
 205 591 l 1
 143 591 91 539 91 477 c 0
EndSplineSet
EndChar

StartChar: periodcentered
Encoding: 183 183 122
Width: 136
GlyphClass: 4
Flags: W
TeX: 250 -205
AnchorPoint: "Anchor-4" 68 227 mark 0
LayerCount: 2
Fore
SplineSet
45 228 m 0
 45 241 55 250 68 250 c 0
 81 250 91 241 91 228 c 0
 91 215 81 205 68 205 c 0
 55 205 45 215 45 228 c 0
EndSplineSet
EndChar

StartChar: uni00B9
Encoding: 185 185 123
Width: 194
GlyphClass: 2
Flags: W
TeX: 863 -409
LayerCount: 2
Fore
SplineSet
32.142578125 749.71484375 m 0
 32.142578125 754 33.5712890625 757.571289062 37.142578125 761.142578125 c 2
 134.286132812 859 l 2
 137.857421875 862.571289062 142.857421875 863.286132812 146.428710938 863.286132812 c 0
 156.428710938 863.286132812 162.142578125 854.71484375 162.142578125 847.571289062 c 2
 162.142578125 425.428710938 l 2
 162.142578125 415.428710938 152.857421875 409 145.713867188 409 c 0
 135.713867188 409 130 417.571289062 130 428.286132812 c 2
 130 808.286132812 l 1
 60 738.286132812 l 2
 56.4287109375 734.71484375 52.857421875 734 48.5712890625 734 c 0
 40 734 32.142578125 741.142578125 32.142578125 749.71484375 c 0
EndSplineSet
EndChar

StartChar: ordmasculine
Encoding: 186 186 124
Width: 272
GlyphClass: 2
Flags: W
TeX: 636 -318
LayerCount: 2
Fore
SplineSet
45 409 m 2
 45 545 l 2
 45 595 86 636 136 636 c 0
 186 636 227 595 227 545 c 2
 227 409 l 2
 227 359 186 318 136 318 c 0
 86 318 45 359 45 409 c 2
91 409 m 2
 91 384 111 364 136 364 c 0
 161 364 182 384 182 409 c 2
 182 545 l 2
 182 570 161 591 136 591 c 0
 111 591 91 570 91 545 c 2
 91 409 l 2
EndSplineSet
EndChar

StartChar: guillemotright
Encoding: 187 187 125
Width: 409
GlyphClass: 2
Flags: W
TeX: 410 -46
LayerCount: 2
Fore
SplineSet
205 228 m 0
 205 223 204 219 201 215 c 2
 87 55 l 2
 82 49 75 46 68 46 c 0
 55 46 46 57 46 69 c 0
 46 74 47 78 50 82 c 2
 154 228 l 1
 50 374 l 2
 47 378 46 382 46 387 c 0
 46 399 55 410 68 410 c 0
 75 410 82 406 87 400 c 2
 201 241 l 2
 204 237 205 233 205 228 c 0
364 228 m 0
 364 223 363 219 360 215 c 2
 246 55 l 2
 241 49 234 46 227 46 c 0
 214 46 205 57 205 69 c 0
 205 74 206 78 209 82 c 2
 313 228 l 1
 209 374 l 2
 206 378 205 382 205 387 c 0
 205 399 214 410 227 410 c 0
 234 410 241 406 246 400 c 2
 360 241 l 2
 363 237 364 233 364 228 c 0
EndSplineSet
EndChar

StartChar: questiondown
Encoding: 191 191 126
Width: 363
GlyphClass: 2
Flags: W
TeX: 636 0
LayerCount: 2
Fore
SplineSet
319 68 m 0
 319 64 317 61 315 57 c 0
 291 16 243 0 182 0 c 0
 107 0 46 61 46 136 c 0
 46 211 107 254 137 282 c 0
 152 297 159 316 159 341 c 2
 159 477 l 2
 159 489 170 500 182 500 c 0
 194 500 205 489 205 477 c 2
 205 341 l 2
 205 306 194 274 169 250 c 0
 133 215 91 185 91 136 c 0
 91 86 132 45 182 45 c 0
 237 45 264 60 276 80 c 0
 280 87 288 91 296 91 c 0
 309 91 319 79 319 68 c 0
205 613 m 0
 205 600 195 590 182 590 c 0
 169 590 159 600 159 613 c 0
 159 626 169 636 182 636 c 0
 195 636 205 626 205 613 c 0
EndSplineSet
EndChar

StartChar: Aacute
Encoding: 193 193 127
Width: 454
GlyphClass: 3
Flags: W
TeX: 772 0
LayerCount: 2
Fore
SplineSet
45 23 m 0
 45 25 46 27 46 29 c 2
 205 620 l 2
 208 630 217 636 227 636 c 1
 227 636 l 1
 228 636 l 2
 238 636 247 630 250 620 c 2
 408 29 l 2
 408 27 409 25 409 23 c 0
 409 12 400 0 386 0 c 0
 376 0 368 7 365 17 c 2
 320 182 l 1
 135 182 l 1
 90 17 l 2
 87 7 78 0 68 0 c 0
 54 0 45 12 45 23 c 0
147 227 m 1
 308 227 l 1
 227 528 l 1
 147 227 l 1
181 704 m 0
 181 707 182 711 184 714 c 2
 206 760 l 2
 210 768 219 772 227 772 c 0
 241 772 249 761 249 750 c 0
 249 747 249 743 247 740 c 2
 224 694 l 2
 220 686 212 681 204 681 c 0
 190 681 181 693 181 704 c 0
EndSplineSet
Ligature2: "'ccmp' Glyph Composition/Decomposition in Latin lookup 52 subtable" A acutecomb
Ligature2: "'ccmp' Glyph Composition/Decomposition in Latin lookup 48 subtable" A acutecomb
EndChar

StartChar: Acircumflex
Encoding: 194 194 128
Width: 454
GlyphClass: 3
Flags: W
TeX: 772 0
LayerCount: 2
Fore
SplineSet
45 23 m 0
 45 25 46 27 46 29 c 2
 205 620 l 2
 208 630 217 636 227 636 c 1
 227 636 l 1
 228 636 l 2
 238 636 247 630 250 620 c 2
 408 29 l 2
 408 27 409 25 409 23 c 0
 409 12 400 0 386 0 c 0
 376 0 368 7 365 17 c 2
 320 182 l 1
 135 182 l 1
 90 17 l 2
 87 7 78 0 68 0 c 0
 54 0 45 12 45 23 c 0
147 227 m 1
 308 227 l 1
 227 528 l 1
 147 227 l 1
160 704 m 0
 160 710 162 715 167 720 c 2
 212 766 l 2
 217 771 223 772 228 772 c 0
 234 772 240 770 244 766 c 2
 289 720 l 2
 294 715 296 710 296 704 c 0
 296 692 285 681 273 681 c 0
 267 681 263 683 258 688 c 2
 228 717 l 1
 198 688 l 2
 193 683 189 681 183 681 c 0
 171 681 160 692 160 704 c 0
EndSplineSet
Ligature2: "'ccmp' Glyph Composition/Decomposition in Latin lookup 51 subtable" A uni0302
EndChar

StartChar: Adieresis
Encoding: 196 196 129
Width: 454
GlyphClass: 3
Flags: W
TeX: 773 0
LayerCount: 2
Fore
SplineSet
45 23 m 0
 45 25 46 27 46 29 c 2
 205 620 l 2
 208 630 217 636 227 636 c 1
 227 636 l 1
 228 636 l 2
 238 636 247 630 250 620 c 2
 408 29 l 2
 408 27 409 25 409 23 c 0
 409 12 400 0 386 0 c 0
 376 0 368 7 365 17 c 2
 320 182 l 1
 135 182 l 1
 90 17 l 2
 87 7 78 0 68 0 c 0
 54 0 45 12 45 23 c 0
147 227 m 1
 308 227 l 1
 227 528 l 1
 147 227 l 1
272 750 m 0
 272 762 283 773 295 773 c 0
 307 773 318 762 318 750 c 0
 318 737 308 727 295 727 c 0
 282 727 272 737 272 750 c 0
136 750 m 0
 136 762 147 773 159 773 c 0
 171 773 182 762 182 750 c 0
 182 737 172 727 159 727 c 0
 146 727 136 737 136 750 c 0
EndSplineSet
Ligature2: "'ccmp' Glyph Composition/Decomposition in Latin lookup 52 subtable" A uni0308
Ligature2: "'ccmp' Glyph Composition/Decomposition in Latin lookup 52 subtable" A uni0308
Ligature2: "'ccmp' Glyph Composition/Decomposition in Latin lookup 49 subtable" A uni0308
EndChar

StartChar: AE
Encoding: 198 198 130
Width: 636
GlyphClass: 2
Flags: W
TeX: 636 0
LayerCount: 2
Fore
SplineSet
45 23 m 0
 45 25 46 27 46 29 c 2
 205 620 l 2
 207 628 216 636 227 636 c 2
 568 636 l 2
 580 636 591 626 591 614 c 0
 591 602 580 591 568 591 c 2
 364 591 l 1
 364 364 l 1
 471 364 l 2
 473 364 476 365 478 365 c 0
 491 365 500 354 500 341 c 0
 500 331 491 318 477 318 c 2
 364 318 l 1
 364 45 l 1
 568 45 l 2
 580 45 591 35 591 23 c 0
 591 11 580 0 568 0 c 2
 341 0 l 2
 331 0 318 9 318 23 c 2
 318 182 l 1
 135 182 l 1
 90 17 l 2
 87 7 78 0 68 0 c 0
 54 0 45 12 45 23 c 0
147 227 m 1
 318 227 l 1
 318 591 l 1
 245 591 l 1
 147 227 l 1
EndSplineSet
EndChar

StartChar: Eacute
Encoding: 201 201 131
Width: 363
GlyphClass: 3
Flags: W
TeX: 772 0
LayerCount: 2
Fore
SplineSet
45 23 m 2
 45 614 l 2
 45 624 54 636 68 636 c 2
 295 636 l 2
 307 636 318 626 318 614 c 0
 318 602 307 591 295 591 c 2
 91 591 l 1
 91 364 l 1
 205 364 l 2
 217 364 227 353 227 341 c 0
 227 329 217 318 205 318 c 2
 91 318 l 1
 91 45 l 1
 295 45 l 2
 307 45 318 35 318 23 c 0
 318 11 307 0 295 0 c 2
 68 0 l 2
 58 0 45 9 45 23 c 2
136 704 m 0
 136 707 137 711 139 714 c 2
 161 760 l 2
 165 768 174 772 182 772 c 0
 196 772 204 761 204 750 c 0
 204 747 204 743 202 740 c 2
 179 694 l 2
 175 686 167 681 159 681 c 0
 145 681 136 693 136 704 c 0
EndSplineSet
Ligature2: "'ccmp' Glyph Composition/Decomposition in Latin lookup 52 subtable" E acutecomb
Ligature2: "'ccmp' Glyph Composition/Decomposition in Latin lookup 48 subtable" E acutecomb
EndChar

StartChar: Iacute
Encoding: 205 205 132
Width: 136
GlyphClass: 3
Flags: W
TeX: 772 0
LayerCount: 2
Fore
SplineSet
45 23 m 2
 45 614 l 2
 45 626 56 636 68 636 c 0
 80 636 91 626 91 614 c 2
 91 23 l 2
 91 11 80 0 68 0 c 0
 56 0 45 11 45 23 c 2
22 704 m 0
 22 707 23 711 25 714 c 2
 47 760 l 2
 51 768 60 772 68 772 c 0
 82 772 90 761 90 750 c 0
 90 747 90 743 88 740 c 2
 65 694 l 2
 61 686 53 681 45 681 c 0
 31 681 22 693 22 704 c 0
EndSplineSet
Ligature2: "'ccmp' Glyph Composition/Decomposition in Latin lookup 52 subtable" I acutecomb
Ligature2: "'ccmp' Glyph Composition/Decomposition in Latin lookup 48 subtable" I acutecomb
EndChar

StartChar: Icircumflex
Encoding: 206 206 133
Width: 136
GlyphClass: 3
Flags: W
TeX: 772 0
LayerCount: 2
Fore
SplineSet
45 23 m 2
 45 614 l 2
 45 626 56 636 68 636 c 0
 80 636 91 626 91 614 c 2
 91 23 l 2
 91 11 80 0 68 0 c 0
 56 0 45 11 45 23 c 2
1 704 m 0
 1 710 3 715 8 720 c 2
 53 766 l 2
 58 771 64 772 69 772 c 0
 75 772 81 770 85 766 c 2
 130 720 l 2
 135 715 137 710 137 704 c 0
 137 692 126 681 114 681 c 0
 108 681 104 683 99 688 c 2
 69 717 l 1
 39 688 l 2
 34 683 30 681 24 681 c 0
 12 681 1 692 1 704 c 0
EndSplineSet
Ligature2: "'ccmp' Glyph Composition/Decomposition in Latin lookup 51 subtable" I uni0302
EndChar

StartChar: Oacute
Encoding: 211 211 134
Width: 409
GlyphClass: 3
Flags: W
TeX: 772 0
LayerCount: 2
Fore
SplineSet
45 159 m 2
 45 477 l 2
 45 564 118 636 205 636 c 0
 292 636 364 564 364 477 c 2
 364 159 l 2
 364 72 292 0 205 0 c 0
 118 0 45 72 45 159 c 2
91 159 m 2
 91 97 143 45 205 45 c 0
 267 45 318 97 318 159 c 2
 318 477 l 2
 318 539 267 591 205 591 c 0
 143 591 91 539 91 477 c 2
 91 159 l 2
159 704 m 0
 159 707 160 711 162 714 c 2
 184 760 l 2
 188 768 197 772 205 772 c 0
 219 772 227 761 227 750 c 0
 227 747 227 743 225 740 c 2
 202 694 l 2
 198 686 190 681 182 681 c 0
 168 681 159 693 159 704 c 0
EndSplineSet
Ligature2: "'ccmp' Glyph Composition/Decomposition in Latin lookup 52 subtable" O acutecomb
Ligature2: "'ccmp' Glyph Composition/Decomposition in Latin lookup 50 subtable" O acutecomb
Ligature2: "'ccmp' Glyph Composition/Decomposition in Latin lookup 48 subtable" O acutecomb
EndChar

StartChar: Ocircumflex
Encoding: 212 212 135
Width: 409
GlyphClass: 3
Flags: W
TeX: 772 0
LayerCount: 2
Fore
SplineSet
45 159 m 2
 45 477 l 2
 45 564 118 636 205 636 c 0
 292 636 364 564 364 477 c 2
 364 159 l 2
 364 72 292 0 205 0 c 0
 118 0 45 72 45 159 c 2
91 159 m 2
 91 97 143 45 205 45 c 0
 267 45 318 97 318 159 c 2
 318 477 l 2
 318 539 267 591 205 591 c 0
 143 591 91 539 91 477 c 2
 91 159 l 2
137 704 m 0
 137 710 139 715 144 720 c 2
 189 766 l 2
 194 771 200 772 205 772 c 0
 211 772 217 770 221 766 c 2
 266 720 l 2
 271 715 273 710 273 704 c 0
 273 692 262 681 250 681 c 0
 244 681 240 683 235 688 c 2
 205 717 l 1
 175 688 l 2
 170 683 166 681 160 681 c 0
 148 681 137 692 137 704 c 0
EndSplineSet
Ligature2: "'ccmp' Glyph Composition/Decomposition in Latin lookup 52 subtable" O uni0302
EndChar

StartChar: Odieresis
Encoding: 214 214 136
Width: 409
GlyphClass: 3
Flags: W
TeX: 773 0
LayerCount: 2
Fore
SplineSet
45 159 m 2
 45 477 l 2
 45 564 118 636 205 636 c 0
 292 636 364 564 364 477 c 2
 364 159 l 2
 364 72 292 0 205 0 c 0
 118 0 45 72 45 159 c 2
91 159 m 2
 91 97 143 45 205 45 c 0
 267 45 318 97 318 159 c 2
 318 477 l 2
 318 539 267 591 205 591 c 0
 143 591 91 539 91 477 c 2
 91 159 l 2
249 750 m 0
 249 762 260 773 272 773 c 0
 284 773 295 762 295 750 c 0
 295 737 285 727 272 727 c 0
 259 727 249 737 249 750 c 0
113 750 m 0
 113 762 124 773 136 773 c 0
 148 773 159 762 159 750 c 0
 159 737 149 727 136 727 c 0
 123 727 113 737 113 750 c 0
EndSplineSet
Ligature2: "'ccmp' Glyph Composition/Decomposition in Latin lookup 49 subtable" O uni0308
Ligature2: "'ccmp' Glyph Composition/Decomposition in Latin lookup 48 subtable" O uni0308
EndChar

StartChar: multiply
Encoding: 215 215 137
Width: 363
GlyphClass: 2
Flags: W
TeX: 364 -91
LayerCount: 2
Fore
SplineSet
45 114 m 0
 45 120 47 125 52 130 c 2
 150 227 l 1
 52 325 l 2
 47 330 45 335 45 341 c 0
 45 353 56 364 68 364 c 0
 74 364 79 362 84 357 c 2
 182 260 l 1
 280 357 l 2
 285 362 289 364 295 364 c 0
 307 364 318 353 318 341 c 0
 318 335 316 330 311 325 c 2
 214 227 l 1
 311 130 l 2
 316 125 318 120 318 114 c 0
 318 102 307 91 295 91 c 0
 289 91 285 93 280 98 c 2
 182 195 l 1
 84 98 l 2
 79 93 74 91 68 91 c 0
 56 91 45 102 45 114 c 0
EndSplineSet
EndChar

StartChar: Oslash
Encoding: 216 216 138
Width: 409
GlyphClass: 2
Flags: W
TeX: 636 0
LayerCount: 2
Fore
SplineSet
45 23 m 0
 45 26 47 29 48 32 c 2
 68 77 l 1
 53 101 45 129 45 159 c 2
 45 477 l 2
 45 564 118 636 205 636 c 0
 245 636 280 621 308 597 c 1
 320 623 l 2
 324 631 332 636 341 636 c 0
 355 636 364 625 364 614 c 0
 364 611 362 607 361 604 c 2
 341 559 l 1
 356 535 364 507 364 477 c 2
 364 159 l 2
 364 72 292 0 205 0 c 0
 165 0 129 15 101 39 c 1
 89 13 l 2
 85 5 77 0 68 0 c 0
 54 0 45 12 45 23 c 0
91 159 m 2
 91 150 92 141 94 133 c 1
 288 554 l 1
 267 577 238 591 205 591 c 0
 143 591 91 539 91 477 c 2
 91 159 l 2
121 83 m 1
 142 60 172 45 205 45 c 0
 267 45 318 97 318 159 c 2
 318 477 l 2
 318 486 317 495 315 503 c 1
 121 83 l 1
EndSplineSet
EndChar

StartChar: Uacute
Encoding: 218 218 139
Width: 409
GlyphClass: 3
Flags: W
TeX: 772 0
LayerCount: 2
Fore
SplineSet
45 159 m 2
 45 614 l 2
 45 626 56 636 68 636 c 0
 80 636 91 626 91 614 c 2
 91 159 l 2
 91 97 143 45 205 45 c 0
 267 45 318 97 318 159 c 2
 318 614 l 2
 318 626 329 636 341 636 c 0
 353 636 364 626 364 614 c 2
 364 159 l 2
 364 72 292 0 205 0 c 0
 118 0 45 72 45 159 c 2
159 704 m 0
 159 707 160 711 162 714 c 2
 184 760 l 2
 188 768 197 772 205 772 c 0
 219 772 227 761 227 750 c 0
 227 747 227 743 225 740 c 2
 202 694 l 2
 198 686 190 681 182 681 c 0
 168 681 159 693 159 704 c 0
EndSplineSet
Ligature2: "'ccmp' Glyph Composition/Decomposition in Latin lookup 52 subtable" U acutecomb
Ligature2: "'ccmp' Glyph Composition/Decomposition in Latin lookup 48 subtable" U acutecomb
EndChar

StartChar: Udieresis
Encoding: 220 220 140
Width: 409
GlyphClass: 3
Flags: W
TeX: 773 0
LayerCount: 2
Fore
SplineSet
45 159 m 2
 45 614 l 2
 45 626 56 636 68 636 c 0
 80 636 91 626 91 614 c 2
 91 159 l 2
 91 97 143 45 205 45 c 0
 267 45 318 97 318 159 c 2
 318 614 l 2
 318 626 329 636 341 636 c 0
 353 636 364 626 364 614 c 2
 364 159 l 2
 364 72 292 0 205 0 c 0
 118 0 45 72 45 159 c 2
249 750 m 0
 249 762 260 773 272 773 c 0
 284 773 295 762 295 750 c 0
 295 737 285 727 272 727 c 0
 259 727 249 737 249 750 c 0
113 750 m 0
 113 762 124 773 136 773 c 0
 148 773 159 762 159 750 c 0
 159 737 149 727 136 727 c 0
 123 727 113 737 113 750 c 0
EndSplineSet
Ligature2: "'ccmp' Glyph Composition/Decomposition in Latin lookup 49 subtable" U uni0308
Ligature2: "'ccmp' Glyph Composition/Decomposition in Latin lookup 48 subtable" U uni0308
EndChar

StartChar: Yacute
Encoding: 221 221 141
Width: 454
GlyphClass: 3
Flags: W
TeX: 772 0
LayerCount: 2
Fore
SplineSet
45 614 m 0
 45 625 54 636 68 636 c 0
 76 636 84 633 88 625 c 2
 227 366 l 1
 366 625 l 2
 370 633 378 636 386 636 c 0
 400 636 409 625 409 614 c 0
 409 610 408 606 406 603 c 2
 250 312 l 1
 250 23 l 2
 250 11 239 0 227 0 c 0
 215 0 205 11 205 23 c 2
 205 312 l 1
 48 603 l 2
 46 606 45 610 45 614 c 0
181 704 m 0
 181 707 182 711 184 714 c 2
 206 760 l 2
 210 768 219 772 227 772 c 0
 241 772 249 761 249 750 c 0
 249 747 249 743 247 740 c 2
 224 694 l 2
 220 686 212 681 204 681 c 0
 190 681 181 693 181 704 c 0
EndSplineSet
Ligature2: "'ccmp' Glyph Composition/Decomposition in Latin lookup 52 subtable" Y acutecomb
EndChar

StartChar: germandbls
Encoding: 223 223 142
Width: 409
GlyphClass: 3
Flags: W
TeX: 636 0
LayerCount: 2
Fore
SplineSet
45 23 m 2
 45 545 l 2
 45 596 86 636 136 636 c 2
 205 636 l 2
 293 636 364 566 364 477 c 0
 364 430 346 385 310 356 c 1
 341 342 364 310 364 273 c 2
 364 91 l 2
 364 42 323 0 273 0 c 2
 250 0 l 2
 238 0 227 11 227 23 c 0
 227 35 238 45 250 45 c 2
 273 45 l 2
 298 45 318 66 318 91 c 2
 318 273 l 2
 318 298 298 318 273 318 c 2
 250 318 l 1
 250 318 225 327 225 342 c 0
 225 347 228 354 237 360 c 2
 277 389 l 2
 302 407 318 439 318 477 c 0
 318 540 268 591 205 591 c 2
 136 591 l 2
 111 591 91 570 91 545 c 2
 91 23 l 2
 91 11 80 0 68 0 c 0
 56 0 45 11 45 23 c 2
EndSplineSet
Ligature2: "'rlig' Required Ligatures in Latin lookup 40 subtable" s s
EndChar

StartChar: aacute
Encoding: 225 225 143
Width: 409
GlyphClass: 3
Flags: W
TeX: 636 0
LayerCount: 2
Fore
SplineSet
45 136 m 2
 45 341 l 2
 45 404 96 455 159 455 c 2
 295 455 l 2
 309 455 318 442 318 432 c 2
 318 68 l 2
 318 56 329 45 341 45 c 0
 353 45 364 35 364 23 c 0
 364 11 353 0 341 0 c 0
 313 0 289 16 279 40 c 1
 254 15 220 0 181 0 c 0
 106 0 45 61 45 136 c 2
91 136 m 2
 91 86 132 45 182 45 c 0
 232 45 273 88 273 136 c 2
 273 409 l 1
 159 409 l 2
 121 409 91 379 91 341 c 2
 91 136 l 2
159 568 m 0
 159 571 160 575 162 578 c 2
 184 624 l 2
 188 632 197 636 205 636 c 0
 219 636 227 625 227 614 c 0
 227 611 227 607 225 604 c 2
 202 558 l 2
 198 550 190 545 182 545 c 0
 168 545 159 557 159 568 c 0
EndSplineSet
Ligature2: "'ccmp' Glyph Composition/Decomposition in Latin lookup 52 subtable" a acutecomb
Ligature2: "'ccmp' Glyph Composition/Decomposition in Latin lookup 48 subtable" a acutecomb
EndChar

StartChar: acircumflex
Encoding: 226 226 144
Width: 409
GlyphClass: 3
Flags: W
TeX: 636 0
LayerCount: 2
Fore
SplineSet
45 136 m 2
 45 341 l 2
 45 404 96 455 159 455 c 2
 295 455 l 2
 309 455 318 442 318 432 c 2
 318 68 l 2
 318 56 329 45 341 45 c 0
 353 45 364 35 364 23 c 0
 364 11 353 0 341 0 c 0
 313 0 289 16 279 40 c 1
 254 15 220 0 181 0 c 0
 106 0 45 61 45 136 c 2
91 136 m 2
 91 86 132 45 182 45 c 0
 232 45 273 88 273 136 c 2
 273 409 l 1
 159 409 l 2
 121 409 91 379 91 341 c 2
 91 136 l 2
137 568 m 0
 137 574 139 579 144 584 c 2
 189 630 l 2
 194 635 200 636 205 636 c 0
 211 636 217 634 221 630 c 2
 266 584 l 2
 271 579 273 574 273 568 c 0
 273 556 262 545 250 545 c 0
 244 545 240 547 235 552 c 2
 205 581 l 1
 175 552 l 2
 170 547 166 545 160 545 c 0
 148 545 137 556 137 568 c 0
EndSplineSet
Ligature2: "'ccmp' Glyph Composition/Decomposition in Latin lookup 51 subtable" a uni0302
EndChar

StartChar: adieresis
Encoding: 228 228 145
Width: 409
GlyphClass: 3
Flags: W
TeX: 637 0
LayerCount: 2
Fore
SplineSet
45 136 m 2
 45 341 l 2
 45 404 96 455 159 455 c 2
 295 455 l 2
 309 455 318 442 318 432 c 2
 318 68 l 2
 318 56 329 45 341 45 c 0
 353 45 364 35 364 23 c 0
 364 11 353 0 341 0 c 0
 313 0 289 16 279 40 c 1
 254 15 220 0 181 0 c 0
 106 0 45 61 45 136 c 2
91 136 m 2
 91 86 132 45 182 45 c 0
 232 45 273 88 273 136 c 2
 273 409 l 1
 159 409 l 2
 121 409 91 379 91 341 c 2
 91 136 l 2
249 614 m 0
 249 626 260 637 272 637 c 0
 284 637 295 626 295 614 c 0
 295 601 285 591 272 591 c 0
 259 591 249 601 249 614 c 0
113 614 m 0
 113 626 124 637 136 637 c 0
 148 637 159 626 159 614 c 0
 159 601 149 591 136 591 c 0
 123 591 113 601 113 614 c 0
EndSplineSet
Ligature2: "'ccmp' Glyph Composition/Decomposition in Latin lookup 49 subtable" a uni0308
EndChar

StartChar: ae
Encoding: 230 230 146
Width: 590
GlyphClass: 2
Flags: W
TeX: 455 0
LayerCount: 2
Fore
SplineSet
45 91 m 2
 45 159 l 2
 45 209 86 250 136 250 c 2
 273 250 l 1
 273 364 l 2
 273 389 252 409 227 409 c 2
 91 409 l 2
 79 409 68 420 68 432 c 0
 68 444 79 455 91 455 c 2
 227 455 l 2
 254 455 278 443 295 424 c 1
 312 443 337 455 364 455 c 2
 455 455 l 2
 505 455 545 414 545 364 c 2
 545 227 l 2
 545 217 537 205 523 205 c 2
 318 205 l 1
 318 91 l 2
 318 64 341 45 364 45 c 2
 523 45 l 2
 535 45 545 35 545 23 c 0
 545 11 535 0 523 0 c 2
 364 0 l 2
 337 0 312 12 295 31 c 1
 278 11 254 0 227 0 c 2
 136 0 l 2
 86 0 45 41 45 91 c 2
91 91 m 2
 91 66 111 45 136 45 c 2
 227 45 l 2
 250 45 273 64 273 91 c 2
 273 205 l 1
 136 205 l 2
 112 205 91 184 91 159 c 2
 91 91 l 2
318 250 m 1
 500 250 l 1
 500 364 l 2
 500 389 480 409 455 409 c 2
 364 409 l 2
 339 409 318 389 318 364 c 1
 318 364 l 1
 318 362 l 1
 318 250 l 1
EndSplineSet
EndChar

StartChar: eacute
Encoding: 233 233 147
Width: 363
GlyphClass: 3
Flags: W
TeX: 636 0
LayerCount: 2
Fore
SplineSet
45 114 m 2
 45 318 l 2
 45 393 107 455 182 455 c 0
 257 455 318 393 318 318 c 2
 318 227 l 2
 318 213 305 205 295 205 c 2
 91 205 l 1
 91 114 l 2
 91 76 121 45 159 45 c 2
 295 45 l 2
 307 45 318 35 318 23 c 0
 318 11 307 0 295 0 c 2
 159 0 l 2
 96 0 45 51 45 114 c 2
91 250 m 1
 273 250 l 1
 273 318 l 2
 273 368 232 409 182 409 c 0
 132 409 91 368 91 318 c 2
 91 250 l 1
136 568 m 0
 136 571 137 575 139 578 c 2
 161 624 l 2
 165 632 174 636 182 636 c 0
 196 636 204 625 204 614 c 0
 204 611 204 607 202 604 c 2
 179 558 l 2
 175 550 167 545 159 545 c 0
 145 545 136 557 136 568 c 0
EndSplineSet
Ligature2: "'ccmp' Glyph Composition/Decomposition in Latin lookup 52 subtable" e acutecomb
Ligature2: "'ccmp' Glyph Composition/Decomposition in Latin lookup 48 subtable" e acutecomb
EndChar

StartChar: iacute
Encoding: 237 237 148
Width: 136
GlyphClass: 3
Flags: W
TeX: 636 0
LayerCount: 2
Fore
SplineSet
45 23 m 2
 45 432 l 2
 45 444 56 455 68 455 c 0
 80 455 91 444 91 432 c 2
 91 23 l 2
 91 11 80 0 68 0 c 0
 56 0 45 11 45 23 c 2
22 568 m 0
 22 571 23 575 25 578 c 2
 47 624 l 2
 51 632 60 636 68 636 c 0
 82 636 90 625 90 614 c 0
 90 611 90 607 88 604 c 2
 65 558 l 2
 61 550 53 545 45 545 c 0
 31 545 22 557 22 568 c 0
EndSplineSet
Ligature2: "'ccmp' Glyph Composition/Decomposition in Latin lookup 52 subtable" i acutecomb
Ligature2: "'ccmp' Glyph Composition/Decomposition in Latin lookup 48 subtable" i acutecomb
EndChar

StartChar: icircumflex
Encoding: 238 238 149
Width: 136
GlyphClass: 3
Flags: W
TeX: 636 0
LayerCount: 2
Fore
SplineSet
45 23 m 2
 45 432 l 2
 45 444 56 455 68 455 c 0
 80 455 91 444 91 432 c 2
 91 23 l 2
 91 11 80 0 68 0 c 0
 56 0 45 11 45 23 c 2
1 568 m 0
 1 574 3 579 8 584 c 2
 53 630 l 2
 58 635 64 636 69 636 c 0
 75 636 81 634 85 630 c 2
 130 584 l 2
 135 579 137 574 137 568 c 0
 137 556 126 545 114 545 c 0
 108 545 104 547 99 552 c 2
 69 581 l 1
 39 552 l 2
 34 547 30 545 24 545 c 0
 12 545 1 556 1 568 c 0
EndSplineSet
Ligature2: "'ccmp' Glyph Composition/Decomposition in Latin lookup 51 subtable" i uni0302
EndChar

StartChar: oacute
Encoding: 243 243 150
Width: 363
GlyphClass: 3
Flags: W
TeX: 636 0
LayerCount: 2
Fore
SplineSet
45 136 m 2
 45 318 l 2
 45 393 107 455 182 455 c 0
 257 455 318 393 318 318 c 2
 318 136 l 2
 318 61 257 0 182 0 c 0
 107 0 45 62 45 136 c 2
91 136 m 2
 91 88 133 45 182 45 c 0
 231 45 273 87 273 136 c 2
 273 318 l 2
 273 367 231 409 182 409 c 0
 133 409 91 367 91 318 c 2
 91 136 l 2
136 568 m 0
 136 571 137 575 139 578 c 2
 161 624 l 2
 165 632 174 636 182 636 c 0
 196 636 204 625 204 614 c 0
 204 611 204 607 202 604 c 2
 179 558 l 2
 175 550 167 545 159 545 c 0
 145 545 136 557 136 568 c 0
EndSplineSet
Ligature2: "'ccmp' Glyph Composition/Decomposition in Latin lookup 52 subtable" o acutecomb
Ligature2: "'ccmp' Glyph Composition/Decomposition in Latin lookup 50 subtable" o acutecomb
Ligature2: "'ccmp' Glyph Composition/Decomposition in Latin lookup 48 subtable" o acutecomb
EndChar

StartChar: ocircumflex
Encoding: 244 244 151
Width: 363
GlyphClass: 3
Flags: W
TeX: 636 0
LayerCount: 2
Fore
SplineSet
45 136 m 2
 45 318 l 2
 45 393 107 455 182 455 c 0
 257 455 318 393 318 318 c 2
 318 136 l 2
 318 61 257 0 182 0 c 0
 107 0 45 62 45 136 c 2
91 136 m 2
 91 88 133 45 182 45 c 0
 231 45 273 87 273 136 c 2
 273 318 l 2
 273 367 231 409 182 409 c 0
 133 409 91 367 91 318 c 2
 91 136 l 2
114 568 m 0
 114 574 116 579 121 584 c 2
 166 630 l 2
 171 635 177 636 182 636 c 0
 188 636 194 634 198 630 c 2
 243 584 l 2
 248 579 250 574 250 568 c 0
 250 556 239 545 227 545 c 0
 221 545 217 547 212 552 c 2
 182 581 l 1
 152 552 l 2
 147 547 143 545 137 545 c 0
 125 545 114 556 114 568 c 0
EndSplineSet
Ligature2: "'ccmp' Glyph Composition/Decomposition in Latin lookup 52 subtable" o uni0302
EndChar

StartChar: odieresis
Encoding: 246 246 152
Width: 363
GlyphClass: 3
Flags: W
TeX: 637 0
LayerCount: 2
Fore
SplineSet
45 136 m 2
 45 318 l 2
 45 393 107 455 182 455 c 0
 257 455 318 393 318 318 c 2
 318 136 l 2
 318 61 257 0 182 0 c 0
 107 0 45 62 45 136 c 2
91 136 m 2
 91 88 133 45 182 45 c 0
 231 45 273 87 273 136 c 2
 273 318 l 2
 273 367 231 409 182 409 c 0
 133 409 91 367 91 318 c 2
 91 136 l 2
226 614 m 0
 226 626 237 637 249 637 c 0
 261 637 272 626 272 614 c 0
 272 601 262 591 249 591 c 0
 236 591 226 601 226 614 c 0
90 614 m 0
 90 626 101 637 113 637 c 0
 125 637 136 626 136 614 c 0
 136 601 126 591 113 591 c 0
 100 591 90 601 90 614 c 0
EndSplineSet
Ligature2: "'ccmp' Glyph Composition/Decomposition in Latin lookup 49 subtable" o uni0308
Ligature2: "'ccmp' Glyph Composition/Decomposition in Latin lookup 48 subtable" o uni0308
EndChar

StartChar: divide
Encoding: 247 247 153
Width: 318
GlyphClass: 2
Flags: W
TeX: 363 -91
LayerCount: 2
Fore
SplineSet
23 227 m 0
 23 239 33 250 45 250 c 2
 273 250 l 2
 285 250 295 239 295 227 c 0
 295 215 285 205 273 205 c 2
 45 205 l 2
 33 205 23 215 23 227 c 0
136 341 m 0
 136 354 146 363 159 363 c 0
 172 363 182 354 182 341 c 0
 182 328 172 318 159 318 c 0
 146 318 136 328 136 341 c 0
136 114 m 0
 136 127 146 136 159 136 c 0
 172 136 182 127 182 114 c 0
 182 101 172 91 159 91 c 0
 146 91 136 101 136 114 c 0
EndSplineSet
EndChar

StartChar: oslash
Encoding: 248 248 154
Width: 363
GlyphClass: 2
Flags: W
TeX: 455 0
LayerCount: 2
Fore
SplineSet
23 23 m 0
 23 28 23 31 26 35 c 2
 57 81 l 1
 49 98 45 116 45 136 c 2
 45 318 l 2
 45 393 107 455 182 455 c 0
 220 455 254 439 279 414 c 1
 299 445 l 2
 304 451 311 455 318 455 c 0
 331 455 341 444 341 432 c 0
 341 427 340 423 337 419 c 2
 306 373 l 1
 314 356 318 338 318 318 c 2
 318 136 l 2
 318 61 257 0 182 0 c 0
 144 0 110 16 85 41 c 1
 65 10 l 2
 60 4 52 0 45 0 c 0
 32 0 23 11 23 23 c 0
91 132 m 1
 253 375 l 1
 236 396 210 409 182 409 c 0
 133 409 91 367 91 318 c 2
 91 136 l 1
 91 132 l 1
111 80 m 1
 128 59 154 45 182 45 c 0
 231 45 273 87 273 136 c 2
 273 318 l 1
 273 323 l 1
 111 80 l 1
EndSplineSet
EndChar

StartChar: uacute
Encoding: 250 250 155
Width: 363
GlyphClass: 3
Flags: W
TeX: 636 0
LayerCount: 2
Fore
SplineSet
319 432 m 2
 319 23 l 2
 319 9 306 0 296 0 c 2
 159 0 l 2
 96 0 46 51 46 114 c 2
 46 432 l 2
 46 444 57 455 69 455 c 0
 81 455 91 444 91 432 c 2
 91 114 l 2
 91 75 120 46 159 46 c 2
 273 46 l 1
 273 432 l 2
 273 444 284 455 296 455 c 0
 308 455 319 444 319 432 c 2
136 568 m 0
 136 571 137 575 139 578 c 2
 161 624 l 2
 165 632 174 636 182 636 c 0
 196 636 204 625 204 614 c 0
 204 611 204 607 202 604 c 2
 179 558 l 2
 175 550 167 545 159 545 c 0
 145 545 136 557 136 568 c 0
EndSplineSet
Ligature2: "'ccmp' Glyph Composition/Decomposition in Latin lookup 52 subtable" u acutecomb
Ligature2: "'ccmp' Glyph Composition/Decomposition in Latin lookup 48 subtable" u acutecomb
EndChar

StartChar: udieresis
Encoding: 252 252 156
Width: 363
GlyphClass: 3
Flags: W
TeX: 637 0
LayerCount: 2
Fore
SplineSet
319 432 m 2
 319 23 l 2
 319 9 306 0 296 0 c 2
 159 0 l 2
 96 0 46 51 46 114 c 2
 46 432 l 2
 46 444 57 455 69 455 c 0
 81 455 91 444 91 432 c 2
 91 114 l 2
 91 75 120 46 159 46 c 2
 273 46 l 1
 273 432 l 2
 273 444 284 455 296 455 c 0
 308 455 319 444 319 432 c 2
226 614 m 0
 226 626 237 637 249 637 c 0
 261 637 272 626 272 614 c 0
 272 601 262 591 249 591 c 0
 236 591 226 601 226 614 c 0
90 614 m 0
 90 626 101 637 113 637 c 0
 125 637 136 626 136 614 c 0
 136 601 126 591 113 591 c 0
 100 591 90 601 90 614 c 0
EndSplineSet
Ligature2: "'ccmp' Glyph Composition/Decomposition in Latin lookup 49 subtable" u uni0308
Ligature2: "'ccmp' Glyph Composition/Decomposition in Latin lookup 48 subtable" u uni0308
EndChar

StartChar: yacute
Encoding: 253 253 157
Width: 363
GlyphClass: 3
Flags: W
TeX: 636 182
LayerCount: 2
Fore
SplineSet
45 -159 m 0
 45 -147 56 -136 68 -136 c 0
 107 -136 119 -120 129 -85 c 2
 159 22 l 1
 46 426 l 2
 46 428 45 430 45 432 c 0
 45 443 54 455 68 455 c 0
 78 455 87 448 90 438 c 2
 182 107 l 1
 274 438 l 2
 277 448 285 455 295 455 c 0
 309 455 318 443 318 432 c 0
 318 430 317 428 317 426 c 2
 173 -97 l 2
 161 -142 130 -182 68 -182 c 0
 56 -182 45 -171 45 -159 c 0
136 568 m 0
 136 571 137 575 139 578 c 2
 161 624 l 2
 165 632 174 636 182 636 c 0
 196 636 204 625 204 614 c 0
 204 611 204 607 202 604 c 2
 179 558 l 2
 175 550 167 545 159 545 c 0
 145 545 136 557 136 568 c 0
EndSplineSet
Ligature2: "'ccmp' Glyph Composition/Decomposition in Latin lookup 52 subtable" y acutecomb
EndChar

StartChar: Abreve
Encoding: 258 258 158
Width: 454
GlyphClass: 3
Flags: W
TeX: 772 0
LayerCount: 2
Fore
SplineSet
45 23 m 0
 45 25 46 27 46 29 c 2
 205 620 l 2
 208 630 217 636 227 636 c 1
 227 636 l 1
 228 636 l 2
 238 636 247 630 250 620 c 2
 408 29 l 2
 408 27 409 25 409 23 c 0
 409 12 400 0 386 0 c 0
 376 0 368 7 365 17 c 2
 320 182 l 1
 135 182 l 1
 90 17 l 2
 87 7 78 0 68 0 c 0
 54 0 45 12 45 23 c 0
147 227 m 1
 308 227 l 1
 227 528 l 1
 147 227 l 1
160 750 m 0
 160 779 205 780 205 750 c 0
 205 739 217 727 228 727 c 0
 239 727 251 739 251 750 c 0
 251 762 261 772 273 772 c 0
 285 772 296 762 296 750 c 0
 296 713 265 681 228 681 c 0
 192 681 160 713 160 750 c 0
EndSplineSet
Ligature2: "'ccmp' Glyph Composition/Decomposition in Latin lookup 51 subtable" A uni0306
EndChar

StartChar: abreve
Encoding: 259 259 159
Width: 409
GlyphClass: 3
Flags: W
TeX: 636 0
LayerCount: 2
Fore
SplineSet
45 136 m 2
 45 341 l 2
 45 404 96 455 159 455 c 2
 295 455 l 2
 309 455 318 442 318 432 c 2
 318 68 l 2
 318 56 329 45 341 45 c 0
 353 45 364 35 364 23 c 0
 364 11 353 0 341 0 c 0
 313 0 289 16 279 40 c 1
 254 15 220 0 181 0 c 0
 106 0 45 61 45 136 c 2
91 136 m 2
 91 86 132 45 182 45 c 0
 232 45 273 88 273 136 c 2
 273 409 l 1
 159 409 l 2
 121 409 91 379 91 341 c 2
 91 136 l 2
137 614 m 0
 137 643 182 644 182 614 c 0
 182 603 194 591 205 591 c 0
 216 591 228 603 228 614 c 0
 228 626 238 636 250 636 c 0
 262 636 273 626 273 614 c 0
 273 577 242 545 205 545 c 0
 169 545 137 577 137 614 c 0
EndSplineSet
Ligature2: "'ccmp' Glyph Composition/Decomposition in Latin lookup 51 subtable" a uni0306
EndChar

StartChar: Aogonek
Encoding: 260 260 160
Width: 454
GlyphClass: 3
Flags: W
TeX: 636 91
LayerCount: 2
Fore
SplineSet
45 23 m 0
 45 25 46 27 46 29 c 2
 205 620 l 2
 208 630 217 636 227 636 c 1
 227 636 l 1
 228 636 l 2
 238 636 247 630 250 620 c 2
 408 29 l 2
 408 27 409 25 409 23 c 0
 409 12 400 0 386 0 c 0
 376 0 368 7 365 17 c 2
 320 182 l 1
 135 182 l 1
 90 17 l 2
 87 7 78 0 68 0 c 0
 54 0 45 12 45 23 c 0
147 227 m 1
 308 227 l 1
 227 528 l 1
 147 227 l 1
410 -23 m 2
 410 -11 420 0 432 0 c 0
 444 0 455 -11 455 -23 c 2
 455 -68 l 2
 455 -80 444 -91 432 -91 c 0
 420 -91 410 -80 410 -68 c 2
 410 -23 l 2
EndSplineSet
Ligature2: "'ccmp' Glyph Composition/Decomposition in Latin lookup 50 subtable" A uni0328
EndChar

StartChar: aogonek
Encoding: 261 261 161
Width: 409
GlyphClass: 3
Flags: W
TeX: 455 91
LayerCount: 2
Fore
SplineSet
45 136 m 2
 45 341 l 2
 45 404 96 455 159 455 c 2
 295 455 l 2
 309 455 318 442 318 432 c 2
 318 68 l 2
 318 56 329 45 341 45 c 0
 353 45 364 35 364 23 c 0
 364 11 353 0 341 0 c 0
 313 0 289 16 279 40 c 1
 254 15 220 0 181 0 c 0
 106 0 45 61 45 136 c 2
91 136 m 2
 91 86 132 45 182 45 c 0
 232 45 273 88 273 136 c 2
 273 409 l 1
 159 409 l 2
 121 409 91 379 91 341 c 2
 91 136 l 2
364 -23 m 2
 364 -11 374 0 386 0 c 0
 398 0 409 -11 409 -23 c 2
 409 -68 l 2
 409 -80 398 -91 386 -91 c 0
 374 -91 364 -80 364 -68 c 2
 364 -23 l 2
EndSplineSet
Ligature2: "'ccmp' Glyph Composition/Decomposition in Latin lookup 50 subtable" a uni0328
EndChar

StartChar: Cacute
Encoding: 262 262 162
Width: 363
GlyphClass: 3
Flags: W
TeX: 772 0
LayerCount: 2
Fore
SplineSet
45 160 m 2
 45 477 l 2
 45 564 118 636 205 636 c 2
 295 636 l 2
 307 636 318 626 318 614 c 0
 318 602 307 591 295 591 c 2
 205 591 l 2
 143 591 91 539 91 477 c 2
 91 160 l 2
 91 98 143 45 205 45 c 2
 295 45 l 2
 307 45 318 35 318 23 c 0
 318 11 307 0 295 0 c 2
 205 0 l 2
 118 0 45 73 45 160 c 2
159 704 m 0
 159 707 160 711 162 714 c 2
 184 760 l 2
 188 768 197 772 205 772 c 0
 219 772 227 761 227 750 c 0
 227 747 227 743 225 740 c 2
 202 694 l 2
 198 686 190 681 182 681 c 0
 168 681 159 693 159 704 c 0
EndSplineSet
Ligature2: "'ccmp' Glyph Composition/Decomposition in Latin lookup 50 subtable" C acutecomb
EndChar

StartChar: cacute
Encoding: 263 263 163
Width: 318
GlyphClass: 3
Flags: W
TeX: 636 0
LayerCount: 2
Fore
SplineSet
45 114 m 2
 45 341 l 2
 45 404 95 455 159 455 c 2
 250 455 l 2
 262 455 273 444 273 432 c 0
 273 420 262 409 250 409 c 2
 159 409 l 2
 121 409 91 379 91 341 c 2
 91 114 l 2
 91 75 121 45 159 45 c 2
 250 45 l 2
 262 45 273 35 273 23 c 0
 273 11 262 0 250 0 c 2
 159 0 l 2
 96 0 45 49 45 114 c 2
136 568 m 0
 136 571 137 575 139 578 c 2
 161 624 l 2
 165 632 174 636 182 636 c 0
 196 636 204 625 204 614 c 0
 204 611 204 607 202 604 c 2
 179 558 l 2
 175 550 167 545 159 545 c 0
 145 545 136 557 136 568 c 0
EndSplineSet
Ligature2: "'ccmp' Glyph Composition/Decomposition in Latin lookup 50 subtable" c acutecomb
EndChar

StartChar: Ccaron
Encoding: 268 268 164
Width: 363
GlyphClass: 3
Flags: W
TeX: 772 0
LayerCount: 2
Fore
SplineSet
45 160 m 2
 45 477 l 2
 45 564 118 636 205 636 c 2
 295 636 l 2
 307 636 318 626 318 614 c 0
 318 602 307 591 295 591 c 2
 205 591 l 2
 143 591 91 539 91 477 c 2
 91 160 l 2
 91 98 143 45 205 45 c 2
 295 45 l 2
 307 45 318 35 318 23 c 0
 318 11 307 0 295 0 c 2
 205 0 l 2
 118 0 45 73 45 160 c 2
137 750 m 0
 137 762 148 772 160 772 c 0
 166 772 170 771 175 766 c 2
 205 736 l 1
 235 766 l 2
 240 771 244 772 250 772 c 0
 262 772 273 762 273 750 c 0
 273 744 271 739 266 734 c 2
 221 688 l 2
 217 684 211 682 205 682 c 0
 200 682 194 683 189 688 c 2
 144 734 l 2
 139 739 137 744 137 750 c 0
EndSplineSet
Ligature2: "'ccmp' Glyph Composition/Decomposition in Latin lookup 52 subtable" C uni030C
EndChar

StartChar: ccaron
Encoding: 269 269 165
Width: 318
GlyphClass: 3
Flags: W
TeX: 636 0
LayerCount: 2
Fore
SplineSet
45 114 m 2
 45 341 l 2
 45 404 95 455 159 455 c 2
 250 455 l 2
 262 455 273 444 273 432 c 0
 273 420 262 409 250 409 c 2
 159 409 l 2
 121 409 91 379 91 341 c 2
 91 114 l 2
 91 75 121 45 159 45 c 2
 250 45 l 2
 262 45 273 35 273 23 c 0
 273 11 262 0 250 0 c 2
 159 0 l 2
 96 0 45 49 45 114 c 2
114 614 m 0
 114 626 125 636 137 636 c 0
 143 636 147 635 152 630 c 2
 182 600 l 1
 212 630 l 2
 217 635 221 636 227 636 c 0
 239 636 250 626 250 614 c 0
 250 608 248 603 243 598 c 2
 198 552 l 2
 194 548 188 546 182 546 c 0
 177 546 171 547 166 552 c 2
 121 598 l 2
 116 603 114 608 114 614 c 0
EndSplineSet
Ligature2: "'ccmp' Glyph Composition/Decomposition in Latin lookup 52 subtable" c uni030C
EndChar

StartChar: Dcaron
Encoding: 270 270 166
Width: 409
GlyphClass: 3
Flags: W
TeX: 772 0
LayerCount: 2
Fore
SplineSet
45 23 m 2
 45 614 l 2
 45 628 58 636 68 636 c 2
 205 636 l 2
 292 636 364 564 364 477 c 2
 364 160 l 2
 364 73 292 0 205 0 c 2
 68 0 l 2
 54 0 45 13 45 23 c 2
91 45 m 1
 205 45 l 2
 267 45 318 98 318 160 c 2
 318 477 l 2
 318 539 267 591 205 591 c 2
 91 591 l 1
 91 45 l 1
114 750 m 0
 114 762 125 772 137 772 c 0
 143 772 147 771 152 766 c 2
 182 736 l 1
 212 766 l 2
 217 771 221 772 227 772 c 0
 239 772 250 762 250 750 c 0
 250 744 248 739 243 734 c 2
 198 688 l 2
 194 684 188 682 182 682 c 0
 177 682 171 683 166 688 c 2
 121 734 l 2
 116 739 114 744 114 750 c 0
EndSplineSet
Ligature2: "'ccmp' Glyph Composition/Decomposition in Latin lookup 52 subtable" D uni030C
EndChar

StartChar: dcaron
Encoding: 271 271 167
Width: 454
GlyphClass: 3
Flags: W
TeX: 636 0
LayerCount: 2
Fore
SplineSet
45 114 m 2
 45 341 l 2
 45 404 95 455 159 455 c 2
 273 455 l 1
 273 614 l 2
 273 626 283 636 295 636 c 0
 307 636 318 626 318 614 c 2
 318 23 l 2
 318 13 309 0 295 0 c 2
 159 0 l 2
 94 0 45 49 45 114 c 2
91 114 m 2
 91 73 118 45 159 45 c 2
 273 45 l 1
 273 409 l 1
 159 409 l 2
 121 409 91 379 91 341 c 2
 91 114 l 2
363 568 m 2
 363 614 l 2
 363 626 374 636 386 636 c 0
 398 636 409 626 409 614 c 2
 409 568 l 2
 409 556 398 545 386 545 c 0
 374 545 363 556 363 568 c 2
EndSplineSet
Ligature2: "'ccmp' Glyph Composition/Decomposition in Latin lookup 52 subtable" d uni0315
Ligature2: "'ccmp' Glyph Composition/Decomposition in Latin lookup 52 subtable" d uni030C
EndChar

StartChar: Eogonek
Encoding: 280 280 168
Width: 363
GlyphClass: 3
Flags: W
TeX: 636 91
LayerCount: 2
Fore
SplineSet
45 23 m 2
 45 614 l 2
 45 624 54 636 68 636 c 2
 295 636 l 2
 307 636 318 626 318 614 c 0
 318 602 307 591 295 591 c 2
 91 591 l 1
 91 364 l 1
 205 364 l 2
 217 364 227 353 227 341 c 0
 227 329 217 318 205 318 c 2
 91 318 l 1
 91 45 l 1
 295 45 l 2
 307 45 318 35 318 23 c 0
 318 11 307 0 295 0 c 2
 68 0 l 2
 58 0 45 9 45 23 c 2
319 -23 m 2
 319 -11 329 0 341 0 c 0
 353 0 364 -11 364 -23 c 2
 364 -68 l 2
 364 -80 353 -91 341 -91 c 0
 329 -91 319 -80 319 -68 c 2
 319 -23 l 2
EndSplineSet
Ligature2: "'ccmp' Glyph Composition/Decomposition in Latin lookup 50 subtable" E uni0328
EndChar

StartChar: eogonek
Encoding: 281 281 169
Width: 363
GlyphClass: 3
Flags: W
TeX: 455 91
LayerCount: 2
Fore
SplineSet
45 114 m 2
 45 318 l 2
 45 393 107 455 182 455 c 0
 257 455 318 393 318 318 c 2
 318 227 l 2
 318 213 305 205 295 205 c 2
 91 205 l 1
 91 114 l 2
 91 76 121 45 159 45 c 2
 295 45 l 2
 307 45 318 35 318 23 c 0
 318 11 307 0 295 0 c 2
 159 0 l 2
 96 0 45 51 45 114 c 2
91 250 m 1
 273 250 l 1
 273 318 l 2
 273 368 232 409 182 409 c 0
 132 409 91 368 91 318 c 2
 91 250 l 1
319 -23 m 2
 319 -11 329 0 341 0 c 0
 353 0 364 -11 364 -23 c 2
 364 -68 l 2
 364 -80 353 -91 341 -91 c 0
 329 -91 319 -80 319 -68 c 2
 319 -23 l 2
EndSplineSet
Ligature2: "'ccmp' Glyph Composition/Decomposition in Latin lookup 50 subtable" e uni0328
EndChar

StartChar: Ecaron
Encoding: 282 282 170
Width: 363
GlyphClass: 3
Flags: W
TeX: 772 0
LayerCount: 2
Fore
SplineSet
45 23 m 2
 45 614 l 2
 45 624 54 636 68 636 c 2
 295 636 l 2
 307 636 318 626 318 614 c 0
 318 602 307 591 295 591 c 2
 91 591 l 1
 91 364 l 1
 205 364 l 2
 217 364 227 353 227 341 c 0
 227 329 217 318 205 318 c 2
 91 318 l 1
 91 45 l 1
 295 45 l 2
 307 45 318 35 318 23 c 0
 318 11 307 0 295 0 c 2
 68 0 l 2
 58 0 45 9 45 23 c 2
114 750 m 0
 114 762 125 772 137 772 c 0
 143 772 147 771 152 766 c 2
 182 736 l 1
 212 766 l 2
 217 771 221 772 227 772 c 0
 239 772 250 762 250 750 c 0
 250 744 248 739 243 734 c 2
 198 688 l 2
 194 684 188 682 182 682 c 0
 177 682 171 683 166 688 c 2
 121 734 l 2
 116 739 114 744 114 750 c 0
EndSplineSet
Ligature2: "'ccmp' Glyph Composition/Decomposition in Latin lookup 52 subtable" E uni030C
EndChar

StartChar: ecaron
Encoding: 283 283 171
Width: 363
GlyphClass: 3
Flags: W
TeX: 636 0
LayerCount: 2
Fore
SplineSet
45 114 m 2
 45 318 l 2
 45 393 107 455 182 455 c 0
 257 455 318 393 318 318 c 2
 318 227 l 2
 318 213 305 205 295 205 c 2
 91 205 l 1
 91 114 l 2
 91 76 121 45 159 45 c 2
 295 45 l 2
 307 45 318 35 318 23 c 0
 318 11 307 0 295 0 c 2
 159 0 l 2
 96 0 45 51 45 114 c 2
91 250 m 1
 273 250 l 1
 273 318 l 2
 273 368 232 409 182 409 c 0
 132 409 91 368 91 318 c 2
 91 250 l 1
114 614 m 0
 114 626 125 636 137 636 c 0
 143 636 147 635 152 630 c 2
 182 600 l 1
 212 630 l 2
 217 635 221 636 227 636 c 0
 239 636 250 626 250 614 c 0
 250 608 248 603 243 598 c 2
 198 552 l 2
 194 548 188 546 182 546 c 0
 177 546 171 547 166 552 c 2
 121 598 l 2
 116 603 114 608 114 614 c 0
EndSplineSet
Ligature2: "'ccmp' Glyph Composition/Decomposition in Latin lookup 52 subtable" e uni030C
EndChar

StartChar: dotlessi
Encoding: 305 305 172
Width: 136
GlyphClass: 2
Flags: W
TeX: 455 0
AnchorPoint: "Anchor-1" 68 614 basechar 0
LayerCount: 2
Fore
SplineSet
45 23 m 2
 45 432 l 2
 45 444 56 455 68 455 c 0
 80 455 91 444 91 432 c 2
 91 23 l 2
 91 11 80 0 68 0 c 0
 56 0 45 11 45 23 c 2
EndSplineSet
EndChar

StartChar: Lacute
Encoding: 313 313 173
Width: 318
GlyphClass: 3
Flags: W
TeX: 772 0
LayerCount: 2
Fore
SplineSet
45 23 m 2
 45 614 l 2
 45 626 56 636 68 636 c 0
 80 636 91 626 91 614 c 2
 91 45 l 1
 250 45 l 2
 262 45 273 35 273 23 c 0
 273 11 262 0 250 0 c 2
 68 0 l 2
 54 0 45 13 45 23 c 2
22 704 m 0
 22 707 23 711 25 714 c 2
 47 760 l 2
 51 768 60 772 68 772 c 0
 82 772 90 761 90 750 c 0
 90 747 90 743 88 740 c 2
 65 694 l 2
 61 686 53 681 45 681 c 0
 31 681 22 693 22 704 c 0
EndSplineSet
Ligature2: "'ccmp' Glyph Composition/Decomposition in Latin lookup 52 subtable" L acutecomb
EndChar

StartChar: lacute
Encoding: 314 314 174
Width: 227
GlyphClass: 3
Flags: W
TeX: 772 0
LayerCount: 2
Fore
SplineSet
45 91 m 2
 45 614 l 2
 45 626 56 636 68 636 c 0
 80 636 91 626 91 614 c 2
 91 91 l 2
 91 66 111 45 136 45 c 2
 159 45 l 2
 171 45 182 35 182 23 c 0
 182 11 171 0 159 0 c 2
 136 0 l 2
 86 0 45 41 45 91 c 2
22 704 m 0
 22 707 23 711 25 714 c 2
 47 760 l 2
 51 768 60 772 68 772 c 0
 82 772 90 761 90 750 c 0
 90 747 90 743 88 740 c 2
 65 694 l 2
 61 686 53 681 45 681 c 0
 31 681 22 693 22 704 c 0
EndSplineSet
Ligature2: "'ccmp' Glyph Composition/Decomposition in Latin lookup 52 subtable" l acutecomb
EndChar

StartChar: Lcaron
Encoding: 317 317 175
Width: 318
GlyphClass: 3
Flags: W
TeX: 636 0
LayerCount: 2
Fore
SplineSet
45 23 m 2
 45 614 l 2
 45 626 56 636 68 636 c 0
 80 636 91 626 91 614 c 2
 91 45 l 1
 250 45 l 2
 262 45 273 35 273 23 c 0
 273 11 262 0 250 0 c 2
 68 0 l 2
 54 0 45 13 45 23 c 2
136 568 m 2
 136 614 l 2
 136 626 147 636 159 636 c 0
 171 636 182 626 182 614 c 2
 182 568 l 2
 182 556 171 545 159 545 c 0
 147 545 136 556 136 568 c 2
EndSplineSet
Ligature2: "'ccmp' Glyph Composition/Decomposition in Latin lookup 52 subtable" L uni0315
Ligature2: "'ccmp' Glyph Composition/Decomposition in Latin lookup 52 subtable" L uni030C
EndChar

StartChar: lcaron
Encoding: 318 318 176
Width: 227
GlyphClass: 3
Flags: W
TeX: 636 0
LayerCount: 2
Fore
SplineSet
45 91 m 2
 45 614 l 2
 45 626 56 636 68 636 c 0
 80 636 91 626 91 614 c 2
 91 91 l 2
 91 66 111 45 136 45 c 2
 159 45 l 2
 171 45 182 35 182 23 c 0
 182 11 171 0 159 0 c 2
 136 0 l 2
 86 0 45 41 45 91 c 2
136 568 m 2
 136 614 l 2
 136 626 147 636 159 636 c 0
 171 636 182 626 182 614 c 2
 182 568 l 2
 182 556 171 545 159 545 c 0
 147 545 136 556 136 568 c 2
EndSplineSet
Ligature2: "'ccmp' Glyph Composition/Decomposition in Latin lookup 52 subtable" l uni0315
Ligature2: "'ccmp' Glyph Composition/Decomposition in Latin lookup 52 subtable" l uni030C
EndChar

StartChar: Lslash
Encoding: 321 321 177
Width: 363
GlyphClass: 2
Flags: W
TeX: 636 0
LayerCount: 2
Fore
SplineSet
45 341 m 0
 45 347 47 352 52 357 c 2
 91 396 l 1
 91 614 l 2
 91 626 102 636 114 636 c 0
 126 636 136 626 136 614 c 2
 136 441 l 1
 142 447 149 455 159 455 c 0
 171 455 182 444 182 432 c 0
 182 426 180 421 175 416 c 2
 136 377 l 1
 136 45 l 1
 295 45 l 2
 307 45 318 35 318 23 c 0
 318 11 307 0 295 0 c 2
 114 0 l 2
 100 0 91 13 91 23 c 2
 91 331 l 1
 85 325 78 318 68 318 c 0
 56 318 45 329 45 341 c 0
EndSplineSet
EndChar

StartChar: lslash
Encoding: 322 322 178
Width: 272
GlyphClass: 2
Flags: W
TeX: 636 0
LayerCount: 2
Fore
SplineSet
45 341 m 0
 45 347 47 352 52 357 c 2
 91 396 l 1
 91 614 l 2
 91 626 102 636 114 636 c 0
 126 636 136 626 136 614 c 2
 136 441 l 1
 142 447 149 455 159 455 c 0
 171 455 182 444 182 432 c 0
 182 426 180 421 175 416 c 2
 136 377 l 1
 136 91 l 2
 136 66 157 45 182 45 c 2
 205 45 l 2
 217 45 227 35 227 23 c 0
 227 11 217 0 205 0 c 2
 182 0 l 2
 132 0 91 41 91 91 c 2
 91 331 l 1
 85 325 78 318 68 318 c 0
 56 318 45 329 45 341 c 0
EndSplineSet
EndChar

StartChar: Nacute
Encoding: 323 323 179
Width: 409
GlyphClass: 3
Flags: W
TeX: 772 0
LayerCount: 2
Fore
SplineSet
45 23 m 2
 45 614 l 2
 45 626 55 636 68 636 c 0
 78 636 85 631 89 623 c 2
 318 125 l 1
 318 614 l 2
 318 626 329 636 341 636 c 0
 353 636 364 626 364 614 c 2
 364 23 l 2
 364 11 354 0 341 0 c 0
 331 0 324 5 320 13 c 2
 91 511 l 1
 91 23 l 2
 91 11 80 0 68 0 c 0
 56 0 45 11 45 23 c 2
159 704 m 0
 159 707 160 711 162 714 c 2
 184 760 l 2
 188 768 197 772 205 772 c 0
 219 772 227 761 227 750 c 0
 227 747 227 743 225 740 c 2
 202 694 l 2
 198 686 190 681 182 681 c 0
 168 681 159 693 159 704 c 0
EndSplineSet
Ligature2: "'ccmp' Glyph Composition/Decomposition in Latin lookup 50 subtable" N acutecomb
EndChar

StartChar: nacute
Encoding: 324 324 180
Width: 363
GlyphClass: 3
Flags: W
TeX: 636 0
LayerCount: 2
Fore
SplineSet
45 23 m 2
 45 432 l 2
 45 446 58 455 68 455 c 2
 205 455 l 2
 268 455 318 404 318 341 c 2
 318 23 l 2
 318 11 307 0 295 0 c 0
 283 0 273 11 273 23 c 2
 273 341 l 2
 273 380 244 409 205 409 c 2
 91 409 l 1
 91 23 l 2
 91 11 80 0 68 0 c 0
 56 0 45 11 45 23 c 2
136 568 m 0
 136 571 137 575 139 578 c 2
 161 624 l 2
 165 632 174 636 182 636 c 0
 196 636 204 625 204 614 c 0
 204 611 204 607 202 604 c 2
 179 558 l 2
 175 550 167 545 159 545 c 0
 145 545 136 557 136 568 c 0
EndSplineSet
Ligature2: "'ccmp' Glyph Composition/Decomposition in Latin lookup 50 subtable" n acutecomb
EndChar

StartChar: Ncaron
Encoding: 327 327 181
Width: 409
GlyphClass: 3
Flags: W
TeX: 772 0
LayerCount: 2
Fore
SplineSet
45 23 m 2
 45 614 l 2
 45 626 55 636 68 636 c 0
 78 636 85 631 89 623 c 2
 318 125 l 1
 318 614 l 2
 318 626 329 636 341 636 c 0
 353 636 364 626 364 614 c 2
 364 23 l 2
 364 11 354 0 341 0 c 0
 331 0 324 5 320 13 c 2
 91 511 l 1
 91 23 l 2
 91 11 80 0 68 0 c 0
 56 0 45 11 45 23 c 2
137 750 m 0
 137 762 148 772 160 772 c 0
 166 772 170 771 175 766 c 2
 205 736 l 1
 235 766 l 2
 240 771 244 772 250 772 c 0
 262 772 273 762 273 750 c 0
 273 744 271 739 266 734 c 2
 221 688 l 2
 217 684 211 682 205 682 c 0
 200 682 194 683 189 688 c 2
 144 734 l 2
 139 739 137 744 137 750 c 0
EndSplineSet
Ligature2: "'ccmp' Glyph Composition/Decomposition in Latin lookup 52 subtable" N uni030C
EndChar

StartChar: ncaron
Encoding: 328 328 182
Width: 363
GlyphClass: 3
Flags: W
TeX: 636 0
LayerCount: 2
Fore
SplineSet
45 23 m 2
 45 432 l 2
 45 446 58 455 68 455 c 2
 205 455 l 2
 268 455 318 404 318 341 c 2
 318 23 l 2
 318 11 307 0 295 0 c 0
 283 0 273 11 273 23 c 2
 273 341 l 2
 273 380 244 409 205 409 c 2
 91 409 l 1
 91 23 l 2
 91 11 80 0 68 0 c 0
 56 0 45 11 45 23 c 2
114 614 m 0
 114 626 125 636 137 636 c 0
 143 636 147 635 152 630 c 2
 182 600 l 1
 212 630 l 2
 217 635 221 636 227 636 c 0
 239 636 250 626 250 614 c 0
 250 608 248 603 243 598 c 2
 198 552 l 2
 194 548 188 546 182 546 c 0
 177 546 171 547 166 552 c 2
 121 598 l 2
 116 603 114 608 114 614 c 0
EndSplineSet
Ligature2: "'ccmp' Glyph Composition/Decomposition in Latin lookup 52 subtable" n uni030C
EndChar

StartChar: Ohungarumlaut
Encoding: 336 336 183
Width: 409
GlyphClass: 3
Flags: W
TeX: 772 0
LayerCount: 2
Fore
SplineSet
45 159 m 2
 45 477 l 2
 45 564 118 636 205 636 c 0
 292 636 364 564 364 477 c 2
 364 159 l 2
 364 72 292 0 205 0 c 0
 118 0 45 72 45 159 c 2
91 159 m 2
 91 97 143 45 205 45 c 0
 267 45 318 97 318 159 c 2
 318 477 l 2
 318 539 267 591 205 591 c 0
 143 591 91 539 91 477 c 2
 91 159 l 2
113 704 m 0
 113 707 114 711 116 714 c 2
 138 760 l 2
 142 768 151 772 159 772 c 0
 173 772 181 761 181 750 c 0
 181 747 181 743 179 740 c 2
 156 694 l 2
 152 686 144 681 136 681 c 0
 122 681 113 693 113 704 c 0
249 704 m 0
 249 707 250 711 252 714 c 2
 274 760 l 2
 278 768 287 772 295 772 c 0
 309 772 317 761 317 750 c 0
 317 747 317 743 315 740 c 2
 292 694 l 2
 288 686 280 681 272 681 c 0
 258 681 249 693 249 704 c 0
EndSplineSet
Ligature2: "'ccmp' Glyph Composition/Decomposition in Latin lookup 48 subtable" O uni030B
EndChar

StartChar: ohungarumlaut
Encoding: 337 337 184
Width: 363
GlyphClass: 3
Flags: W
TeX: 636 0
LayerCount: 2
Fore
SplineSet
45 136 m 2
 45 318 l 2
 45 393 107 455 182 455 c 0
 257 455 318 393 318 318 c 2
 318 136 l 2
 318 61 257 0 182 0 c 0
 107 0 45 62 45 136 c 2
91 136 m 2
 91 88 133 45 182 45 c 0
 231 45 273 87 273 136 c 2
 273 318 l 2
 273 367 231 409 182 409 c 0
 133 409 91 367 91 318 c 2
 91 136 l 2
90 568 m 0
 90 571 91 575 93 578 c 2
 115 624 l 2
 119 632 128 636 136 636 c 0
 150 636 158 625 158 614 c 0
 158 611 158 607 156 604 c 2
 133 558 l 2
 129 550 121 545 113 545 c 0
 99 545 90 557 90 568 c 0
226 568 m 0
 226 571 227 575 229 578 c 2
 251 624 l 2
 255 632 264 636 272 636 c 0
 286 636 294 625 294 614 c 0
 294 611 294 607 292 604 c 2
 269 558 l 2
 265 550 257 545 249 545 c 0
 235 545 226 557 226 568 c 0
EndSplineSet
Ligature2: "'ccmp' Glyph Composition/Decomposition in Latin lookup 48 subtable" o uni030B
EndChar

StartChar: OE
Encoding: 338 338 185
Width: 636
GlyphClass: 2
Flags: W
TeX: 636 0
LayerCount: 2
Fore
SplineSet
45 159 m 2
 45 477 l 2
 45 564 118 636 205 636 c 2
 568 636 l 2
 580 636 591 626 591 614 c 0
 591 602 580 591 568 591 c 2
 364 591 l 1
 364 364 l 1
 471 364 l 2
 473 364 476 365 478 365 c 0
 491 365 500 354 500 341 c 0
 500 331 491 318 477 318 c 2
 364 318 l 1
 364 45 l 1
 568 45 l 2
 580 45 591 35 591 23 c 0
 591 11 580 0 568 0 c 2
 341 0 l 1
 205 0 l 2
 118 0 45 72 45 159 c 2
91 159 m 2
 91 97 143 45 205 45 c 2
 318 45 l 1
 318 591 l 1
 205 591 l 2
 143 591 91 539 91 477 c 2
 91 159 l 2
EndSplineSet
EndChar

StartChar: oe
Encoding: 339 339 186
Width: 590
GlyphClass: 2
Flags: W
TeX: 455 0
LayerCount: 2
Fore
SplineSet
45 136 m 2
 45 318 l 2
 45 393 107 455 182 455 c 0
 222 455 259 437 284 408 c 1
 299 436 330 455 364 455 c 2
 455 455 l 2
 505 455 545 414 545 364 c 2
 545 227 l 2
 545 217 537 205 523 205 c 2
 318 205 l 1
 318 92 l 1
 318 91 l 1
 318 91 l 1
 318 66 339 45 364 45 c 2
 523 45 l 2
 535 45 545 35 545 23 c 0
 545 11 535 0 523 0 c 2
 364 0 l 2
 330 0 299 19 284 47 c 1
 259 18 222 0 182 0 c 0
 107 0 45 62 45 136 c 2
91 136 m 2
 91 88 133 45 182 45 c 0
 231 45 273 87 273 136 c 2
 273 260 l 1
 273 321 l 2
 273 369 230 409 182 409 c 0
 133 409 91 367 91 318 c 2
 91 136 l 2
318 250 m 1
 500 250 l 1
 500 364 l 2
 500 389 480 409 455 409 c 2
 364 409 l 2
 339 409 318 389 318 364 c 1
 318 364 l 1
 318 362 l 1
 318 322 l 1
 318 319 l 1
 318 317 l 1
 318 250 l 1
EndSplineSet
EndChar

StartChar: Racute
Encoding: 340 340 187
Width: 409
GlyphClass: 3
Flags: W
TeX: 772 0
LayerCount: 2
Fore
SplineSet
45 23 m 2
 45 614 l 2
 45 624 54 636 68 636 c 2
 182 636 l 2
 284 636 364 558 364 455 c 0
 364 366 304 293 219 276 c 1
 360 34 l 2
 362 30 364 27 364 23 c 0
 364 12 354 0 341 0 c 0
 333 0 325 4 321 11 c 2
 169 273 l 1
 91 273 l 1
 91 23 l 2
 91 11 80 0 68 0 c 0
 56 0 45 11 45 23 c 2
91 318 m 1
 182 318 l 2
 261 318 318 378 318 455 c 0
 318 533 259 591 182 591 c 2
 91 591 l 1
 91 318 l 1
136 704 m 0
 136 707 137 711 139 714 c 2
 161 760 l 2
 165 768 174 772 182 772 c 0
 196 772 204 761 204 750 c 0
 204 747 204 743 202 740 c 2
 179 694 l 2
 175 686 167 681 159 681 c 0
 145 681 136 693 136 704 c 0
EndSplineSet
Ligature2: "'ccmp' Glyph Composition/Decomposition in Latin lookup 52 subtable" R acutecomb
EndChar

StartChar: racute
Encoding: 341 341 188
Width: 318
GlyphClass: 3
Flags: W
TeX: 636 0
LayerCount: 2
Fore
SplineSet
45 23 m 2
 45 432 l 2
 45 446 58 455 68 455 c 2
 182 455 l 2
 233 455 273 414 273 364 c 0
 273 352 262 341 250 341 c 0
 238 341 227 352 227 364 c 0
 227 389 208 409 182 409 c 2
 91 409 l 1
 91 23 l 2
 91 11 80 0 68 0 c 0
 56 0 45 11 45 23 c 2
113 568 m 0
 113 571 114 575 116 578 c 2
 138 624 l 2
 142 632 151 636 159 636 c 0
 173 636 181 625 181 614 c 0
 181 611 181 607 179 604 c 2
 156 558 l 2
 152 550 144 545 136 545 c 0
 122 545 113 557 113 568 c 0
EndSplineSet
Ligature2: "'ccmp' Glyph Composition/Decomposition in Latin lookup 52 subtable" r acutecomb
EndChar

StartChar: Rcaron
Encoding: 344 344 189
Width: 409
GlyphClass: 3
Flags: W
TeX: 772 0
LayerCount: 2
Fore
SplineSet
45 23 m 2
 45 614 l 2
 45 624 54 636 68 636 c 2
 182 636 l 2
 284 636 364 558 364 455 c 0
 364 366 304 293 219 276 c 1
 360 34 l 2
 362 30 364 27 364 23 c 0
 364 12 354 0 341 0 c 0
 333 0 325 4 321 11 c 2
 169 273 l 1
 91 273 l 1
 91 23 l 2
 91 11 80 0 68 0 c 0
 56 0 45 11 45 23 c 2
91 318 m 1
 182 318 l 2
 261 318 318 378 318 455 c 0
 318 533 259 591 182 591 c 2
 91 591 l 1
 91 318 l 1
114 750 m 0
 114 762 125 772 137 772 c 0
 143 772 147 771 152 766 c 2
 182 736 l 1
 212 766 l 2
 217 771 221 772 227 772 c 0
 239 772 250 762 250 750 c 0
 250 744 248 739 243 734 c 2
 198 688 l 2
 194 684 188 682 182 682 c 0
 177 682 171 683 166 688 c 2
 121 734 l 2
 116 739 114 744 114 750 c 0
EndSplineSet
Ligature2: "'ccmp' Glyph Composition/Decomposition in Latin lookup 52 subtable" R uni030C
EndChar

StartChar: rcaron
Encoding: 345 345 190
Width: 318
GlyphClass: 3
Flags: W
TeX: 636 0
LayerCount: 2
Fore
SplineSet
45 23 m 2
 45 432 l 2
 45 446 58 455 68 455 c 2
 182 455 l 2
 233 455 273 414 273 364 c 0
 273 352 262 341 250 341 c 0
 238 341 227 352 227 364 c 0
 227 389 208 409 182 409 c 2
 91 409 l 1
 91 23 l 2
 91 11 80 0 68 0 c 0
 56 0 45 11 45 23 c 2
91 614 m 0
 91 626 102 636 114 636 c 0
 120 636 124 635 129 630 c 2
 159 600 l 1
 189 630 l 2
 194 635 198 636 204 636 c 0
 216 636 227 626 227 614 c 0
 227 608 225 603 220 598 c 2
 175 552 l 2
 171 548 165 546 159 546 c 0
 154 546 148 547 143 552 c 2
 98 598 l 2
 93 603 91 608 91 614 c 0
EndSplineSet
Ligature2: "'ccmp' Glyph Composition/Decomposition in Latin lookup 52 subtable" r uni030C
EndChar

StartChar: Sacute
Encoding: 346 346 191
Width: 409
GlyphClass: 3
Flags: W
TeX: 772 0
LayerCount: 2
Fore
SplineSet
45 68 m 0
 45 81 56 91 68 91 c 0
 73 91 78 89 82 86 c 0
 117 59 158 45 205 45 c 0
 275 45 318 77 318 128 c 0
 318 161 307 187 284 211 c 2
 86 416 l 2
 60 443 45 475 45 510 c 0
 45 595 126 636 205 636 c 0
 261 636 312 620 355 586 c 0
 361 581 364 575 364 568 c 0
 364 555 353 545 341 545 c 0
 336 545 331 547 327 550 c 0
 292 577 252 591 205 591 c 0
 137 591 91 558 91 510 c 0
 91 488 99 468 119 448 c 2
 317 243 l 2
 347 211 364 172 364 128 c 0
 364 42 285 0 205 0 c 0
 149 0 98 16 54 50 c 0
 48 55 45 61 45 68 c 0
159 704 m 0
 159 707 160 711 162 714 c 2
 184 760 l 2
 188 768 197 772 205 772 c 0
 219 772 227 761 227 750 c 0
 227 747 227 743 225 740 c 2
 202 694 l 2
 198 686 190 681 182 681 c 0
 168 681 159 693 159 704 c 0
EndSplineSet
Ligature2: "'ccmp' Glyph Composition/Decomposition in Latin lookup 50 subtable" S acutecomb
EndChar

StartChar: sacute
Encoding: 347 347 192
Width: 363
GlyphClass: 3
Flags: W
TeX: 636 0
LayerCount: 2
Fore
SplineSet
45 57 m 0
 45 70 56 80 68 80 c 0
 73 80 78 78 82 75 c 0
 108 55 140 45 182 45 c 0
 233 45 273 72 273 102 c 0
 273 127 266 141 255 149 c 2
 81 277 l 2
 57 295 45 322 45 352 c 0
 45 428 116 455 182 455 c 0
 230 455 274 442 309 416 c 0
 315 411 318 405 318 398 c 0
 318 385 307 375 295 375 c 0
 290 375 286 377 282 380 c 0
 256 400 223 409 182 409 c 0
 122 409 91 389 91 352 c 0
 91 332 96 323 108 314 c 2
 282 185 l 2
 307 166 318 136 318 102 c 0
 318 30 241 0 182 0 c 0
 133 0 90 13 55 39 c 0
 49 44 45 50 45 57 c 0
136 568 m 0
 136 571 137 575 139 578 c 2
 161 624 l 2
 165 632 174 636 182 636 c 0
 196 636 204 625 204 614 c 0
 204 611 204 607 202 604 c 2
 179 558 l 2
 175 550 167 545 159 545 c 0
 145 545 136 557 136 568 c 0
EndSplineSet
Ligature2: "'ccmp' Glyph Composition/Decomposition in Latin lookup 50 subtable" s acutecomb
EndChar

StartChar: Scaron
Encoding: 352 352 193
Width: 409
GlyphClass: 3
Flags: W
TeX: 772 0
LayerCount: 2
Fore
SplineSet
45 68 m 0
 45 81 56 91 68 91 c 0
 73 91 78 89 82 86 c 0
 117 59 158 45 205 45 c 0
 275 45 318 77 318 128 c 0
 318 161 307 187 284 211 c 2
 86 416 l 2
 60 443 45 475 45 510 c 0
 45 595 126 636 205 636 c 0
 261 636 312 620 355 586 c 0
 361 581 364 575 364 568 c 0
 364 555 353 545 341 545 c 0
 336 545 331 547 327 550 c 0
 292 577 252 591 205 591 c 0
 137 591 91 558 91 510 c 0
 91 488 99 468 119 448 c 2
 317 243 l 2
 347 211 364 172 364 128 c 0
 364 42 285 0 205 0 c 0
 149 0 98 16 54 50 c 0
 48 55 45 61 45 68 c 0
137 750 m 0
 137 762 148 772 160 772 c 0
 166 772 170 771 175 766 c 2
 205 736 l 1
 235 766 l 2
 240 771 244 772 250 772 c 0
 262 772 273 762 273 750 c 0
 273 744 271 739 266 734 c 2
 221 688 l 2
 217 684 211 682 205 682 c 0
 200 682 194 683 189 688 c 2
 144 734 l 2
 139 739 137 744 137 750 c 0
EndSplineSet
Ligature2: "'ccmp' Glyph Composition/Decomposition in Latin lookup 52 subtable" S uni030C
EndChar

StartChar: scaron
Encoding: 353 353 194
Width: 363
GlyphClass: 3
Flags: W
TeX: 636 0
LayerCount: 2
Fore
SplineSet
45 57 m 0
 45 70 56 80 68 80 c 0
 73 80 78 78 82 75 c 0
 108 55 140 45 182 45 c 0
 233 45 273 72 273 102 c 0
 273 127 266 141 255 149 c 2
 81 277 l 2
 57 295 45 322 45 352 c 0
 45 428 116 455 182 455 c 0
 230 455 274 442 309 416 c 0
 315 411 318 405 318 398 c 0
 318 385 307 375 295 375 c 0
 290 375 286 377 282 380 c 0
 256 400 223 409 182 409 c 0
 122 409 91 389 91 352 c 0
 91 332 96 323 108 314 c 2
 282 185 l 2
 307 166 318 136 318 102 c 0
 318 30 241 0 182 0 c 0
 133 0 90 13 55 39 c 0
 49 44 45 50 45 57 c 0
114 614 m 0
 114 626 125 636 137 636 c 0
 143 636 147 635 152 630 c 2
 182 600 l 1
 212 630 l 2
 217 635 221 636 227 636 c 0
 239 636 250 626 250 614 c 0
 250 608 248 603 243 598 c 2
 198 552 l 2
 194 548 188 546 182 546 c 0
 177 546 171 547 166 552 c 2
 121 598 l 2
 116 603 114 608 114 614 c 0
EndSplineSet
Ligature2: "'ccmp' Glyph Composition/Decomposition in Latin lookup 52 subtable" s uni030C
EndChar

StartChar: Tcaron
Encoding: 356 356 195
Width: 409
GlyphClass: 3
Flags: W
TeX: 772 0
LayerCount: 2
Fore
SplineSet
45 614 m 0
 45 626 56 636 68 636 c 2
 341 636 l 2
 353 636 364 626 364 614 c 0
 364 602 353 591 341 591 c 2
 227 591 l 1
 227 23 l 2
 227 11 217 0 205 0 c 0
 193 0 182 11 182 23 c 2
 182 591 l 1
 68 591 l 2
 56 591 45 602 45 614 c 0
137 750 m 0
 137 762 148 772 160 772 c 0
 166 772 170 771 175 766 c 2
 205 736 l 1
 235 766 l 2
 240 771 244 772 250 772 c 0
 262 772 273 762 273 750 c 0
 273 744 271 739 266 734 c 2
 221 688 l 2
 217 684 211 682 205 682 c 0
 200 682 194 683 189 688 c 2
 144 734 l 2
 139 739 137 744 137 750 c 0
EndSplineSet
Ligature2: "'ccmp' Glyph Composition/Decomposition in Latin lookup 52 subtable" T uni030C
EndChar

StartChar: tcaron
Encoding: 357 357 196
Width: 272
GlyphClass: 3
Flags: W
TeX: 636 0
LayerCount: 2
Fore
SplineSet
45 432 m 0
 45 444 56 455 68 455 c 2
 91 455 l 1
 91 614 l 2
 91 626 102 636 114 636 c 0
 126 636 136 626 136 614 c 2
 136 455 l 1
 205 455 l 2
 217 455 227 444 227 432 c 0
 227 420 217 409 205 409 c 2
 136 409 l 1
 136 23 l 2
 136 11 126 0 114 0 c 0
 102 0 91 11 91 23 c 2
 91 409 l 1
 68 409 l 2
 56 409 45 420 45 432 c 0
181 568 m 2
 181 614 l 2
 181 626 192 636 204 636 c 0
 216 636 227 626 227 614 c 2
 227 568 l 2
 227 556 216 545 204 545 c 0
 192 545 181 556 181 568 c 2
EndSplineSet
Ligature2: "'ccmp' Glyph Composition/Decomposition in Latin lookup 52 subtable" t uni0315
Ligature2: "'ccmp' Glyph Composition/Decomposition in Latin lookup 52 subtable" t uni030C
EndChar

StartChar: Uring
Encoding: 366 366 197
Width: 409
GlyphClass: 3
Flags: W
TeX: 772 0
LayerCount: 2
Fore
SplineSet
45 159 m 2
 45 614 l 2
 45 626 56 636 68 636 c 0
 80 636 91 626 91 614 c 2
 91 159 l 2
 91 97 143 45 205 45 c 0
 267 45 318 97 318 159 c 2
 318 614 l 2
 318 626 329 636 341 636 c 0
 353 636 364 626 364 614 c 2
 364 159 l 2
 364 72 292 0 205 0 c 0
 118 0 45 72 45 159 c 2
137 704 m 0
 137 741 167 772 205 772 c 0
 243 772 273 741 273 704 c 0
 273 667 242 636 205 636 c 0
 167 636 137 666 137 704 c 0
182 704 m 0
 182 692 193 681 205 681 c 0
 217 681 228 692 228 704 c 0
 228 717 218 727 205 727 c 0
 193 727 182 716 182 704 c 0
EndSplineSet
Ligature2: "'ccmp' Glyph Composition/Decomposition in Latin lookup 52 subtable" U uni030A
EndChar

StartChar: uring
Encoding: 367 367 198
Width: 363
GlyphClass: 3
Flags: W
TeX: 636 0
LayerCount: 2
Fore
SplineSet
319 432 m 2
 319 23 l 2
 319 9 306 0 296 0 c 2
 159 0 l 2
 96 0 46 51 46 114 c 2
 46 432 l 2
 46 444 57 455 69 455 c 0
 81 455 91 444 91 432 c 2
 91 114 l 2
 91 75 120 46 159 46 c 2
 273 46 l 1
 273 432 l 2
 273 444 284 455 296 455 c 0
 308 455 319 444 319 432 c 2
114 568 m 0
 114 605 144 636 182 636 c 0
 220 636 250 605 250 568 c 0
 250 531 219 500 182 500 c 0
 144 500 114 530 114 568 c 0
159 568 m 0
 159 556 170 545 182 545 c 0
 194 545 205 556 205 568 c 0
 205 581 195 591 182 591 c 0
 170 591 159 580 159 568 c 0
EndSplineSet
Ligature2: "'ccmp' Glyph Composition/Decomposition in Latin lookup 52 subtable" u uni030A
EndChar

StartChar: Uhungarumlaut
Encoding: 368 368 199
Width: 409
GlyphClass: 3
Flags: W
TeX: 772 0
LayerCount: 2
Fore
SplineSet
45 159 m 2
 45 614 l 2
 45 626 56 636 68 636 c 0
 80 636 91 626 91 614 c 2
 91 159 l 2
 91 97 143 45 205 45 c 0
 267 45 318 97 318 159 c 2
 318 614 l 2
 318 626 329 636 341 636 c 0
 353 636 364 626 364 614 c 2
 364 159 l 2
 364 72 292 0 205 0 c 0
 118 0 45 72 45 159 c 2
113 704 m 0
 113 707 114 711 116 714 c 2
 138 760 l 2
 142 768 151 772 159 772 c 0
 173 772 181 761 181 750 c 0
 181 747 181 743 179 740 c 2
 156 694 l 2
 152 686 144 681 136 681 c 0
 122 681 113 693 113 704 c 0
249 704 m 0
 249 707 250 711 252 714 c 2
 274 760 l 2
 278 768 287 772 295 772 c 0
 309 772 317 761 317 750 c 0
 317 747 317 743 315 740 c 2
 292 694 l 2
 288 686 280 681 272 681 c 0
 258 681 249 693 249 704 c 0
EndSplineSet
Ligature2: "'ccmp' Glyph Composition/Decomposition in Latin lookup 48 subtable" U uni030B
EndChar

StartChar: uhungarumlaut
Encoding: 369 369 200
Width: 363
GlyphClass: 3
Flags: W
TeX: 636 0
LayerCount: 2
Fore
SplineSet
319 432 m 2
 319 23 l 2
 319 9 306 0 296 0 c 2
 159 0 l 2
 96 0 46 51 46 114 c 2
 46 432 l 2
 46 444 57 455 69 455 c 0
 81 455 91 444 91 432 c 2
 91 114 l 2
 91 75 120 46 159 46 c 2
 273 46 l 1
 273 432 l 2
 273 444 284 455 296 455 c 0
 308 455 319 444 319 432 c 2
90 568 m 0
 90 571 91 575 93 578 c 2
 115 624 l 2
 119 632 128 636 136 636 c 0
 150 636 158 625 158 614 c 0
 158 611 158 607 156 604 c 2
 133 558 l 2
 129 550 121 545 113 545 c 0
 99 545 90 557 90 568 c 0
226 568 m 0
 226 571 227 575 229 578 c 2
 251 624 l 2
 255 632 264 636 272 636 c 0
 286 636 294 625 294 614 c 0
 294 611 294 607 292 604 c 2
 269 558 l 2
 265 550 257 545 249 545 c 0
 235 545 226 557 226 568 c 0
EndSplineSet
Ligature2: "'ccmp' Glyph Composition/Decomposition in Latin lookup 48 subtable" u uni030B
EndChar

StartChar: Zacute
Encoding: 377 377 201
Width: 409
GlyphClass: 3
Flags: W
TeX: 772 0
LayerCount: 2
Fore
SplineSet
45 23 m 0
 45 26 47 30 48 33 c 2
 305 591 l 1
 68 591 l 2
 56 591 45 602 45 614 c 0
 45 626 56 636 68 636 c 2
 341 636 l 2
 353 636 364 625 364 613 c 0
 364 610 362 607 361 604 c 2
 104 45 l 1
 341 45 l 2
 353 45 364 35 364 23 c 0
 364 11 353 0 341 0 c 2
 68 0 l 2
 56 0 45 11 45 23 c 0
159 704 m 0
 159 707 160 711 162 714 c 2
 184 760 l 2
 188 768 197 772 205 772 c 0
 219 772 227 761 227 750 c 0
 227 747 227 743 225 740 c 2
 202 694 l 2
 198 686 190 681 182 681 c 0
 168 681 159 693 159 704 c 0
EndSplineSet
Ligature2: "'ccmp' Glyph Composition/Decomposition in Latin lookup 50 subtable" Z acutecomb
EndChar

StartChar: zacute
Encoding: 378 378 202
Width: 363
GlyphClass: 3
Flags: W
TeX: 636 0
LayerCount: 2
Fore
SplineSet
42 16 m 0
 42 25 48 34 48 34 c 1
 257 409 l 1
 68 409 l 2
 56 409 45 420 45 432 c 0
 45 444 56 455 68 455 c 2
 295 455 l 1
 298 455 l 2
 304 455 321 454 321 439 c 0
 321 434 319 428 315 421 c 2
 107 45 l 1
 295 45 l 2
 307 45 318 35 318 23 c 0
 318 11 307 0 295 0 c 2
 68 0 l 2
 48 0 42 8 42 16 c 0
136 568 m 0
 136 571 137 575 139 578 c 2
 161 624 l 2
 165 632 174 636 182 636 c 0
 196 636 204 625 204 614 c 0
 204 611 204 607 202 604 c 2
 179 558 l 2
 175 550 167 545 159 545 c 0
 145 545 136 557 136 568 c 0
EndSplineSet
Ligature2: "'ccmp' Glyph Composition/Decomposition in Latin lookup 50 subtable" z acutecomb
EndChar

StartChar: Zdotaccent
Encoding: 379 379 203
Width: 409
GlyphClass: 3
Flags: W
TeX: 773 0
LayerCount: 2
Fore
SplineSet
45 23 m 0
 45 26 47 30 48 33 c 2
 305 591 l 1
 68 591 l 2
 56 591 45 602 45 614 c 0
 45 626 56 636 68 636 c 2
 341 636 l 2
 353 636 364 625 364 613 c 0
 364 610 362 607 361 604 c 2
 104 45 l 1
 341 45 l 2
 353 45 364 35 364 23 c 0
 364 11 353 0 341 0 c 2
 68 0 l 2
 56 0 45 11 45 23 c 0
181 750 m 0
 181 762 192 773 204 773 c 0
 216 773 227 762 227 750 c 0
 227 737 217 727 204 727 c 0
 191 727 181 737 181 750 c 0
EndSplineSet
Ligature2: "'ccmp' Glyph Composition/Decomposition in Latin lookup 50 subtable" Z uni0307
EndChar

StartChar: zdotaccent
Encoding: 380 380 204
Width: 363
GlyphClass: 3
Flags: W
TeX: 637 0
LayerCount: 2
Fore
SplineSet
42 16 m 0
 42 25 48 34 48 34 c 1
 257 409 l 1
 68 409 l 2
 56 409 45 420 45 432 c 0
 45 444 56 455 68 455 c 2
 295 455 l 1
 298 455 l 2
 304 455 321 454 321 439 c 0
 321 434 319 428 315 421 c 2
 107 45 l 1
 295 45 l 2
 307 45 318 35 318 23 c 0
 318 11 307 0 295 0 c 2
 68 0 l 2
 48 0 42 8 42 16 c 0
159 614 m 0
 159 626 170 637 182 637 c 0
 194 637 205 626 205 614 c 0
 205 601 195 591 182 591 c 0
 169 591 159 601 159 614 c 0
EndSplineSet
Ligature2: "'ccmp' Glyph Composition/Decomposition in Latin lookup 50 subtable" z uni0307
EndChar

StartChar: Zcaron
Encoding: 381 381 205
Width: 409
GlyphClass: 3
Flags: W
TeX: 772 0
LayerCount: 2
Fore
SplineSet
45 23 m 0
 45 26 47 30 48 33 c 2
 305 591 l 1
 68 591 l 2
 56 591 45 602 45 614 c 0
 45 626 56 636 68 636 c 2
 341 636 l 2
 353 636 364 625 364 613 c 0
 364 610 362 607 361 604 c 2
 104 45 l 1
 341 45 l 2
 353 45 364 35 364 23 c 0
 364 11 353 0 341 0 c 2
 68 0 l 2
 56 0 45 11 45 23 c 0
137 750 m 0
 137 762 148 772 160 772 c 0
 166 772 170 771 175 766 c 2
 205 736 l 1
 235 766 l 2
 240 771 244 772 250 772 c 0
 262 772 273 762 273 750 c 0
 273 744 271 739 266 734 c 2
 221 688 l 2
 217 684 211 682 205 682 c 0
 200 682 194 683 189 688 c 2
 144 734 l 2
 139 739 137 744 137 750 c 0
EndSplineSet
Ligature2: "'ccmp' Glyph Composition/Decomposition in Latin lookup 52 subtable" Z uni030C
EndChar

StartChar: zcaron
Encoding: 382 382 206
Width: 363
GlyphClass: 3
Flags: W
TeX: 636 0
LayerCount: 2
Fore
SplineSet
42 16 m 0
 42 25 48 34 48 34 c 1
 257 409 l 1
 68 409 l 2
 56 409 45 420 45 432 c 0
 45 444 56 455 68 455 c 2
 295 455 l 1
 298 455 l 2
 304 455 321 454 321 439 c 0
 321 434 319 428 315 421 c 2
 107 45 l 1
 295 45 l 2
 307 45 318 35 318 23 c 0
 318 11 307 0 295 0 c 2
 68 0 l 2
 48 0 42 8 42 16 c 0
114 614 m 0
 114 626 125 636 137 636 c 0
 143 636 147 635 152 630 c 2
 182 600 l 1
 212 630 l 2
 217 635 221 636 227 636 c 0
 239 636 250 626 250 614 c 0
 250 608 248 603 243 598 c 2
 198 552 l 2
 194 548 188 546 182 546 c 0
 177 546 171 547 166 552 c 2
 121 598 l 2
 116 603 114 608 114 614 c 0
EndSplineSet
Ligature2: "'ccmp' Glyph Composition/Decomposition in Latin lookup 52 subtable" z uni030C
EndChar

StartChar: uni0194
Encoding: 404 404 207
Width: 363
GlyphClass: 2
Flags: W
TeX: 455 182
LayerCount: 2
Fore
SplineSet
45 432 m 0
 45 444 56 455 68 455 c 0
 131 455 174 395 205 306 c 1
 223 354 247 399 276 444 c 0
 280 451 287 455 295 455 c 0
 308 455 318 443 318 432 c 0
 318 428 317 424 315 420 c 0
 275 357 247 301 228 229 c 1
 243 168 250 99 250 23 c 2
 250 -39 l 2
 250 -118 246 -182 205 -182 c 0
 164 -182 159 -118 159 -39 c 2
 159 23 l 2
 159 101 166 167 181 229 c 1
 179 239 175 247 173 256 c 0
 140 370 101 409 68 409 c 0
 56 409 45 420 45 432 c 0
EndSplineSet
EndChar

StartChar: uni0218
Encoding: 536 536 208
Width: 409
GlyphClass: 3
Flags: W
TeX: 636 136
LayerCount: 2
Fore
SplineSet
45 68 m 0
 45 81 56 91 68 91 c 0
 73 91 78 89 82 86 c 0
 117 59 158 45 205 45 c 0
 275 45 318 77 318 128 c 0
 318 161 307 187 284 211 c 2
 86 416 l 2
 60 443 45 475 45 510 c 0
 45 595 126 636 205 636 c 0
 261 636 312 620 355 586 c 0
 361 581 364 575 364 568 c 0
 364 555 353 545 341 545 c 0
 336 545 331 547 327 550 c 0
 292 577 252 591 205 591 c 0
 137 591 91 558 91 510 c 0
 91 488 99 468 119 448 c 2
 317 243 l 2
 347 211 364 172 364 128 c 0
 364 42 285 0 205 0 c 0
 149 0 98 16 54 50 c 0
 48 55 45 61 45 68 c 0
182 -68 m 2
 182 -56 193 -45 205 -45 c 0
 217 -45 228 -56 228 -68 c 2
 228 -114 l 2
 228 -126 217 -136 205 -136 c 0
 193 -136 182 -126 182 -114 c 2
 182 -68 l 2
EndSplineSet
Ligature2: "'ccmp' Glyph Composition/Decomposition in Latin lookup 51 subtable" S uni0326
EndChar

StartChar: uni0219
Encoding: 537 537 209
Width: 363
GlyphClass: 3
Flags: W
TeX: 455 136
LayerCount: 2
Fore
SplineSet
45 57 m 0
 45 70 56 80 68 80 c 0
 73 80 78 78 82 75 c 0
 108 55 140 45 182 45 c 0
 233 45 273 72 273 102 c 0
 273 127 266 141 255 149 c 2
 81 277 l 2
 57 295 45 322 45 352 c 0
 45 428 116 455 182 455 c 0
 230 455 274 442 309 416 c 0
 315 411 318 405 318 398 c 0
 318 385 307 375 295 375 c 0
 290 375 286 377 282 380 c 0
 256 400 223 409 182 409 c 0
 122 409 91 389 91 352 c 0
 91 332 96 323 108 314 c 2
 282 185 l 2
 307 166 318 136 318 102 c 0
 318 30 241 0 182 0 c 0
 133 0 90 13 55 39 c 0
 49 44 45 50 45 57 c 0
159 -68 m 2
 159 -56 170 -45 182 -45 c 0
 194 -45 205 -56 205 -68 c 2
 205 -114 l 2
 205 -126 194 -136 182 -136 c 0
 170 -136 159 -126 159 -114 c 2
 159 -68 l 2
EndSplineSet
Ligature2: "'ccmp' Glyph Composition/Decomposition in Latin lookup 51 subtable" s uni0326
EndChar

StartChar: uni021A
Encoding: 538 538 210
Width: 409
GlyphClass: 3
Flags: W
TeX: 636 136
LayerCount: 2
Fore
SplineSet
45 614 m 0
 45 626 56 636 68 636 c 2
 341 636 l 2
 353 636 364 626 364 614 c 0
 364 602 353 591 341 591 c 2
 227 591 l 1
 227 23 l 2
 227 11 217 0 205 0 c 0
 193 0 182 11 182 23 c 2
 182 591 l 1
 68 591 l 2
 56 591 45 602 45 614 c 0
182 -68 m 2
 182 -56 193 -45 205 -45 c 0
 217 -45 228 -56 228 -68 c 2
 228 -114 l 2
 228 -126 217 -136 205 -136 c 0
 193 -136 182 -126 182 -114 c 2
 182 -68 l 2
EndSplineSet
Ligature2: "'ccmp' Glyph Composition/Decomposition in Latin lookup 51 subtable" T uni0326
EndChar

StartChar: uni021B
Encoding: 539 539 211
Width: 272
GlyphClass: 3
Flags: W
TeX: 636 136
LayerCount: 2
Fore
SplineSet
45 432 m 0
 45 444 56 455 68 455 c 2
 91 455 l 1
 91 614 l 2
 91 626 102 636 114 636 c 0
 126 636 136 626 136 614 c 2
 136 455 l 1
 205 455 l 2
 217 455 227 444 227 432 c 0
 227 420 217 409 205 409 c 2
 136 409 l 1
 136 23 l 2
 136 11 126 0 114 0 c 0
 102 0 91 11 91 23 c 2
 91 409 l 1
 68 409 l 2
 56 409 45 420 45 432 c 0
91 -68 m 2
 91 -56 102 -45 114 -45 c 0
 126 -45 137 -56 137 -68 c 2
 137 -114 l 2
 137 -126 126 -136 114 -136 c 0
 102 -136 91 -126 91 -114 c 2
 91 -68 l 2
EndSplineSet
Ligature2: "'ccmp' Glyph Composition/Decomposition in Latin lookup 51 subtable" t uni0326
EndChar

StartChar: uni0237
Encoding: 567 567 212
Width: 227
GlyphClass: 2
Flags: W
TeX: 455 182
AnchorPoint: "Anchor-1" 159 614 basechar 0
LayerCount: 2
Fore
SplineSet
45 -159 m 0
 45 -147 56 -136 68 -136 c 2
 91 -136 l 2
 116 -136 136 -116 136 -91 c 2
 136 432 l 2
 136 444 147 455 159 455 c 0
 171 455 182 444 182 432 c 2
 182 -91 l 2
 182 -141 141 -182 91 -182 c 2
 68 -182 l 2
 56 -182 45 -171 45 -159 c 0
EndSplineSet
EndChar

StartChar: uni025B
Encoding: 603 603 213
Width: 363
GlyphClass: 2
Flags: W
TeX: 455 0
LayerCount: 2
Fore
SplineSet
45 124 m 0
 45 162 66 202 97 227 c 1
 66 252 45 293 45 331 c 0
 45 410 101 455 182 455 c 0
 232 455 273 446 306 429 c 0
 314 425 318 417 318 409 c 0
 318 395 306 386 295 386 c 0
 291 386 288 387 285 389 c 0
 261 402 227 409 182 409 c 0
 118 409 91 384 91 331 c 0
 91 291 128 250 159 250 c 2
 205 250 l 2
 217 250 227 239 227 227 c 0
 227 215 217 205 205 205 c 2
 159 205 l 2
 128 205 91 164 91 124 c 0
 91 71 118 45 182 45 c 0
 227 45 261 52 285 65 c 0
 288 67 291 68 295 68 c 0
 306 68 318 59 318 45 c 0
 318 37 314 29 306 25 c 0
 273 8 232 0 182 0 c 0
 101 0 45 45 45 124 c 0
EndSplineSet
EndChar

StartChar: uni0269
Encoding: 617 617 214
Width: 250
GlyphClass: 2
Flags: W
TeX: 455 0
LayerCount: 2
Fore
SplineSet
45 80 m 2
 45 432 l 2
 45 444 56 455 68 455 c 0
 80 455 91 444 91 432 c 2
 91 80 l 2
 91 62 107 45 126 45 c 0
 140 45 159 59 161 65 c 0
 165 74 173 80 182 80 c 0
 196 80 205 68 205 57 c 0
 205 54 204 51 203 48 c 0
 192 20 158 0 126 0 c 0
 82 0 45 36 45 80 c 2
EndSplineSet
EndChar

StartChar: uni0278
Encoding: 632 632 215
Width: 454
GlyphClass: 2
Flags: W
TeX: 455 182
LayerCount: 2
Fore
SplineSet
45 182 m 0
 45 274 61 360 92 440 c 0
 96 449 105 455 114 455 c 0
 128 455 136 443 136 432 c 0
 136 429 136 427 135 424 c 0
 105 349 91 268 91 182 c 0
 91 112 140 57 205 47 c 1
 205 375 l 2
 205 419 239 455 284 455 c 0
 378 455 409 345 409 182 c 0
 409 87 341 12 250 1 c 1
 250 -159 l 2
 250 -171 239 -182 227 -182 c 0
 215 -182 205 -171 205 -159 c 2
 205 1 l 1
 114 12 45 87 45 182 c 0
250 47 m 1
 316 57 364 112 364 182 c 0
 364 353 327 409 284 409 c 0
 265 409 250 395 250 375 c 2
 250 47 l 1
EndSplineSet
EndChar

StartChar: uni02BB
Encoding: 699 699 216
Width: 159
GlyphClass: 2
Flags: W
TeX: 727 -591
LayerCount: 2
Fore
SplineSet
113 704 m 2
 113 699 l 1
 90 608 l 2
 87 598 78 591 68 591 c 0
 54 591 45 602 45 613 c 0
 45 615 46 617 46 619 c 2
 68 710 l 2
 71 720 81 727 91 727 c 0
 105 727 113 715 113 704 c 2
EndSplineSet
EndChar

StartChar: uni02BC
Encoding: 700 700 217
Width: 136
GlyphClass: 4
Flags: W
TeX: 636 -545
AnchorPoint: "Anchor-2" 68 614 mark 0
LayerCount: 2
Fore
SplineSet
45 568 m 2
 45 614 l 2
 45 626 56 636 68 636 c 0
 80 636 91 626 91 614 c 2
 91 568 l 2
 91 556 80 545 68 545 c 0
 56 545 45 556 45 568 c 2
EndSplineSet
EndChar

StartChar: uni02BD
Encoding: 701 701 218
Width: 159
GlyphClass: 2
Flags: W
TeX: 636 -500
LayerCount: 2
Fore
SplineSet
45 614 m 0
 45 625 54 636 68 636 c 0
 78 636 87 629 90 619 c 2
 113 528 l 2
 113 526 114 525 114 523 c 0
 114 512 105 500 91 500 c 0
 81 500 72 507 69 517 c 2
 46 608 l 2
 46 610 45 612 45 614 c 0
EndSplineSet
EndChar

StartChar: circumflex
Encoding: 710 710 219
Width: 227
GlyphClass: 4
Flags: W
TeX: 636 -545
AnchorPoint: "Anchor-1" 114 614 mark 0
LayerCount: 2
Fore
SplineSet
46 568 m 0
 46 574 48 579 53 584 c 2
 98 630 l 2
 103 635 109 636 114 636 c 0
 120 636 126 634 130 630 c 2
 175 584 l 2
 180 579 182 574 182 568 c 0
 182 556 171 545 159 545 c 0
 153 545 149 547 144 552 c 2
 114 581 l 1
 84 552 l 2
 79 547 75 545 69 545 c 0
 57 545 46 556 46 568 c 0
EndSplineSet
EndChar

StartChar: caron
Encoding: 711 711 220
Width: 227
GlyphClass: 4
Flags: W
TeX: 636 -546
AnchorPoint: "Anchor-1" 114 614 mark 0
LayerCount: 2
Fore
SplineSet
46 614 m 0
 46 626 57 636 69 636 c 0
 75 636 79 635 84 630 c 2
 114 600 l 1
 144 630 l 2
 149 635 153 636 159 636 c 0
 171 636 182 626 182 614 c 0
 182 608 180 603 175 598 c 2
 130 552 l 2
 126 548 120 546 114 546 c 0
 109 546 103 547 98 552 c 2
 53 598 l 2
 48 603 46 608 46 614 c 0
EndSplineSet
EndChar

StartChar: uni02C8
Encoding: 712 712 221
Width: 136
GlyphClass: 2
Flags: W
TeX: 636 -545
LayerCount: 2
Fore
SplineSet
45 568 m 2
 45 614 l 2
 45 626 56 636 68 636 c 0
 80 636 91 626 91 614 c 2
 91 568 l 2
 91 556 80 545 68 545 c 0
 56 545 45 556 45 568 c 2
EndSplineSet
EndChar

StartChar: uni02C9
Encoding: 713 713 222
Width: 227
GlyphClass: 2
Flags: W
TeX: 636 -591
LayerCount: 2
Fore
SplineSet
46 614 m 0
 46 626 57 636 69 636 c 2
 159 636 l 2
 171 636 182 626 182 614 c 0
 182 602 171 591 159 591 c 2
 69 591 l 2
 57 591 46 602 46 614 c 0
EndSplineSet
EndChar

StartChar: uni02CA
Encoding: 714 714 223
Width: 159
GlyphClass: 4
Flags: W
TeX: 636 -545
AnchorPoint: "Anchor-1" 91 614 mark 0
LayerCount: 2
Fore
SplineSet
45 568 m 0
 45 571 46 575 48 578 c 2
 70 624 l 2
 74 632 83 636 91 636 c 0
 105 636 113 625 113 614 c 0
 113 611 113 607 111 604 c 2
 88 558 l 2
 84 550 76 545 68 545 c 0
 54 545 45 557 45 568 c 0
EndSplineSet
EndChar

StartChar: uni02CB
Encoding: 715 715 224
Width: 159
GlyphClass: 2
Flags: W
TeX: 636 -545
LayerCount: 2
Fore
SplineSet
45 614 m 0
 45 625 54 636 68 636 c 0
 76 636 84 632 88 624 c 2
 111 578 l 2
 113 575 113 571 113 568 c 0
 113 557 105 545 91 545 c 0
 83 545 74 550 70 558 c 2
 48 604 l 2
 46 607 45 611 45 614 c 0
EndSplineSet
EndChar

StartChar: breve
Encoding: 728 728 225
Width: 227
GlyphClass: 4
Flags: W
TeX: 636 -545
AnchorPoint: "Anchor-1" 114 614 mark 0
LayerCount: 2
Fore
SplineSet
46 614 m 0
 46 643 91 644 91 614 c 0
 91 603 103 591 114 591 c 0
 125 591 137 603 137 614 c 0
 137 626 147 636 159 636 c 0
 171 636 182 626 182 614 c 0
 182 577 151 545 114 545 c 0
 78 545 46 577 46 614 c 0
EndSplineSet
EndChar

StartChar: dotaccent
Encoding: 729 729 226
Width: 136
GlyphClass: 4
Flags: W
TeX: 637 -591
AnchorPoint: "Anchor-1" 68 614 mark 0
LayerCount: 2
Fore
SplineSet
45 614 m 0
 45 626 56 637 68 637 c 0
 80 637 91 626 91 614 c 0
 91 601 81 591 68 591 c 0
 55 591 45 601 45 614 c 0
EndSplineSet
EndChar

StartChar: ring
Encoding: 730 730 227
Width: 227
GlyphClass: 4
Flags: W
TeX: 636 -500
AnchorPoint: "Anchor-1" 114 614 mark 0
LayerCount: 2
Fore
SplineSet
46 568 m 0
 46 605 76 636 114 636 c 0
 152 636 182 605 182 568 c 0
 182 531 151 500 114 500 c 0
 76 500 46 530 46 568 c 0
91 568 m 0
 91 556 102 545 114 545 c 0
 126 545 137 556 137 568 c 0
 137 581 127 591 114 591 c 0
 102 591 91 580 91 568 c 0
EndSplineSet
EndChar

StartChar: ogonek
Encoding: 731 731 228
Width: 136
GlyphClass: 4
Flags: W
TeX: 0 91
AnchorPoint: "Anchor-0" 23 0 mark 0
LayerCount: 2
Fore
SplineSet
46 -23 m 2
 46 -11 56 0 68 0 c 0
 80 0 91 -11 91 -23 c 2
 91 -68 l 2
 91 -80 80 -91 68 -91 c 0
 56 -91 46 -80 46 -68 c 2
 46 -23 l 2
EndSplineSet
EndChar

StartChar: tilde
Encoding: 732 732 229
Width: 272
GlyphClass: 4
Flags: W
TeX: 648 -580
AnchorPoint: "Anchor-1" 136 614 mark 0
LayerCount: 2
Fore
SplineSet
45 614 m 0
 45 639 82 648 102 648 c 0
 144 648 157 625 170 625 c 0
 184 625 191 636 204 636 c 0
 216 636 227 627 227 614 c 0
 227 589 190 580 170 580 c 0
 128 580 115 602 102 602 c 0
 88 602 81 591 68 591 c 0
 56 591 45 601 45 614 c 0
EndSplineSet
EndChar

StartChar: hungarumlaut
Encoding: 733 733 230
Width: 295
GlyphClass: 4
Flags: W
TeX: 636 -545
AnchorPoint: "Anchor-1" 136 614 mark 0
LayerCount: 2
Fore
SplineSet
45 568 m 0
 45 571 46 575 48 578 c 2
 70 624 l 2
 74 632 83 636 91 636 c 0
 105 636 113 625 113 614 c 0
 113 611 113 607 111 604 c 2
 88 558 l 2
 84 550 76 545 68 545 c 0
 54 545 45 557 45 568 c 0
181 568 m 0
 181 571 182 575 184 578 c 2
 206 624 l 2
 210 632 219 636 227 636 c 0
 241 636 249 625 249 614 c 0
 249 611 249 607 247 604 c 2
 224 558 l 2
 220 550 212 545 204 545 c 0
 190 545 181 557 181 568 c 0
EndSplineSet
EndChar

StartChar: gravecomb
Encoding: 768 768 231
Width: 0
GlyphClass: 4
Flags: W
TeX: 636 -545
AnchorPoint: "Anchor-7" 0 614 mark 0
AnchorPoint: "Anchor-1" 0 614 mark 0
LayerCount: 2
Fore
SplineSet
-23 614 m 0
 -23 625 -14 636 0 636 c 0
 8 636 16 632 20 624 c 2
 43 578 l 2
 45 575 45 571 45 568 c 0
 45 557 37 545 23 545 c 0
 15 545 6 550 2 558 c 2
 -20 604 l 2
 -22 607 -23 611 -23 614 c 0
EndSplineSet
EndChar

StartChar: acutecomb
Encoding: 769 769 232
Width: 0
GlyphClass: 4
Flags: W
TeX: 636 -545
AnchorPoint: "Anchor-7" 0 750 mark 0
AnchorPoint: "Anchor-1" 0 614 mark 0
LayerCount: 2
Fore
SplineSet
-23 568 m 0
 -23 571 -22 575 -20 578 c 2
 2 624 l 2
 6 632 15 636 23 636 c 0
 37 636 45 625 45 614 c 0
 45 611 45 607 43 604 c 2
 20 558 l 2
 16 550 8 545 0 545 c 0
 -14 545 -23 557 -23 568 c 0
EndSplineSet
EndChar

StartChar: uni0302
Encoding: 770 770 233
Width: 0
GlyphClass: 4
Flags: W
TeX: 636 -545
AnchorPoint: "Anchor-7" 0 750 basemark 0
AnchorPoint: "Anchor-7" 0 614 mark 0
AnchorPoint: "Anchor-1" 0 614 mark 0
LayerCount: 2
Fore
SplineSet
-68 568 m 0
 -68 574 -66 579 -61 584 c 2
 -16 630 l 2
 -11 635 -5 636 0 636 c 0
 6 636 12 634 16 630 c 2
 61 584 l 2
 66 579 68 574 68 568 c 0
 68 556 57 545 45 545 c 0
 39 545 35 547 30 552 c 2
 0 581 l 1
 -30 552 l 2
 -35 547 -39 545 -45 545 c 0
 -57 545 -68 556 -68 568 c 0
EndSplineSet
EndChar

StartChar: tildecomb
Encoding: 771 771 234
Width: 0
GlyphClass: 4
Flags: W
TeX: 648 -580
AnchorPoint: "Anchor-7" 0 693 basemark 0
AnchorPoint: "Anchor-1" 0 614 mark 0
LayerCount: 2
Fore
SplineSet
-91 614 m 0
 -91 639 -54 648 -34 648 c 0
 8 648 21 625 34 625 c 0
 48 625 55 636 68 636 c 0
 80 636 91 627 91 614 c 0
 91 589 54 580 34 580 c 0
 -8 580 -21 602 -34 602 c 0
 -48 602 -55 591 -68 591 c 0
 -80 591 -91 601 -91 614 c 0
EndSplineSet
EndChar

StartChar: uni0304
Encoding: 772 772 235
Width: 0
GlyphClass: 4
Flags: W
TeX: 636 -591
AnchorPoint: "Anchor-7" 0 750 basemark 0
AnchorPoint: "Anchor-7" 0 614 mark 0
AnchorPoint: "Anchor-1" 0 614 mark 0
LayerCount: 2
Fore
SplineSet
-68 614 m 0
 -68 626 -57 636 -45 636 c 2
 45 636 l 2
 57 636 68 626 68 614 c 0
 68 602 57 591 45 591 c 2
 -45 591 l 2
 -57 591 -68 602 -68 614 c 0
EndSplineSet
EndChar

StartChar: uni0305
Encoding: 773 773 236
Width: 0
GlyphClass: 4
Flags: W
TeX: 727 -682
AnchorPoint: "Anchor-1" 0 614 mark 0
LayerCount: 2
Fore
SplineSet
-159 705 m 0
 -159 717 -148 727 -136 727 c 2
 136 727 l 2
 148 727 159 717 159 705 c 0
 159 693 148 682 136 682 c 2
 -136 682 l 2
 -148 682 -159 693 -159 705 c 0
EndSplineSet
EndChar

StartChar: uni0306
Encoding: 774 774 237
Width: 0
GlyphClass: 4
Flags: W
TeX: 636 -545
AnchorPoint: "Anchor-7" 0 750 basemark 0
AnchorPoint: "Anchor-7" 0 614 mark 0
AnchorPoint: "Anchor-1" 0 614 mark 0
LayerCount: 2
Fore
SplineSet
-68 614 m 0
 -68 643 -23 644 -23 614 c 0
 -23 603 -11 591 0 591 c 0
 11 591 23 603 23 614 c 0
 23 626 33 636 45 636 c 0
 57 636 68 626 68 614 c 0
 68 577 37 545 0 545 c 0
 -36 545 -68 577 -68 614 c 0
EndSplineSet
EndChar

StartChar: uni0307
Encoding: 775 775 238
Width: 0
GlyphClass: 4
Flags: W
TeX: 637 -591
AnchorPoint: "Anchor-7" 0 750 basemark 0
AnchorPoint: "Anchor-7" 0 614 mark 0
AnchorPoint: "Anchor-1" 0 614 mark 0
LayerCount: 2
Fore
SplineSet
-23 614 m 0
 -23 626 -12 637 0 637 c 0
 12 637 23 626 23 614 c 0
 23 601 13 591 0 591 c 0
 -13 591 -23 601 -23 614 c 0
EndSplineSet
EndChar

StartChar: uni0308
Encoding: 776 776 239
Width: 0
GlyphClass: 4
Flags: W
TeX: 637 -591
AnchorPoint: "Anchor-7" 0 750 basemark 0
AnchorPoint: "Anchor-1" 0 614 mark 0
LayerCount: 2
Fore
SplineSet
45 614 m 0
 45 626 56 637 68 637 c 0
 80 637 91 626 91 614 c 0
 91 601 81 591 68 591 c 0
 55 591 45 601 45 614 c 0
-91 614 m 0
 -91 626 -80 637 -68 637 c 0
 -56 637 -45 626 -45 614 c 0
 -45 601 -55 591 -68 591 c 0
 -81 591 -91 601 -91 614 c 0
EndSplineSet
EndChar

StartChar: uni030A
Encoding: 778 778 240
Width: 0
GlyphClass: 4
Flags: W
TeX: 636 -500
AnchorPoint: "Anchor-7" 0 750 basemark 0
AnchorPoint: "Anchor-7" 0 614 mark 0
AnchorPoint: "Anchor-1" 0 614 mark 0
LayerCount: 2
Fore
SplineSet
-68 568 m 0
 -68 605 -38 636 0 636 c 0
 38 636 68 605 68 568 c 0
 68 531 37 500 0 500 c 0
 -38 500 -68 530 -68 568 c 0
-23 568 m 0
 -23 556 -12 545 0 545 c 0
 12 545 23 556 23 568 c 0
 23 581 13 591 0 591 c 0
 -12 591 -23 580 -23 568 c 0
EndSplineSet
EndChar

StartChar: uni030B
Encoding: 779 779 241
Width: 0
GlyphClass: 4
Flags: W
TeX: 636 -545
AnchorPoint: "Anchor-7" 0 750 basemark 0
AnchorPoint: "Anchor-7" 0 614 mark 0
AnchorPoint: "Anchor-1" 0 614 mark 0
LayerCount: 2
Fore
SplineSet
-114 568 m 0
 -114 571 -113 575 -111 578 c 2
 -89 624 l 2
 -85 632 -76 636 -68 636 c 0
 -54 636 -46 625 -46 614 c 0
 -46 611 -46 607 -48 604 c 2
 -71 558 l 2
 -75 550 -83 545 -91 545 c 0
 -105 545 -114 557 -114 568 c 0
22 568 m 0
 22 571 23 575 25 578 c 2
 47 624 l 2
 51 632 60 636 68 636 c 0
 82 636 90 625 90 614 c 0
 90 611 90 607 88 604 c 2
 65 558 l 2
 61 550 53 545 45 545 c 0
 31 545 22 557 22 568 c 0
EndSplineSet
EndChar

StartChar: uni030C
Encoding: 780 780 242
Width: 0
GlyphClass: 4
Flags: W
TeX: 636 -546
AnchorPoint: "Anchor-7" 0 750 basemark 0
AnchorPoint: "Anchor-7" 0 614 mark 0
AnchorPoint: "Anchor-1" 0 614 mark 0
LayerCount: 2
Fore
SplineSet
-68 614 m 0
 -68 626 -57 636 -45 636 c 0
 -39 636 -35 635 -30 630 c 2
 0 600 l 1
 30 630 l 2
 35 635 39 636 45 636 c 0
 57 636 68 626 68 614 c 0
 68 608 66 603 61 598 c 2
 16 552 l 2
 12 548 6 546 0 546 c 0
 -5 546 -11 547 -16 552 c 2
 -61 598 l 2
 -66 603 -68 608 -68 614 c 0
EndSplineSet
EndChar

StartChar: uni030D
Encoding: 781 781 243
Width: 0
GlyphClass: 4
Flags: W
TeX: 636 -545
AnchorPoint: "Anchor-7" 0 750 basemark 0
AnchorPoint: "Anchor-7" 0 614 mark 0
AnchorPoint: "Anchor-1" 0 614 mark 0
LayerCount: 2
Fore
SplineSet
-23 568 m 2
 -23 614 l 2
 -23 626 -12 636 0 636 c 0
 12 636 23 626 23 614 c 2
 23 568 l 2
 23 556 12 545 0 545 c 0
 -12 545 -23 556 -23 568 c 2
EndSplineSet
EndChar

StartChar: uni030E
Encoding: 782 782 244
Width: 0
GlyphClass: 4
Flags: W
TeX: 636 -545
AnchorPoint: "Anchor-7" 0 750 basemark 0
AnchorPoint: "Anchor-7" 0 614 mark 0
AnchorPoint: "Anchor-1" 0 614 mark 0
LayerCount: 2
Fore
SplineSet
22 568 m 2
 22 614 l 2
 22 626 33 636 45 636 c 0
 57 636 68 626 68 614 c 2
 68 568 l 2
 68 556 57 545 45 545 c 0
 33 545 22 556 22 568 c 2
-68 568 m 2
 -68 614 l 2
 -68 626 -57 636 -45 636 c 0
 -33 636 -22 626 -22 614 c 2
 -22 568 l 2
 -22 556 -33 545 -45 545 c 0
 -57 545 -68 556 -68 568 c 2
EndSplineSet
EndChar

StartChar: uni030F
Encoding: 783 783 245
Width: 0
GlyphClass: 4
Flags: W
TeX: 636 -545
AnchorPoint: "Anchor-7" 0 750 basemark 0
AnchorPoint: "Anchor-7" 0 614 mark 0
AnchorPoint: "Anchor-1" 0 614 mark 0
LayerCount: 2
Fore
SplineSet
22 614 m 0
 22 625 31 636 45 636 c 0
 53 636 61 632 65 624 c 2
 88 578 l 2
 90 575 90 571 90 568 c 0
 90 557 82 545 68 545 c 0
 60 545 51 550 47 558 c 2
 25 604 l 2
 23 607 22 611 22 614 c 0
-68 614 m 0
 -68 625 -59 636 -45 636 c 0
 -37 636 -29 632 -25 624 c 2
 -2 578 l 2
 0 575 0 571 0 568 c 0
 0 557 -8 545 -22 545 c 0
 -30 545 -39 550 -43 558 c 2
 -65 604 l 2
 -67 607 -68 611 -68 614 c 0
EndSplineSet
EndChar

StartChar: uni0311
Encoding: 785 785 246
Width: 0
GlyphClass: 4
Flags: W
TeX: 637 -545
AnchorPoint: "Anchor-7" 0 750 basemark 0
AnchorPoint: "Anchor-7" 0 614 mark 0
AnchorPoint: "Anchor-1" 0 614 mark 0
LayerCount: 2
Fore
SplineSet
68 568 m 0
 68 539 23 538 23 568 c 0
 23 579 11 591 0 591 c 0
 -11 591 -23 579 -23 568 c 0
 -23 556 -33 546 -45 546 c 0
 -57 546 -68 556 -68 568 c 0
 -68 605 -37 637 0 637 c 0
 36 637 68 605 68 568 c 0
EndSplineSet
EndChar

StartChar: uni0312
Encoding: 786 786 247
Width: 0
GlyphClass: 4
Flags: W
TeX: 727 -591
AnchorPoint: "Anchor-7" 0 750 basemark 0
AnchorPoint: "Anchor-7" 0 614 mark 0
AnchorPoint: "Anchor-1" 0 614 mark 0
LayerCount: 2
Fore
SplineSet
45 704 m 2
 45 699 l 1
 22 608 l 2
 19 598 10 591 0 591 c 0
 -14 591 -23 602 -23 613 c 0
 -23 615 -22 617 -22 619 c 2
 0 710 l 2
 3 720 13 727 23 727 c 0
 37 727 45 715 45 704 c 2
EndSplineSet
EndChar

StartChar: uni0313
Encoding: 787 787 248
Width: 0
GlyphClass: 4
Flags: W
TeX: 636 -500
AnchorPoint: "Anchor-7" 0 750 basemark 0
AnchorPoint: "Anchor-7" 0 614 mark 0
AnchorPoint: "Anchor-1" 0 614 mark 0
LayerCount: 2
Fore
SplineSet
-22 523 m 2
 -22 528 l 1
 1 619 l 2
 4 629 13 636 23 636 c 0
 37 636 46 625 46 614 c 0
 46 612 45 610 45 608 c 2
 23 517 l 2
 20 507 10 500 0 500 c 0
 -14 500 -22 512 -22 523 c 2
EndSplineSet
EndChar

StartChar: uni0314
Encoding: 788 788 249
Width: 0
GlyphClass: 4
Flags: W
TeX: 636 -500
AnchorPoint: "Anchor-7" 0 750 basemark 0
AnchorPoint: "Anchor-7" 0 614 mark 0
AnchorPoint: "Anchor-1" 0 614 mark 0
LayerCount: 2
Fore
SplineSet
-46 614 m 0
 -46 625 -37 636 -23 636 c 0
 -13 636 -4 629 -1 619 c 2
 22 528 l 2
 22 526 23 525 23 523 c 0
 23 512 14 500 0 500 c 0
 -10 500 -19 507 -22 517 c 2
 -45 608 l 2
 -45 610 -46 612 -46 614 c 0
EndSplineSet
EndChar

StartChar: uni0315
Encoding: 789 789 250
Width: 0
GlyphClass: 4
Flags: W
TeX: 636 -545
AnchorPoint: "Anchor-2" 0 614 mark 0
LayerCount: 2
Fore
SplineSet
-23 568 m 2
 -23 614 l 2
 -23 626 -12 636 0 636 c 0
 12 636 23 626 23 614 c 2
 23 568 l 2
 23 556 12 545 0 545 c 0
 -12 545 -23 556 -23 568 c 2
EndSplineSet
EndChar

StartChar: uni0316
Encoding: 790 790 251
Width: 0
GlyphClass: 4
Flags: W
TeX: -46 137
AnchorPoint: "Anchor-3" 0 -68 mark 0
LayerCount: 2
Fore
SplineSet
-23 -68 m 0
 -23 -57 -14 -46 0 -46 c 0
 8 -46 16 -50 20 -58 c 2
 43 -104 l 2
 45 -107 45 -111 45 -114 c 0
 45 -125 37 -137 23 -137 c 0
 15 -137 6 -132 2 -124 c 2
 -20 -78 l 2
 -22 -75 -23 -71 -23 -68 c 0
EndSplineSet
EndChar

StartChar: uni0317
Encoding: 791 791 252
Width: 0
GlyphClass: 4
Flags: W
TeX: -46 137
AnchorPoint: "Anchor-3" 0 -68 mark 0
LayerCount: 2
Fore
SplineSet
-23 -114 m 0
 -23 -111 -22 -107 -20 -104 c 2
 2 -58 l 2
 6 -50 15 -46 23 -46 c 0
 37 -46 45 -57 45 -68 c 0
 45 -71 45 -75 43 -78 c 2
 20 -124 l 2
 16 -132 8 -137 0 -137 c 0
 -14 -137 -23 -125 -23 -114 c 0
EndSplineSet
EndChar

StartChar: uni0326
Encoding: 806 806 253
Width: 0
GlyphClass: 4
Flags: W
TeX: -45 136
AnchorPoint: "Anchor-3" 0 -68 mark 0
LayerCount: 2
Fore
SplineSet
-23 -68 m 2
 -23 -56 -12 -45 0 -45 c 0
 12 -45 23 -56 23 -68 c 2
 23 -114 l 2
 23 -126 12 -136 0 -136 c 0
 -12 -136 -23 -126 -23 -114 c 2
 -23 -68 l 2
EndSplineSet
EndChar

StartChar: uni0328
Encoding: 808 808 254
Width: 0
GlyphClass: 4
Flags: W
TeX: 0 91
AnchorPoint: "Anchor-0" 0 0 mark 0
LayerCount: 2
Fore
SplineSet
23 -23 m 2
 23 -11 33 0 45 0 c 0
 57 0 68 -11 68 -23 c 2
 68 -68 l 2
 68 -80 57 -91 45 -91 c 0
 33 -91 23 -80 23 -68 c 2
 23 -23 l 2
EndSplineSet
EndChar

StartChar: uni0332
Encoding: 818 818 255
Width: 0
GlyphClass: 2
Flags: W
TeX: -45 91
LayerCount: 2
Fore
SplineSet
-159 -68 m 0
 -159 -56 -148 -45 -136 -45 c 2
 136 -45 l 2
 148 -45 159 -56 159 -68 c 0
 159 -80 148 -91 136 -91 c 2
 -136 -91 l 2
 -148 -91 -159 -80 -159 -68 c 0
EndSplineSet
EndChar

StartChar: uni0333
Encoding: 819 819 256
Width: 0
GlyphClass: 2
Flags: W
TeX: -45 182
LayerCount: 2
Fore
SplineSet
-159 -68 m 0
 -159 -56 -148 -45 -136 -45 c 2
 136 -45 l 2
 148 -45 159 -56 159 -68 c 0
 159 -80 148 -91 136 -91 c 2
 -136 -91 l 2
 -148 -91 -159 -80 -159 -68 c 0
-159 -159 m 0
 -159 -147 -148 -136 -136 -136 c 2
 136 -136 l 2
 148 -136 159 -147 159 -159 c 0
 159 -171 148 -182 136 -182 c 2
 -136 -182 l 2
 -148 -182 -159 -171 -159 -159 c 0
EndSplineSet
EndChar

StartChar: uni0337
Encoding: 823 823 257
Width: 0
GlyphClass: 4
Flags: W
TeX: 455 0
AnchorPoint: "Anchor-5" 0 227 mark 0
LayerCount: 2
Fore
SplineSet
-159 23 m 0
 -159 28 -158 31 -155 35 c 2
 117 445 l 2
 122 451 129 455 136 455 c 0
 149 455 159 444 159 432 c 0
 159 427 158 423 155 419 c 2
 -117 10 l 2
 -122 4 -129 0 -136 0 c 0
 -149 0 -159 11 -159 23 c 0
EndSplineSet
EndChar

StartChar: uni0338
Encoding: 824 824 258
Width: 0
GlyphClass: 4
Flags: W
TeX: 636 0
AnchorPoint: "Anchor-5" 0 318 mark 0
LayerCount: 2
Fore
SplineSet
-159 23 m 0
 -159 26 -158 29 -157 32 c 2
 116 623 l 2
 120 631 127 636 136 636 c 0
 150 636 159 625 159 614 c 0
 159 611 158 607 157 604 c 2
 -116 13 l 2
 -120 5 -127 0 -136 0 c 0
 -150 0 -159 12 -159 23 c 0
EndSplineSet
EndChar

StartChar: uni033F
Encoding: 831 831 259
Width: 0
GlyphClass: 2
Flags: W
TeX: 819 -682
LayerCount: 2
Fore
SplineSet
-159 796 m 0
 -159 808 -148 819 -136 819 c 2
 136 819 l 2
 148 819 159 808 159 796 c 0
 159 784 148 773 136 773 c 2
 -136 773 l 2
 -148 773 -159 784 -159 796 c 0
-159 705 m 0
 -159 717 -148 728 -136 728 c 2
 136 728 l 2
 148 728 159 717 159 705 c 0
 159 693 148 682 136 682 c 2
 -136 682 l 2
 -148 682 -159 693 -159 705 c 0
EndSplineSet
EndChar

StartChar: uni0340
Encoding: 832 832 260
Width: 0
GlyphClass: 4
Flags: W
TeX: 636 -545
AnchorPoint: "Anchor-7" 0 614 mark 0
AnchorPoint: "Anchor-1" 0 614 mark 0
LayerCount: 2
Fore
SplineSet
-23 614 m 0
 -23 625 -14 636 0 636 c 0
 8 636 16 632 20 624 c 2
 43 578 l 2
 45 575 45 571 45 568 c 0
 45 557 37 545 23 545 c 0
 15 545 6 550 2 558 c 2
 -20 604 l 2
 -22 607 -23 611 -23 614 c 0
EndSplineSet
EndChar

StartChar: uni0341
Encoding: 833 833 261
Width: 0
GlyphClass: 4
Flags: W
TeX: 636 -545
AnchorPoint: "Anchor-7" 0 614 mark 0
AnchorPoint: "Anchor-1" 0 614 mark 0
LayerCount: 2
Fore
SplineSet
-23 568 m 0
 -23 571 -22 575 -20 578 c 2
 2 624 l 2
 6 632 15 636 23 636 c 0
 37 636 45 625 45 614 c 0
 45 611 45 607 43 604 c 2
 20 558 l 2
 16 550 8 545 0 545 c 0
 -14 545 -23 557 -23 568 c 0
EndSplineSet
EndChar

StartChar: tonos
Encoding: 900 900 262
Width: 181
GlyphClass: 4
Flags: W
TeX: 636 -500
AnchorPoint: "Anchor-7" 68 523 mark 0
AnchorPoint: "Anchor-6" 114 614 mark 0
LayerCount: 2
Fore
SplineSet
45 523 m 0
 45 526 46 530 48 533 c 2
 93 624 l 2
 97 632 106 636 114 636 c 0
 128 636 136 625 136 614 c 0
 136 611 136 607 134 604 c 2
 89 513 l 2
 85 505 76 500 68 500 c 0
 54 500 45 512 45 523 c 0
EndSplineSet
EndChar

StartChar: Alpha
Encoding: 913 913 263
Width: 454
GlyphClass: 2
Flags: W
TeX: 636 0
AnchorPoint: "Anchor-6" 136 614 basechar 0
AnchorPoint: "Anchor-1" 227 750 basechar 0
LayerCount: 2
Fore
SplineSet
45 23 m 0
 45 25 46 27 46 29 c 2
 205 620 l 2
 208 630 217 636 227 636 c 1
 227 636 l 1
 228 636 l 2
 238 636 247 630 250 620 c 2
 408 29 l 2
 408 27 409 25 409 23 c 0
 409 12 400 0 386 0 c 0
 376 0 368 7 365 17 c 2
 320 182 l 1
 135 182 l 1
 90 17 l 2
 87 7 78 0 68 0 c 0
 54 0 45 12 45 23 c 0
147 227 m 1
 308 227 l 1
 227 528 l 1
 147 227 l 1
EndSplineSet
EndChar

StartChar: Beta
Encoding: 914 914 264
Width: 409
GlyphClass: 2
Flags: W
TeX: 636 0
AnchorPoint: "Anchor-1" 182 750 basechar 0
LayerCount: 2
Fore
SplineSet
45 23 m 2
 45 614 l 2
 45 624 54 636 68 636 c 2
 182 636 l 2
 270 636 341 564 341 477 c 0
 341 421 312 373 267 344 c 1
 326 314 364 252 364 182 c 0
 364 80 284 0 182 0 c 2
 68 0 l 2
 58 0 45 9 45 23 c 2
91 45 m 1
 182 45 l 2
 260 45 318 104 318 182 c 0
 318 259 261 318 182 318 c 2
 91 318 l 1
 91 45 l 1
91 364 m 1
 182 364 l 2
 249 364 295 418 295 477 c 0
 295 539 244 591 182 591 c 2
 91 591 l 1
 91 364 l 1
EndSplineSet
EndChar

StartChar: Gamma
Encoding: 915 915 265
Width: 363
GlyphClass: 2
Flags: W
TeX: 636 0
AnchorPoint: "Anchor-1" 182 750 basechar 0
LayerCount: 2
Fore
SplineSet
45 23 m 2
 45 614 l 2
 45 624 54 636 68 636 c 2
 295 636 l 2
 307 636 318 626 318 614 c 0
 318 602 307 591 295 591 c 2
 91 591 l 1
 91 23 l 2
 91 11 80 0 68 0 c 0
 56 0 45 11 45 23 c 2
EndSplineSet
EndChar

StartChar: uni0394
Encoding: 916 916 266
Width: 454
GlyphClass: 2
Flags: W
TeX: 636 0
AnchorPoint: "Anchor-1" 227 750 basechar 0
LayerCount: 2
Fore
SplineSet
45 23 m 0
 45 25 46 27 46 29 c 2
 205 620 l 2
 208 630 217 636 227 636 c 1
 227 636 l 1
 228 636 l 2
 238 636 247 630 250 620 c 2
 408 30 l 2
 408 28 409 25 409 23 c 0
 409 10 398 0 386 0 c 2
 68 0 l 2
 56 0 45 10 45 23 c 0
98 45 m 1
 357 45 l 1
 227 528 l 1
 98 45 l 1
EndSplineSet
EndChar

StartChar: Epsilon
Encoding: 917 917 267
Width: 363
GlyphClass: 2
Flags: W
TeX: 636 0
AnchorPoint: "Anchor-6" -23 614 basechar 0
AnchorPoint: "Anchor-1" 182 750 basechar 0
LayerCount: 2
Fore
SplineSet
45 23 m 2
 45 614 l 2
 45 624 54 636 68 636 c 2
 295 636 l 2
 307 636 318 626 318 614 c 0
 318 602 307 591 295 591 c 2
 91 591 l 1
 91 364 l 1
 205 364 l 2
 217 364 227 353 227 341 c 0
 227 329 217 318 205 318 c 2
 91 318 l 1
 91 45 l 1
 295 45 l 2
 307 45 318 35 318 23 c 0
 318 11 307 0 295 0 c 2
 68 0 l 2
 58 0 45 9 45 23 c 2
EndSplineSet
EndChar

StartChar: Zeta
Encoding: 918 918 268
Width: 409
GlyphClass: 2
Flags: W
TeX: 636 0
AnchorPoint: "Anchor-1" 205 750 basechar 0
LayerCount: 2
Fore
SplineSet
45 23 m 0
 45 26 47 30 48 33 c 2
 305 591 l 1
 68 591 l 2
 56 591 45 602 45 614 c 0
 45 626 56 636 68 636 c 2
 341 636 l 2
 353 636 364 625 364 613 c 0
 364 610 362 607 361 604 c 2
 104 45 l 1
 341 45 l 2
 353 45 364 35 364 23 c 0
 364 11 353 0 341 0 c 2
 68 0 l 2
 56 0 45 11 45 23 c 0
EndSplineSet
EndChar

StartChar: Eta
Encoding: 919 919 269
Width: 409
GlyphClass: 2
Flags: W
TeX: 636 0
AnchorPoint: "Anchor-6" -23 614 basechar 0
AnchorPoint: "Anchor-1" 205 750 basechar 0
LayerCount: 2
Fore
SplineSet
45 23 m 2
 45 614 l 2
 45 626 56 636 68 636 c 0
 80 636 91 626 91 614 c 2
 91 364 l 1
 318 364 l 1
 318 614 l 2
 318 626 329 636 341 636 c 0
 353 636 364 626 364 614 c 2
 364 23 l 2
 364 11 353 0 341 0 c 0
 329 0 318 11 318 23 c 2
 318 318 l 1
 91 318 l 1
 91 23 l 2
 91 11 80 0 68 0 c 0
 56 0 45 11 45 23 c 2
EndSplineSet
EndChar

StartChar: Theta
Encoding: 920 920 270
Width: 409
GlyphClass: 2
Flags: W
TeX: 636 0
AnchorPoint: "Anchor-1" 205 750 basechar 0
LayerCount: 2
Fore
SplineSet
45 159 m 2
 45 477 l 2
 45 564 118 636 205 636 c 0
 292 636 364 564 364 477 c 2
 364 159 l 2
 364 72 292 0 205 0 c 0
 118 0 45 72 45 159 c 2
91 159 m 2
 91 97 143 45 205 45 c 0
 267 45 318 97 318 159 c 2
 318 477 l 2
 318 539 267 591 205 591 c 0
 143 591 91 539 91 477 c 2
 91 159 l 2
136 341 m 0
 136 353 147 364 159 364 c 2
 250 364 l 2
 262 364 273 353 273 341 c 0
 273 329 262 318 250 318 c 2
 159 318 l 2
 147 318 136 329 136 341 c 0
EndSplineSet
EndChar

StartChar: Iota
Encoding: 921 921 271
Width: 136
GlyphClass: 2
Flags: W
TeX: 636 0
AnchorPoint: "Anchor-6" -23 614 basechar 0
AnchorPoint: "Anchor-1" 68 750 basechar 0
LayerCount: 2
Fore
SplineSet
45 23 m 2
 45 614 l 2
 45 626 56 636 68 636 c 0
 80 636 91 626 91 614 c 2
 91 23 l 2
 91 11 80 0 68 0 c 0
 56 0 45 11 45 23 c 2
EndSplineSet
EndChar

StartChar: Kappa
Encoding: 922 922 272
Width: 409
GlyphClass: 2
Flags: W
TeX: 636 0
AnchorPoint: "Anchor-1" 205 750 basechar 0
LayerCount: 2
Fore
SplineSet
45 23 m 2
 45 614 l 2
 45 626 56 636 68 636 c 0
 80 636 91 626 91 614 c 2
 91 318 l 1
 323 627 l 2
 328 633 334 636 341 636 c 0
 354 636 364 626 364 614 c 0
 364 609 362 604 359 600 c 2
 183 365 l 1
 361 34 l 2
 363 31 364 27 364 23 c 0
 364 12 355 0 341 0 c 0
 333 0 325 4 321 12 c 2
 153 325 l 1
 91 242 l 1
 91 23 l 2
 91 11 80 0 68 0 c 0
 56 0 45 11 45 23 c 2
EndSplineSet
EndChar

StartChar: Lambda
Encoding: 923 923 273
Width: 454
GlyphClass: 2
Flags: W
TeX: 636 0
AnchorPoint: "Anchor-1" 227 750 basechar 0
LayerCount: 2
Fore
SplineSet
45 23 m 0
 45 25 46 27 46 29 c 2
 205 620 l 2
 208 630 217 636 227 636 c 1
 227 636 l 1
 228 636 l 2
 238 636 247 630 250 620 c 2
 408 29 l 2
 408 27 409 25 409 23 c 0
 409 12 400 0 386 0 c 0
 376 0 368 7 365 17 c 2
 227 528 l 1
 90 17 l 2
 87 7 78 0 68 0 c 0
 54 0 45 12 45 23 c 0
EndSplineSet
EndChar

StartChar: Mu
Encoding: 924 924 274
Width: 500
GlyphClass: 2
Flags: W
TeX: 636 0
AnchorPoint: "Anchor-1" 250 750 basechar 0
LayerCount: 2
Fore
SplineSet
45 23 m 2
 45 614 l 2
 45 626 55 636 68 636 c 0
 77 636 84 632 88 625 c 2
 250 340 l 1
 411 625 l 2
 415 632 423 636 432 636 c 0
 444 636 455 626 455 614 c 2
 455 23 l 2
 455 11 444 0 432 0 c 0
 420 0 409 11 409 23 c 2
 409 529 l 1
 271 284 l 2
 266 276 258 273 250 273 c 0
 242 273 235 276 230 284 c 2
 91 528 l 1
 91 23 l 2
 91 11 80 0 68 0 c 0
 56 0 45 11 45 23 c 2
EndSplineSet
EndChar

StartChar: Nu
Encoding: 925 925 275
Width: 409
GlyphClass: 2
Flags: W
TeX: 636 0
AnchorPoint: "Anchor-1" 205 750 basechar 0
LayerCount: 2
Fore
SplineSet
45 23 m 2
 45 614 l 2
 45 626 55 636 68 636 c 0
 78 636 85 631 89 623 c 2
 318 125 l 1
 318 614 l 2
 318 626 329 636 341 636 c 0
 353 636 364 626 364 614 c 2
 364 23 l 2
 364 11 354 0 341 0 c 0
 331 0 324 5 320 13 c 2
 91 511 l 1
 91 23 l 2
 91 11 80 0 68 0 c 0
 56 0 45 11 45 23 c 2
EndSplineSet
EndChar

StartChar: Xi
Encoding: 926 926 276
Width: 409
GlyphClass: 2
Flags: W
TeX: 636 0
AnchorPoint: "Anchor-1" 205 750 basechar 0
LayerCount: 2
Fore
SplineSet
45 23 m 0
 45 35 56 45 68 45 c 2
 341 45 l 2
 353 45 364 35 364 23 c 0
 364 11 353 0 341 0 c 2
 68 0 l 2
 56 0 45 11 45 23 c 0
45 614 m 0
 45 626 56 636 68 636 c 2
 341 636 l 2
 353 636 364 626 364 614 c 0
 364 602 353 591 341 591 c 2
 68 591 l 2
 56 591 45 602 45 614 c 0
114 341 m 0
 114 353 124 364 136 364 c 2
 273 364 l 2
 285 364 295 353 295 341 c 0
 295 329 285 318 273 318 c 2
 136 318 l 2
 124 318 114 329 114 341 c 0
EndSplineSet
EndChar

StartChar: Omicron
Encoding: 927 927 277
Width: 409
GlyphClass: 2
Flags: W
TeX: 636 0
AnchorPoint: "Anchor-6" 45 614 basechar 0
AnchorPoint: "Anchor-1" 205 750 basechar 0
LayerCount: 2
Fore
SplineSet
45 159 m 2
 45 477 l 2
 45 564 118 636 205 636 c 0
 292 636 364 564 364 477 c 2
 364 159 l 2
 364 72 292 0 205 0 c 0
 118 0 45 72 45 159 c 2
91 159 m 2
 91 97 143 45 205 45 c 0
 267 45 318 97 318 159 c 2
 318 477 l 2
 318 539 267 591 205 591 c 0
 143 591 91 539 91 477 c 2
 91 159 l 2
EndSplineSet
EndChar

StartChar: Pi
Encoding: 928 928 278
Width: 409
GlyphClass: 2
Flags: W
TeX: 636 0
AnchorPoint: "Anchor-1" 205 750 basechar 0
LayerCount: 2
Fore
SplineSet
45 23 m 2
 45 614 l 2
 45 628 58 636 68 636 c 2
 341 636 l 2
 355 636 364 624 364 614 c 2
 364 23 l 2
 364 11 353 0 341 0 c 0
 329 0 318 11 318 23 c 2
 318 591 l 1
 91 591 l 1
 91 23 l 2
 91 11 80 0 68 0 c 0
 56 0 45 11 45 23 c 2
EndSplineSet
Substitution2: "'mgrk' Mathematical Greek in Greek lookup 31 subtable" product
EndChar

StartChar: Rho
Encoding: 929 929 279
Width: 409
GlyphClass: 2
Flags: W
TeX: 636 0
AnchorPoint: "Anchor-1" 182 750 basechar 0
LayerCount: 2
Fore
SplineSet
45 23 m 2
 45 614 l 2
 45 624 54 636 68 636 c 2
 182 636 l 2
 284 636 364 558 364 455 c 0
 364 353 286 273 182 273 c 2
 91 273 l 1
 91 23 l 2
 91 11 80 0 68 0 c 0
 56 0 45 11 45 23 c 2
91 318 m 1
 182 318 l 2
 261 318 318 378 318 455 c 0
 318 533 259 591 182 591 c 2
 91 591 l 1
 91 318 l 1
EndSplineSet
EndChar

StartChar: Sigma
Encoding: 931 931 280
Width: 409
GlyphClass: 2
Flags: W
TeX: 636 0
AnchorPoint: "Anchor-1" 205 750 basechar 0
LayerCount: 2
Fore
SplineSet
43 17 m 0
 43 25 48 32 48 32 c 1
 180 318 l 1
 48 604 l 2
 45 610 43 616 43 620 c 0
 43 635 59 636 65 636 c 2
 68 636 l 1
 341 636 l 2
 353 636 364 626 364 614 c 0
 364 602 353 591 341 591 c 2
 104 591 l 1
 225 328 l 2
 226 325 227 321 227 318 c 0
 227 315 226 312 225 309 c 2
 104 45 l 1
 341 45 l 2
 353 45 364 35 364 23 c 0
 364 11 353 0 341 0 c 2
 68 0 l 2
 48 0 43 9 43 17 c 0
EndSplineSet
Substitution2: "'mgrk' Mathematical Greek in Greek lookup 31 subtable" summation
EndChar

StartChar: Tau
Encoding: 932 932 281
Width: 409
GlyphClass: 2
Flags: W
TeX: 636 0
AnchorPoint: "Anchor-1" 205 750 basechar 0
LayerCount: 2
Fore
SplineSet
45 614 m 0
 45 626 56 636 68 636 c 2
 341 636 l 2
 353 636 364 626 364 614 c 0
 364 602 353 591 341 591 c 2
 227 591 l 1
 227 23 l 2
 227 11 217 0 205 0 c 0
 193 0 182 11 182 23 c 2
 182 591 l 1
 68 591 l 2
 56 591 45 602 45 614 c 0
EndSplineSet
EndChar

StartChar: Upsilon
Encoding: 933 933 282
Width: 454
GlyphClass: 2
Flags: W
TeX: 636 0
AnchorPoint: "Anchor-6" -23 614 basechar 0
AnchorPoint: "Anchor-1" 227 750 basechar 0
LayerCount: 2
Fore
SplineSet
45 614 m 0
 45 625 54 636 68 636 c 0
 76 636 84 633 88 625 c 2
 227 366 l 1
 366 625 l 2
 370 633 378 636 386 636 c 0
 400 636 409 625 409 614 c 0
 409 610 408 606 406 603 c 2
 250 312 l 1
 250 23 l 2
 250 11 239 0 227 0 c 0
 215 0 205 11 205 23 c 2
 205 312 l 1
 48 603 l 2
 46 606 45 610 45 614 c 0
EndSplineSet
EndChar

StartChar: Phi
Encoding: 934 934 283
Width: 454
GlyphClass: 2
Flags: W
TeX: 637 0
AnchorPoint: "Anchor-1" 227 750 basechar 0
LayerCount: 2
Fore
SplineSet
45 273 m 2
 45 364 l 2
 45 456 118 533 205 544 c 1
 205 615 l 2
 205 627 215 637 227 637 c 0
 239 637 250 627 250 615 c 2
 250 544 l 1
 339 533 409 456 409 364 c 2
 409 273 l 2
 409 180 339 103 250 92 c 1
 250 23 l 2
 250 11 239 0 227 0 c 0
 215 0 205 11 205 23 c 2
 205 92 l 1
 116 103 45 180 45 273 c 2
91 273 m 2
 91 206 141 149 205 138 c 1
 205 498 l 1
 143 487 91 430 91 364 c 2
 91 273 l 2
250 138 m 1
 314 149 364 206 364 273 c 2
 364 364 l 2
 364 431 314 487 250 498 c 1
 250 138 l 1
EndSplineSet
EndChar

StartChar: Chi
Encoding: 935 935 284
Width: 454
GlyphClass: 2
Flags: W
TeX: 636 0
AnchorPoint: "Anchor-1" 227 750 basechar 0
LayerCount: 2
Fore
SplineSet
45 23 m 0
 45 27 46 31 48 34 c 2
 201 318 l 1
 48 603 l 2
 46 606 45 610 45 614 c 0
 45 625 54 636 68 636 c 0
 76 636 84 633 88 625 c 2
 227 366 l 1
 366 625 l 2
 370 633 378 636 386 636 c 0
 400 636 409 625 409 614 c 0
 409 610 408 606 406 603 c 2
 253 318 l 1
 406 34 l 2
 408 31 409 27 409 23 c 0
 409 12 400 0 386 0 c 0
 378 0 370 4 366 12 c 2
 227 270 l 1
 88 12 l 2
 84 4 76 0 68 0 c 0
 54 0 45 12 45 23 c 0
EndSplineSet
EndChar

StartChar: Psi
Encoding: 936 936 285
Width: 454
GlyphClass: 2
Flags: W
TeX: 636 0
AnchorPoint: "Anchor-1" 227 750 basechar 0
LayerCount: 2
Fore
SplineSet
45 364 m 2
 45 614 l 2
 45 626 56 636 68 636 c 0
 80 636 91 626 91 614 c 2
 91 364 l 2
 91 297 141 240 205 229 c 1
 205 614 l 2
 205 626 215 636 227 636 c 0
 239 636 250 626 250 614 c 2
 250 229 l 1
 314 240 364 298 364 364 c 2
 364 614 l 2
 364 626 374 636 386 636 c 0
 398 636 409 626 409 614 c 2
 409 364 l 2
 409 272 339 194 250 183 c 1
 250 23 l 2
 250 11 239 0 227 0 c 0
 215 0 205 11 205 23 c 2
 205 183 l 1
 116 194 45 272 45 364 c 2
EndSplineSet
EndChar

StartChar: uni03A9
Encoding: 937 937 286
Width: 454
GlyphClass: 2
Flags: W
TeX: 636 0
AnchorPoint: "Anchor-6" 45 614 basechar 0
AnchorPoint: "Anchor-1" 227 750 basechar 0
LayerCount: 2
Fore
SplineSet
45 250 m 2
 45 455 l 2
 45 555 127 636 227 636 c 0
 327 636 409 555 409 455 c 2
 409 250 l 2
 409 183 360 126 295 115 c 1
 295 45 l 1
 341 45 l 2
 353 45 364 35 364 23 c 0
 364 11 353 0 341 0 c 2
 273 0 l 2
 259 0 250 13 250 23 c 2
 250 136 l 2
 250 150 263 159 273 159 c 0
 323 159 364 201 364 250 c 2
 364 455 l 2
 364 530 302 591 227 591 c 0
 152 591 91 530 91 455 c 2
 91 250 l 2
 91 200 132 159 182 159 c 0
 196 159 205 146 205 136 c 2
 205 23 l 2
 205 9 192 0 182 0 c 2
 114 0 l 2
 102 0 91 11 91 23 c 0
 91 35 102 45 114 45 c 2
 159 45 l 1
 159 115 l 1
 95 126 45 183 45 250 c 2
EndSplineSet
EndChar

StartChar: alpha
Encoding: 945 945 287
Width: 454
GlyphClass: 2
Flags: W
TeX: 455 0
AnchorPoint: "Anchor-1" 159 614 basechar 0
LayerCount: 2
Fore
SplineSet
45 114 m 2
 45 341 l 2
 45 403 96 455 159 455 c 0
 208 455 255 420 268 374 c 2
 285 313 l 1
 319 438 l 2
 322 448 331 455 341 455 c 0
 355 455 364 443 364 432 c 0
 364 430 363 428 363 426 c 2
 309 227 l 1
 358 45 l 1
 364 45 l 2
 376 45 386 35 386 23 c 0
 386 11 376 0 364 0 c 2
 341 0 l 2
 332 0 322 7 319 17 c 2
 285 141 l 1
 268 81 l 2
 255 35 208 0 159 0 c 0
 96 0 45 52 45 114 c 2
91 114 m 2
 91 76 121 45 159 45 c 0
 188 45 219 68 225 93 c 2
 261 227 l 1
 225 362 l 2
 219 387 188 409 159 409 c 0
 121 409 91 379 91 341 c 2
 91 114 l 2
EndSplineSet
EndChar

StartChar: beta
Encoding: 946 946 288
Width: 363
GlyphClass: 2
Flags: W
TeX: 636 182
AnchorPoint: "Anchor-1" 159 614 basechar 0
LayerCount: 2
Fore
SplineSet
45 -159 m 2
 45 500 l 2
 45 570 96 636 170 636 c 0
 244 636 295 570 295 500 c 0
 295 458 276 418 246 392 c 1
 288 368 318 324 318 273 c 2
 318 136 l 2
 318 62 257 0 182 0 c 2
 159 0 l 2
 147 0 136 11 136 23 c 0
 136 35 147 45 159 45 c 2
 182 45 l 2
 232 45 273 87 273 136 c 2
 273 273 l 2
 273 320 234 364 182 364 c 2
 170 364 l 1
 170 369 l 1
 170 404 l 1
 170 409 l 1
 218 409 250 454 250 500 c 0
 250 549 213 591 170 591 c 0
 127 591 91 550 91 500 c 2
 91 -159 l 2
 91 -171 80 -182 68 -182 c 0
 56 -182 45 -171 45 -159 c 2
EndSplineSet
EndChar

StartChar: gamma
Encoding: 947 947 289
Width: 363
GlyphClass: 2
Flags: W
TeX: 455 182
AnchorPoint: "Anchor-1" 159 614 basechar 0
LayerCount: 2
Fore
SplineSet
45 432 m 0
 45 444 56 455 68 455 c 0
 131 455 174 395 205 306 c 1
 223 354 247 399 276 444 c 0
 280 451 287 455 295 455 c 0
 308 455 318 443 318 432 c 0
 318 428 317 424 315 420 c 0
 275 357 247 301 228 229 c 1
 243 168 250 99 250 23 c 2
 250 -39 l 2
 250 -118 246 -182 205 -182 c 0
 164 -182 159 -118 159 -39 c 2
 159 23 l 2
 159 101 166 167 181 229 c 1
 179 239 175 247 173 256 c 0
 140 370 101 409 68 409 c 0
 56 409 45 420 45 432 c 0
EndSplineSet
EndChar

StartChar: delta
Encoding: 948 948 290
Width: 363
GlyphClass: 2
Flags: W
TeX: 636 0
AnchorPoint: "Anchor-1" 182 750 basechar 0
LayerCount: 2
Fore
SplineSet
45 136 m 2
 45 318 l 2
 45 389 103 449 173 454 c 1
 113 513 l 2
 99 527 91 546 91 568 c 0
 91 614 128 636 174 636 c 0
 208 636 238 622 265 597 c 0
 270 592 273 586 273 580 c 0
 273 567 262 557 250 557 c 0
 245 557 239 559 235 563 c 0
 214 583 194 591 174 591 c 0
 140 591 136 583 136 568 c 0
 136 557 139 551 145 545 c 2
 274 418 l 2
 301 393 318 357 318 318 c 2
 318 136 l 2
 318 61 257 0 182 0 c 0
 107 0 45 62 45 136 c 2
91 136 m 2
 91 88 133 45 182 45 c 0
 231 45 273 87 273 136 c 2
 273 318 l 2
 273 367 231 409 182 409 c 0
 133 409 91 367 91 318 c 2
 91 136 l 2
EndSplineSet
EndChar

StartChar: epsilon
Encoding: 949 949 291
Width: 363
GlyphClass: 2
Flags: W
TeX: 455 0
AnchorPoint: "Anchor-1" 182 614 basechar 0
LayerCount: 2
Fore
SplineSet
45 124 m 0
 45 162 66 202 97 227 c 1
 66 252 45 293 45 331 c 0
 45 410 101 455 182 455 c 0
 232 455 273 446 306 429 c 0
 314 425 318 417 318 409 c 0
 318 395 306 386 295 386 c 0
 291 386 288 387 285 389 c 0
 261 402 227 409 182 409 c 0
 118 409 91 384 91 331 c 0
 91 291 128 250 159 250 c 2
 205 250 l 2
 217 250 227 239 227 227 c 0
 227 215 217 205 205 205 c 2
 159 205 l 2
 128 205 91 164 91 124 c 0
 91 71 118 45 182 45 c 0
 227 45 261 52 285 65 c 0
 288 67 291 68 295 68 c 0
 306 68 318 59 318 45 c 0
 318 37 314 29 306 25 c 0
 273 8 232 0 182 0 c 0
 101 0 45 45 45 124 c 0
EndSplineSet
EndChar

StartChar: zeta
Encoding: 950 950 292
Width: 363
GlyphClass: 2
Flags: W
TeX: 636 182
AnchorPoint: "Anchor-1" 182 750 basechar 0
LayerCount: 2
Fore
SplineSet
45 136 m 0
 45 278 101 401 210 500 c 1
 159 500 l 2
 95 500 45 551 45 614 c 0
 45 626 56 636 68 636 c 0
 80 636 91 626 91 614 c 0
 91 576 121 545 159 545 c 2
 273 545 l 2
 285 545 295 536 295 523 c 0
 295 515 292 509 286 504 c 0
 154 405 91 284 91 136 c 0
 91 86 132 45 182 45 c 2
 205 45 l 2
 268 45 318 -7 318 -68 c 0
 318 -129 266 -182 205 -182 c 2
 114 -182 l 2
 102 -182 91 -171 91 -159 c 0
 91 -147 102 -136 114 -136 c 2
 205 -136 l 2
 241 -136 273 -104 273 -68 c 0
 273 -32 242 0 205 0 c 2
 182 0 l 2
 107 0 45 61 45 136 c 0
EndSplineSet
EndChar

StartChar: eta
Encoding: 951 951 293
Width: 409
GlyphClass: 2
Flags: W
TeX: 455 182
AnchorPoint: "Anchor-1" 227 614 basechar 0
LayerCount: 2
Fore
SplineSet
45 432 m 0
 45 444 56 455 68 455 c 0
 95 455 119 438 130 414 c 1
 155 439 189 455 227 455 c 0
 302 455 364 393 364 318 c 2
 364 -159 l 2
 364 -171 353 -182 341 -182 c 0
 329 -182 318 -171 318 -159 c 2
 318 318 l 2
 318 368 277 409 227 409 c 0
 177 409 136 368 136 318 c 2
 136 23 l 2
 136 11 126 0 114 0 c 0
 102 0 91 11 91 23 c 2
 91 386 l 2
 91 397 79 409 68 409 c 0
 56 409 45 420 45 432 c 0
EndSplineSet
EndChar

StartChar: theta
Encoding: 952 952 294
Width: 500
GlyphClass: 2
Flags: W
TeX: 636 0
AnchorPoint: "Anchor-1" 295 750 basechar 0
LayerCount: 2
Fore
SplineSet
45 205 m 0
 45 242 77 273 114 273 c 0
 136 273 156 262 168 243 c 2
 283 64 l 2
 291 51 301 45 318 45 c 0
 343 45 364 65 364 91 c 2
 364 364 l 1
 273 364 l 2
 198 364 136 425 136 500 c 0
 136 575 198 636 273 636 c 0
 348 636 409 575 409 500 c 2
 409 409 l 1
 432 409 l 2
 444 409 455 398 455 386 c 0
 455 374 444 364 432 364 c 2
 409 364 l 1
 409 91 l 2
 409 38 366 0 318 0 c 0
 288 0 261 14 245 40 c 2
 130 219 l 2
 126 226 123 227 114 227 c 0
 103 227 91 216 91 205 c 0
 91 193 80 182 68 182 c 0
 56 182 45 193 45 205 c 0
182 500 m 0
 182 450 223 409 273 409 c 2
 364 409 l 1
 364 500 l 2
 364 550 323 591 273 591 c 0
 223 591 182 550 182 500 c 0
EndSplineSet
EndChar

StartChar: iota
Encoding: 953 953 295
Width: 250
GlyphClass: 2
Flags: W
TeX: 455 0
AnchorPoint: "Anchor-1" 68 614 basechar 0
LayerCount: 2
Fore
SplineSet
45 80 m 2
 45 432 l 2
 45 444 56 455 68 455 c 0
 80 455 91 444 91 432 c 2
 91 80 l 2
 91 62 107 45 126 45 c 0
 140 45 159 59 161 65 c 0
 165 74 173 80 182 80 c 0
 196 80 205 68 205 57 c 0
 205 54 204 51 203 48 c 0
 192 20 158 0 126 0 c 0
 82 0 45 36 45 80 c 2
EndSplineSet
EndChar

StartChar: kappa
Encoding: 954 954 296
Width: 409
GlyphClass: 2
Flags: W
TeX: 455 0
AnchorPoint: "Anchor-1" 205 614 basechar 0
LayerCount: 2
Fore
SplineSet
45 432 m 0
 45 444 56 455 68 455 c 0
 105 455 136 422 136 386 c 2
 136 222 l 1
 324 446 l 2
 329 451 335 455 341 455 c 0
 354 455 364 444 364 432 c 0
 364 427 362 421 358 417 c 2
 213 243 l 1
 322 60 l 2
 330 46 336 45 341 45 c 2
 364 45 l 2
 376 45 386 35 386 23 c 0
 386 11 376 0 364 0 c 2
 341 0 l 2
 316 0 296 16 283 38 c 2
 183 206 l 1
 136 151 l 1
 136 23 l 2
 136 11 126 0 114 0 c 0
 102 0 91 11 91 23 c 2
 91 386 l 2
 91 397 79 409 68 409 c 0
 56 409 45 420 45 432 c 0
EndSplineSet
EndChar

StartChar: lambda
Encoding: 955 955 297
Width: 409
GlyphClass: 2
Flags: W
TeX: 636 0
AnchorPoint: "Anchor-1" 136 750 basechar 0
LayerCount: 2
Fore
SplineSet
45 23 m 0
 45 25 46 27 46 29 c 2
 158 432 l 1
 122 562 l 2
 115 586 107 591 91 591 c 0
 79 591 68 602 68 614 c 0
 68 626 79 636 91 636 c 0
 129 636 156 612 166 575 c 2
 311 51 l 2
 312 47 313 45 314 45 c 2
 318 45 l 2
 330 45 341 36 341 23 c 0
 341 9 329 0 314 0 c 0
 287 0 272 20 267 40 c 2
 182 347 l 1
 90 17 l 2
 87 7 78 0 68 0 c 0
 54 0 45 12 45 23 c 0
EndSplineSet
EndChar

StartChar: uni03BC
Encoding: 956 956 298
Width: 409
GlyphClass: 2
Flags: W
TeX: 455 182
AnchorPoint: "Anchor-1" 182 614 basechar 0
LayerCount: 2
Fore
SplineSet
45 -159 m 2
 45 432 l 2
 45 444 56 455 68 455 c 0
 80 455 91 444 91 432 c 2
 91 136 l 2
 91 85 132 45 182 45 c 0
 232 45 273 89 273 136 c 2
 273 432 l 2
 273 444 283 455 295 455 c 0
 307 455 318 444 318 432 c 2
 318 68 l 2
 318 57 330 45 341 45 c 0
 353 45 364 35 364 23 c 0
 364 11 353 0 341 0 c 0
 314 0 290 17 279 41 c 1
 254 16 220 0 181 0 c 0
 146 0 115 14 91 35 c 1
 91 -159 l 2
 91 -171 80 -182 68 -182 c 0
 56 -182 45 -171 45 -159 c 2
EndSplineSet
EndChar

StartChar: nu
Encoding: 957 957 299
Width: 363
GlyphClass: 2
Flags: W
TeX: 455 0
AnchorPoint: "Anchor-1" 205 614 basechar 0
LayerCount: 2
Fore
SplineSet
45 432 m 0
 45 444 56 455 68 455 c 0
 106 455 136 422 136 386 c 0
 136 295 148 192 171 76 c 1
 239 176 273 293 273 432 c 0
 273 444 283 455 295 455 c 0
 307 455 318 444 318 432 c 0
 318 266 271 124 177 8 c 0
 172 3 167 0 159 0 c 0
 149 0 138 8 136 18 c 0
 106 156 91 278 91 386 c 0
 91 397 79 409 68 409 c 0
 56 409 45 420 45 432 c 0
EndSplineSet
EndChar

StartChar: xi
Encoding: 958 958 300
Width: 409
GlyphClass: 2
Flags: W
TeX: 636 182
AnchorPoint: "Anchor-1" 182 750 basechar 0
LayerCount: 2
Fore
SplineSet
45 182 m 0
 45 253 87 315 147 345 c 1
 113 370 91 410 91 455 c 0
 91 490 104 521 126 545 c 1
 114 545 l 2
 76 545 45 578 45 614 c 0
 45 626 56 636 68 636 c 0
 80 636 91 626 91 614 c 0
 91 603 103 591 114 591 c 2
 273 591 l 2
 285 591 295 580 295 568 c 0
 295 556 285 545 273 545 c 2
 227 545 l 2
 177 545 136 505 136 455 c 0
 136 406 177 364 227 364 c 2
 273 364 l 2
 285 364 295 353 295 341 c 0
 295 329 285 318 273 318 c 2
 227 318 l 2
 152 318 91 257 91 182 c 0
 91 107 152 45 227 45 c 2
 250 45 l 2
 313 45 364 -7 364 -68 c 0
 364 -129 311 -182 250 -182 c 2
 159 -182 l 2
 147 -182 136 -171 136 -159 c 0
 136 -147 147 -136 159 -136 c 2
 250 -136 l 2
 286 -136 318 -104 318 -68 c 0
 318 -32 287 0 250 0 c 2
 227 0 l 2
 126 0 45 82 45 182 c 0
EndSplineSet
EndChar

StartChar: omicron
Encoding: 959 959 301
Width: 363
GlyphClass: 2
Flags: W
TeX: 455 0
AnchorPoint: "Anchor-1" 182 614 basechar 0
LayerCount: 2
Fore
SplineSet
45 136 m 2
 45 318 l 2
 45 393 107 455 182 455 c 0
 257 455 318 393 318 318 c 2
 318 136 l 2
 318 61 257 0 182 0 c 0
 107 0 45 62 45 136 c 2
91 136 m 2
 91 88 133 45 182 45 c 0
 231 45 273 87 273 136 c 2
 273 318 l 2
 273 367 231 409 182 409 c 0
 133 409 91 367 91 318 c 2
 91 136 l 2
EndSplineSet
EndChar

StartChar: pi
Encoding: 960 960 302
Width: 454
GlyphClass: 2
Flags: W
TeX: 477 0
AnchorPoint: "Anchor-1" 227 614 basechar 0
LayerCount: 2
Fore
SplineSet
45 432 m 0
 45 444 56 455 68 455 c 2
 318 455 l 2
 339 455 358 461 373 473 c 0
 377 476 381 477 386 477 c 0
 398 477 409 468 409 455 c 0
 409 448 406 441 400 436 c 0
 383 422 363 415 341 411 c 1
 341 68 l 2
 341 55 351 45 364 45 c 0
 376 45 386 35 386 23 c 0
 386 11 376 0 364 0 c 0
 326 0 295 30 295 68 c 2
 295 409 l 1
 159 409 l 1
 159 68 l 2
 159 30 129 0 91 0 c 0
 79 0 68 11 68 23 c 0
 68 35 79 45 91 45 c 0
 104 45 114 55 114 68 c 2
 114 409 l 1
 68 409 l 2
 56 409 45 420 45 432 c 0
EndSplineSet
EndChar

StartChar: rho
Encoding: 961 961 303
Width: 363
GlyphClass: 2
Flags: W
TeX: 455 182
AnchorPoint: "Anchor-1" 182 614 basechar 0
LayerCount: 2
Fore
SplineSet
45 136 m 2
 45 318 l 2
 45 393 107 455 182 455 c 0
 257 455 318 393 318 318 c 2
 318 136 l 2
 318 61 257 0 182 0 c 2
 172 0 l 1
 185 -28 191 -58 191 -91 c 0
 191 -117 190 -182 159 -182 c 0
 145 -182 136 -170 136 -159 c 0
 136 -157 137 -156 137 -154 c 0
 143 -130 146 -107 146 -87 c 0
 146 -40 130 -1 97 30 c 0
 68 58 45 94 45 136 c 2
91 136 m 2
 91 88 133 45 182 45 c 0
 231 45 273 87 273 136 c 2
 273 318 l 2
 273 367 231 409 182 409 c 0
 133 409 91 367 91 318 c 2
 91 136 l 2
EndSplineSet
EndChar

StartChar: sigma1
Encoding: 962 962 304
Width: 363
GlyphClass: 2
Flags: W
TeX: 455 182
AnchorPoint: "Anchor-1" 159 614 basechar 0
LayerCount: 2
Fore
SplineSet
45 114 m 2
 45 341 l 2
 45 403 97 455 159 455 c 0
 197 455 237 445 280 430 c 0
 289 427 295 418 295 409 c 0
 295 395 284 386 273 386 c 0
 270 386 267 387 265 388 c 0
 225 403 189 409 159 409 c 0
 122 409 91 378 91 341 c 2
 91 114 l 2
 91 76 121 45 159 45 c 2
 205 45 l 2
 266 45 318 -6 318 -67 c 2
 318 -68 l 2
 318 -128 267 -182 205 -182 c 2
 114 -182 l 2
 102 -182 91 -171 91 -159 c 0
 91 -147 102 -136 114 -136 c 2
 205 -136 l 2
 240 -136 273 -103 273 -68 c 2
 273 -67 l 2
 273 -32 241 0 205 0 c 2
 159 0 l 2
 96 0 45 52 45 114 c 2
EndSplineSet
EndChar

StartChar: sigma
Encoding: 963 963 305
Width: 363
GlyphClass: 2
Flags: W
TeX: 477 0
AnchorPoint: "Anchor-1" 182 614 basechar 0
LayerCount: 2
Fore
SplineSet
45 136 m 2
 45 318 l 2
 45 393 107 455 182 455 c 0
 209 455 229 441 255 441 c 0
 275 441 300 450 327 472 c 0
 331 475 336 477 341 477 c 0
 353 477 364 468 364 455 c 0
 364 448 360 442 355 437 c 0
 334 420 312 407 290 401 c 1
 308 378 318 349 318 318 c 2
 318 136 l 2
 318 61 257 0 182 0 c 0
 107 0 45 62 45 136 c 2
91 136 m 2
 91 88 133 45 182 45 c 0
 231 45 273 87 273 136 c 2
 273 318 l 2
 273 367 231 409 182 409 c 0
 133 409 91 367 91 318 c 2
 91 136 l 2
EndSplineSet
EndChar

StartChar: tau
Encoding: 964 964 306
Width: 409
GlyphClass: 2
Flags: W
TeX: 477 0
AnchorPoint: "Anchor-1" 182 614 basechar 0
LayerCount: 2
Fore
SplineSet
45 432 m 0
 45 444 56 455 68 455 c 2
 250 455 l 2
 271 455 290 461 305 473 c 0
 309 476 313 477 318 477 c 0
 330 477 341 468 341 455 c 0
 341 448 338 441 332 436 c 0
 308 418 280 409 250 409 c 2
 205 409 l 1
 205 68 l 2
 205 56 215 45 227 45 c 2
 250 45 l 2
 262 45 273 35 273 23 c 0
 273 11 262 0 250 0 c 2
 227 0 l 2
 189 0 159 30 159 68 c 2
 159 409 l 1
 68 409 l 2
 56 409 45 420 45 432 c 0
EndSplineSet
EndChar

StartChar: upsilon
Encoding: 965 965 307
Width: 363
GlyphClass: 2
Flags: W
TeX: 455 0
AnchorPoint: "Anchor-1" 182 614 basechar 0
LayerCount: 2
Fore
SplineSet
45 432 m 0
 45 444 56 455 68 455 c 0
 93 455 114 434 114 409 c 2
 114 91 l 2
 114 68 136 45 159 45 c 0
 170 45 180 50 195 59 c 0
 241 88 273 160 273 295 c 2
 273 313 l 2
 273 379 272 375 252 423 c 0
 251 426 250 429 250 432 c 0
 250 443 259 455 273 455 c 0
 282 455 290 449 294 440 c 0
 316 388 318 377 318 295 c 0
 318 157 288 63 219 20 c 0
 203 10 183 0 159 0 c 0
 110 0 68 41 68 91 c 2
 68 408 l 1
 67 409 l 1
 56 410 45 420 45 432 c 0
EndSplineSet
EndChar

StartChar: phi
Encoding: 966 966 308
Width: 454
GlyphClass: 2
Flags: W
TeX: 455 182
AnchorPoint: "Anchor-1" 227 614 basechar 0
LayerCount: 2
Fore
SplineSet
45 182 m 0
 45 274 61 360 92 440 c 0
 96 449 105 455 114 455 c 0
 128 455 136 443 136 432 c 0
 136 429 136 427 135 424 c 0
 105 349 91 268 91 182 c 0
 91 112 140 57 205 47 c 1
 205 375 l 2
 205 419 239 455 284 455 c 0
 378 455 409 345 409 182 c 0
 409 87 341 12 250 1 c 1
 250 -159 l 2
 250 -171 239 -182 227 -182 c 0
 215 -182 205 -171 205 -159 c 2
 205 1 l 1
 114 12 45 87 45 182 c 0
250 47 m 1
 316 57 364 112 364 182 c 0
 364 353 327 409 284 409 c 0
 265 409 250 395 250 375 c 2
 250 47 l 1
EndSplineSet
EndChar

StartChar: chi
Encoding: 967 967 309
Width: 409
GlyphClass: 2
Flags: W
TeX: 455 182
AnchorPoint: "Anchor-1" 205 614 basechar 0
LayerCount: 2
Fore
SplineSet
45 432 m 0
 45 444 56 455 68 455 c 0
 101 455 124 431 135 400 c 2
 205 202 l 1
 297 440 l 2
 301 449 309 455 318 455 c 0
 332 455 341 443 341 432 c 0
 341 429 341 427 340 424 c 2
 229 136 l 1
 317 -112 l 2
 325 -133 332 -136 341 -136 c 0
 353 -136 364 -147 364 -159 c 0
 364 -171 353 -182 341 -182 c 0
 308 -182 285 -158 274 -127 c 2
 204 71 l 1
 112 -167 l 2
 108 -176 100 -182 91 -182 c 0
 77 -182 68 -170 68 -159 c 0
 68 -156 69 -154 70 -151 c 2
 180 137 l 1
 92 385 l 2
 84 406 77 409 68 409 c 0
 56 409 45 420 45 432 c 0
EndSplineSet
EndChar

StartChar: psi
Encoding: 968 968 310
Width: 454
GlyphClass: 2
Flags: W
TeX: 545 182
AnchorPoint: "Anchor-1" 227 614 basechar 0
LayerCount: 2
Fore
SplineSet
45 182 m 2
 45 432 l 2
 45 444 56 455 68 455 c 0
 80 455 91 444 91 432 c 2
 91 182 l 2
 91 115 141 58 205 47 c 1
 205 523 l 2
 205 535 215 545 227 545 c 0
 239 545 250 535 250 523 c 2
 250 47 l 1
 314 58 364 116 364 182 c 2
 364 432 l 2
 364 444 374 455 386 455 c 0
 398 455 409 444 409 432 c 2
 409 182 l 2
 409 90 339 12 250 1 c 1
 250 -159 l 2
 250 -171 239 -182 227 -182 c 0
 215 -182 205 -171 205 -159 c 2
 205 1 l 1
 116 12 45 90 45 182 c 2
EndSplineSet
EndChar

StartChar: omega
Encoding: 969 969 311
Width: 500
GlyphClass: 2
Flags: W
TeX: 455 0
AnchorPoint: "Anchor-1" 250 614 basechar 0
LayerCount: 2
Fore
SplineSet
45 114 m 0
 45 262 60 370 93 441 c 0
 97 449 105 455 114 455 c 0
 128 455 136 443 136 432 c 0
 136 429 135 425 134 422 c 0
 106 362 91 259 91 114 c 0
 91 77 122 45 159 45 c 0
 196 45 227 77 227 114 c 2
 227 205 l 2
 227 217 238 227 250 227 c 0
 262 227 273 217 273 205 c 2
 273 115 l 1
 273 113 l 1
 273 112 l 2
 274 76 305 45 341 45 c 0
 378 45 409 77 409 114 c 0
 409 259 394 362 366 422 c 0
 365 425 364 429 364 432 c 0
 364 443 372 455 386 455 c 0
 395 455 403 449 407 441 c 0
 440 370 455 262 455 114 c 0
 455 51 403 0 341 0 c 0
 304 0 271 18 250 46 c 1
 229 18 196 0 159 0 c 0
 97 0 45 51 45 114 c 0
EndSplineSet
EndChar

StartChar: uni0401
Encoding: 1025 1025 312
Width: 363
GlyphClass: 2
Flags: W
TeX: 728 0
LayerCount: 2
Fore
SplineSet
45 23 m 2
 45 614 l 2
 45 624 54 636 68 636 c 2
 295 636 l 2
 307 636 318 626 318 614 c 0
 318 602 307 591 295 591 c 2
 91 591 l 1
 91 364 l 1
 205 364 l 2
 217 364 227 353 227 341 c 0
 227 329 217 318 205 318 c 2
 91 318 l 1
 91 45 l 1
 295 45 l 2
 307 45 318 35 318 23 c 0
 318 11 307 0 295 0 c 2
 68 0 l 2
 58 0 45 9 45 23 c 2
227 705 m 0
 227 717 238 728 250 728 c 0
 262 728 273 717 273 705 c 0
 273 692 263 682 250 682 c 0
 237 682 227 692 227 705 c 0
91 705 m 0
 91 717 102 728 114 728 c 0
 126 728 137 717 137 705 c 0
 137 692 127 682 114 682 c 0
 101 682 91 692 91 705 c 0
EndSplineSet
Ligature2: "'ccmp' Glyph Composition/Decomposition in Cyrillic lookup 47 subtable" uni0415 uni0308
EndChar

StartChar: uni0410
Encoding: 1040 1040 313
Width: 454
GlyphClass: 2
Flags: W
TeX: 636 0
LayerCount: 2
Fore
SplineSet
45 23 m 0
 45 25 46 27 46 29 c 2
 205 620 l 2
 208 630 217 636 227 636 c 1
 227 636 l 1
 228 636 l 2
 238 636 247 630 250 620 c 2
 408 29 l 2
 408 27 409 25 409 23 c 0
 409 12 400 0 386 0 c 0
 376 0 368 7 365 17 c 2
 320 182 l 1
 135 182 l 1
 90 17 l 2
 87 7 78 0 68 0 c 0
 54 0 45 12 45 23 c 0
147 227 m 1
 308 227 l 1
 227 528 l 1
 147 227 l 1
EndSplineSet
EndChar

StartChar: uni0411
Encoding: 1041 1041 314
Width: 409
GlyphClass: 2
Flags: W
TeX: 636 0
LayerCount: 2
Fore
SplineSet
45 23 m 2
 45 614 l 2
 45 628 58 636 68 636 c 2
 295 636 l 2
 307 636 318 626 318 614 c 0
 318 602 307 591 295 591 c 2
 91 591 l 1
 91 364 l 1
 182 364 l 2
 286 364 364 284 364 182 c 0
 364 79 284 0 182 0 c 2
 68 0 l 2
 54 0 45 13 45 23 c 2
91 45 m 1
 182 45 l 2
 259 45 318 104 318 182 c 0
 318 259 261 318 182 318 c 2
 91 318 l 1
 91 45 l 1
EndSplineSet
EndChar

StartChar: uni0412
Encoding: 1042 1042 315
Width: 409
GlyphClass: 2
Flags: W
TeX: 636 0
LayerCount: 2
Fore
SplineSet
45 23 m 2
 45 614 l 2
 45 624 54 636 68 636 c 2
 182 636 l 2
 270 636 341 564 341 477 c 0
 341 421 312 373 267 344 c 1
 326 314 364 252 364 182 c 0
 364 80 284 0 182 0 c 2
 68 0 l 2
 58 0 45 9 45 23 c 2
91 45 m 1
 182 45 l 2
 260 45 318 104 318 182 c 0
 318 259 261 318 182 318 c 2
 91 318 l 1
 91 45 l 1
91 364 m 1
 182 364 l 2
 249 364 295 418 295 477 c 0
 295 539 244 591 182 591 c 2
 91 591 l 1
 91 364 l 1
EndSplineSet
EndChar

StartChar: uni0413
Encoding: 1043 1043 316
Width: 363
GlyphClass: 2
Flags: W
TeX: 636 0
AnchorPoint: "Anchor-1" 205 750 basechar 0
LayerCount: 2
Fore
SplineSet
45 23 m 2
 45 614 l 2
 45 624 54 636 68 636 c 2
 295 636 l 2
 307 636 318 626 318 614 c 0
 318 602 307 591 295 591 c 2
 91 591 l 1
 91 23 l 2
 91 11 80 0 68 0 c 0
 56 0 45 11 45 23 c 2
EndSplineSet
EndChar

StartChar: uni0414
Encoding: 1044 1044 317
Width: 454
GlyphClass: 2
Flags: W
TeX: 636 45
LayerCount: 2
Fore
SplineSet
45 -23 m 2
 45 23 l 2
 45 33 54 45 68 45 c 2
 94 45 l 1
 182 617 l 2
 184 627 194 636 205 636 c 2
 341 636 l 2
 351 636 364 628 364 614 c 2
 364 45 l 1
 386 45 l 2
 396 45 409 37 409 23 c 2
 409 -23 l 2
 409 -35 398 -45 386 -45 c 0
 374 -45 364 -35 364 -23 c 2
 364 0 l 1
 91 0 l 1
 91 -23 l 2
 91 -35 80 -45 68 -45 c 0
 56 -45 45 -35 45 -23 c 2
140 45 m 1
 318 45 l 1
 318 591 l 1
 224 591 l 1
 140 45 l 1
EndSplineSet
EndChar

StartChar: uni0415
Encoding: 1045 1045 318
Width: 363
GlyphClass: 2
Flags: W
TeX: 636 0
AnchorPoint: "Anchor-1" 182 750 basechar 0
LayerCount: 2
Fore
SplineSet
45 23 m 2
 45 614 l 2
 45 624 54 636 68 636 c 2
 295 636 l 2
 307 636 318 626 318 614 c 0
 318 602 307 591 295 591 c 2
 91 591 l 1
 91 364 l 1
 205 364 l 2
 217 364 227 353 227 341 c 0
 227 329 217 318 205 318 c 2
 91 318 l 1
 91 45 l 1
 295 45 l 2
 307 45 318 35 318 23 c 0
 318 11 307 0 295 0 c 2
 68 0 l 2
 58 0 45 9 45 23 c 2
EndSplineSet
EndChar

StartChar: uni0416
Encoding: 1046 1046 319
Width: 500
GlyphClass: 2
Flags: W
TeX: 636 0
LayerCount: 2
Fore
SplineSet
45 23 m 0
 45 26 46 30 48 33 c 2
 201 340 l 1
 49 602 l 2
 47 606 45 610 45 614 c 0
 45 625 55 636 68 636 c 0
 76 636 84 632 88 625 c 2
 227 386 l 1
 227 614 l 2
 227 626 238 636 250 636 c 0
 262 636 273 626 273 614 c 2
 273 386 l 1
 412 625 l 2
 416 632 424 636 432 636 c 0
 445 636 455 625 455 614 c 0
 455 610 453 606 451 602 c 2
 299 340 l 1
 452 33 l 2
 454 30 455 26 455 23 c 0
 455 12 446 0 432 0 c 0
 424 0 415 5 411 13 c 2
 273 290 l 1
 273 23 l 2
 273 11 262 0 250 0 c 0
 238 0 227 11 227 23 c 2
 227 290 l 1
 89 13 l 2
 85 5 76 0 68 0 c 0
 54 0 45 12 45 23 c 0
EndSplineSet
EndChar

